<?xml version="1.0" standalone="no"?>
<!DOCTYPE svg PUBLIC "-//W3C//DTD SVG 1.1//EN" "http://www.w3.org/Graphics/SVG/1.1/DTD/svg11.dtd" >
<svg>
<metadata>
Created by FontForge 20090914 at Tue Dec 28 05:22:05 2021
 By www-data
&#194;&#169; 2020, Copyright by Beiersdorf AG. All rights reserved.
</metadata>
<defs>
<font id="NIVEABrandTypeTT-Bold" horiz-adv-x="0" >
  <font-face 
    font-family="NIVEA Brand Type TT"
    font-weight="700"
    font-stretch="normal"
    units-per-em="2048"
    panose-1="2 11 8 4 1 1 1 1 1 4"
    ascent="1638"
    descent="-410"
    x-height="1059"
    cap-height="1411"
    bbox="-1137 -562 6523 2042"
    underline-thickness="102"
    underline-position="-230"
    unicode-range="U+000D-U+F0101"
  />
<missing-glyph horiz-adv-x="944" 
d="M0 1411h944v-1411h-944v1411zM848 98v1215h-752v-1215h752z" />
    <glyph glyph-name="uF0101" unicode="NIVEA&#x23;" horiz-adv-x="6728" 
d="M3121 -76l-367 724l-366 761h388l345 -761l330 761h381l-355 -761zM1461 -76l-466 411.5l-445 400.5v-732h-345v1486l458.5 -407l454.5 -406v732h343v-1485zM1882 1409h344v-1405h-344v1405zM3993 1409h929v-308h-584v-241h584v-307h-584v-242h584v-307h-929v1405z
M5969 436l-173 410l-179 -410h352zM5086 4l354.5 759l355.5 727l360.5 -724.5l366.5 -761.5h-375l-71 169h-561l-72 -169h-358z" />
    <glyph glyph-name=".notdef" horiz-adv-x="944" 
d="M0 1411h944v-1411h-944v1411zM848 98v1215h-752v-1215h752z" />
    <glyph glyph-name=".null" 
 />
    <glyph glyph-name="nonmarkingreturn" unicode="&#xd;" horiz-adv-x="487" 
 />
    <glyph glyph-name="space" unicode=" " horiz-adv-x="487" 
 />
    <glyph glyph-name="exclam" unicode="!" horiz-adv-x="565" 
d="M133 1411h300l-28 -963h-245zM284 -25c-23.333 0 -45.333 4.66699 -66 14s-38.667 21.833 -54 37.5s-27.5 33.834 -36.5 54.501s-13.5 42.667 -13.5 66c0 22.667 4.5 44.167 13.5 64.5s21.167 38.166 36.5 53.499s33.333 27.333 54 36s42.667 13 66 13
s45.333 -4.33301 66 -13s38.667 -20.667 54 -36s27.5 -33.166 36.5 -53.499s13.5 -41.833 13.5 -64.5c0 -23.333 -4.5 -45.333 -13.5 -66s-21.167 -38.834 -36.5 -54.501s-33.333 -28.167 -54 -37.5s-42.667 -14 -66 -14z" />
    <glyph glyph-name="quotedbl" unicode="&#x22;" horiz-adv-x="830" 
d="M108 1460h234v-546h-234v546zM488 1460h234v-546h-234v546z" />
    <glyph glyph-name="numbersign" unicode="#" horiz-adv-x="1383" 
d="M248 327h-187l37 214h191l55 320h-187l38 217h189l57 328h236l-58 -328h273l59 328h237l-57 -328h191l-36 -217h-194l-57 -320h191l-37 -214h-190l-58 -327h-237l59 327h-276l-58 -327h-237zM798 545l56 320h-273l-57 -320h274z" />
    <glyph glyph-name="dollar" unicode="$" horiz-adv-x="1166" 
d="M510 11c-80.667 4.66699 -159.498 18.8379 -236.498 42.5049s-147.5 57.5 -211.5 101.5l113 217c30.667 -20 60.667 -37.833 90 -53.5s59.666 -28.834 90.999 -39.501s64.5 -18.834 99.5 -24.501s73.833 -8.5 116.5 -8.5c27.333 0 55.333 2.66699 84 8
s54.667 14.5 78 27.5s42.333 30.167 57 51.5s22 48 22 80c0 20 -4.5 37.833 -13.5 53.5s-21.167 29.5 -36.5 41.5s-33 22.333 -53 31s-40.667 16.667 -62 24l-63.5 19l-61.5 18l-64.5 19.5l-71.5 22.5c-36.667 11.333 -72.167 25.833 -106.5 43.5s-64.666 40 -90.999 67
s-47.5 59.333 -63.5 97s-24 82.167 -24 133.5c0 56.667 9.66699 108.667 29 156s46.833 88.833 82.5 124.5s78.667 64.834 129 87.501s106.166 37.667 167.499 45v167h191v-166c64 -6.66699 127.333 -19.667 190 -39s121 -45.333 175 -78l-110 -217
c-23.333 14 -48.166 27.167 -74.499 39.5s-53.833 23.166 -82.5 32.499s-58.167 16.666 -88.5 21.999s-61.166 8 -92.499 8c-26 0 -53.167 -2.5 -81.5 -7.5s-54.333 -13.5 -78 -25.5s-43 -28.167 -58 -48.5s-22.5 -46.166 -22.5 -77.499c0 -22 4.16699 -40.5 12.5 -55.5
s20.166 -28 35.499 -39s33.666 -20.667 54.999 -29s44.666 -16.5 69.999 -24.5c26 -9.33301 48.167 -16.833 66.5 -22.5l50.5 -15c15.333 -4.33301 30.333 -8.83301 45 -13.5l52 -16c42 -12 82.667 -27 122 -45s74 -40.333 104 -67s54.167 -58.834 72.5 -96.501
s27.5 -82.167 27.5 -133.5c0 -60.667 -9.5 -115.334 -28.5 -164.001s-45.5 -90.834 -79.5 -126.501s-75 -65 -123 -88s-101 -39.5 -159 -49.5v-178h-191v168z" />
    <glyph glyph-name="percent" unicode="%" horiz-adv-x="1892" 
d="M1237 1411h236l-817 -1411h-234zM439 676c-53.333 0 -103.5 10 -150.5 30s-88.167 47.5 -123.5 82.5s-63.166 75.667 -83.499 122s-30.5 96.166 -30.5 149.499c0 50.667 10.167 98.834 30.5 144.501s48.166 85.667 83.499 120s76.5 61.5 123.5 81.5s97.167 30 150.5 30
c52 0 101.167 -10 147.5 -30s87 -47.167 122 -81.5s62.667 -74.333 83 -120s30.5 -93.834 30.5 -144.501c0 -53.333 -10.167 -103.166 -30.5 -149.499s-48 -87 -83 -122s-75.667 -62.5 -122 -82.5s-95.5 -30 -147.5 -30zM437 877c22.667 0 44.334 4.83301 65.001 14.5
s38.834 22.667 54.501 39s28 35.5 37 57.5s13.5 45.333 13.5 70c0 24 -4.5 46.667 -13.5 68s-21.333 40.166 -37 56.499s-33.834 29.333 -54.501 39s-42.334 14.5 -65.001 14.5c-24 0 -46.333 -4.83301 -67 -14.5s-38.834 -22.667 -54.501 -39s-28 -35.166 -37 -56.499
s-13.5 -44 -13.5 -68c0 -24.667 4.5 -48 13.5 -70s21.333 -41.167 37 -57.5s33.834 -29.333 54.501 -39s43 -14.5 67 -14.5zM1458 -25c-53.333 0 -103.333 10.167 -150 30.5s-87.5 47.833 -122.5 82.5s-62.667 75.167 -83 121.5s-30.5 95.833 -30.5 148.5
c0 51.333 10.167 100 30.5 146s48 86.167 83 120.5s75.833 61.666 122.5 81.999s96.667 30.5 150 30.5c52.667 0 102.167 -10.167 148.5 -30.5s86.833 -47.666 121.5 -81.999s62.167 -74.5 82.5 -120.5s30.5 -94.667 30.5 -146c0 -52.667 -10.167 -102.167 -30.5 -148.5
s-47.833 -86.833 -82.5 -121.5s-75.167 -62.167 -121.5 -82.5s-95.833 -30.5 -148.5 -30.5zM1456 175c23.333 0 45.5 5 66.5 15s39.333 23.167 55 39.5s28.167 35.5 37.5 57.5s14 45 14 69s-4.66699 47 -14 69s-21.833 41.167 -37.5 57.5s-34 29.333 -55 39
s-43.167 14.5 -66.5 14.5s-45.333 -4.83301 -66 -14.5s-38.834 -22.667 -54.501 -39s-28 -35.5 -37 -57.5s-13.5 -45 -13.5 -69s4.5 -47 13.5 -69s21.333 -41.167 37 -57.5s33.834 -29.5 54.501 -39.5s42.667 -15 66 -15z" />
    <glyph glyph-name="ampersand" unicode="&#x26;" horiz-adv-x="1412" 
d="M479 -25c-56 0 -108.832 8.49902 -158.499 25.499s-93 41.667 -130 74s-66.167 72 -87.5 119s-32 100.167 -32 159.5c0 42.667 7.66699 84.5 23 125.5s35.833 79.833 61.5 116.5s54.834 70.5 87.501 101.5s66 57.833 100 80.5c-22 28.667 -41.333 56 -58 82
s-30.667 51.833 -42 77.5s-19.833 51.834 -25.5 78.501s-8.5 55 -8.5 85c0 55.333 10.667 105 32 149s49.666 81.333 84.999 112s75.333 54.167 120 70.5s90.667 24.5 138 24.5c52.667 0 101.667 -8 147 -24s84.666 -38.5 117.999 -67.5s59.666 -63.833 78.999 -104.5
s29 -86 29 -136c0 -40 -6.66699 -77.667 -20 -113s-31.5 -68.5 -54.5 -99.5s-49.667 -60.333 -80 -88s-62.5 -54.5 -96.5 -80.5l242 -246c28 28 59 64 93 108l114 153l159 -165l-92 -117.5c-32 -41 -71.333 -86.5 -118 -136.5l333 -339h-336l-172 172
c-34.667 -30.667 -69.5 -58.167 -104.5 -82.5s-70.667 -45 -107 -62s-74.166 -30 -113.499 -39s-81 -13.5 -125 -13.5zM528.001 203.999c43.333 0 84.332 12.501 122.999 37.501s76.667 55.833 114 92.5l-273 278c-20 -15.333 -38.833 -31.833 -56.5 -49.5
s-33 -36.334 -46 -56.001s-23.333 -40.167 -31 -61.5s-11.5 -43.333 -11.5 -66c0 -28 5.16699 -52.833 15.5 -74.5s24 -40 41 -55s36.333 -26.333 58 -34s43.834 -11.5 66.501 -11.5zM560 903c18.667 10.667 37.8311 23.168 57.498 37.501s37.5 30.166 53.5 47.499
s29.167 36.333 39.5 57s15.5 43.334 15.5 68.001c0 44 -12.5 78.833 -37.5 104.5s-56.5 38.5 -94.5 38.5c-18 0 -35.167 -3.83301 -51.5 -11.5s-30.666 -18.334 -42.999 -32.001s-22.166 -30 -29.499 -49s-11 -39.833 -11 -62.5c0 -36 8.66699 -70 26 -102
s42.333 -64 75 -96z" />
    <glyph glyph-name="quotesingle" unicode="'" horiz-adv-x="449" 
d="M108 1460h234v-546h-234v546z" />
    <glyph glyph-name="parenleft" unicode="(" horiz-adv-x="698" 
d="M521 -272c-62 41.333 -119.998 94.335 -173.998 159.002s-101.167 137.667 -141.5 219s-72.166 169.666 -95.499 264.999s-35 194.666 -35 297.999c0 102.667 11.667 201.5 35 296.5s55.166 183 95.499 264s87.666 153.667 141.999 218s112.166 117.166 173.499 158.499
l149 -220c-44 -28.667 -85.5 -67 -124.5 -115s-73 -103.167 -102 -165.5s-52 -130.5 -69 -204.5s-25.5 -151.333 -25.5 -232c0 -81.333 8.5 -159.333 25.5 -234s40 -143.167 69 -205.5s63 -117.666 102 -165.999s80.5 -86.833 124.5 -115.5z" />
    <glyph glyph-name="parenright" unicode=")" horiz-adv-x="698" 
d="M28 -52c44 28.667 85.502 67.165 124.502 115.498s73 103.666 102 165.999s52 130.833 69 205.5s25.5 152.667 25.5 234c0 80.667 -8.5 158 -25.5 232s-40 142.167 -69 204.5s-63 117.5 -102 165.5s-80.5 86.333 -124.5 115l149 220
c61.333 -41.333 119.166 -94.166 173.499 -158.499s101.666 -137 141.999 -218s72.166 -169 95.499 -264s35 -193.833 35 -296.5c0 -103.333 -11.667 -202.666 -35 -297.999s-55.166 -183.666 -95.499 -264.999s-87.5 -154.333 -141.5 -219s-112 -117.667 -174 -159z" />
    <glyph glyph-name="asterisk" unicode="*" horiz-adv-x="916" 
d="M151 940l150 199l-243 75l68 197l234 -84l-5 252h206l-6 -252l235 84l67 -197l-243 -75l151 -199l-164 -123l-144 203l-142 -203z" />
    <glyph glyph-name="plus" unicode="+" horiz-adv-x="1091" 
d="M425 461h-350v234h350v361h242v-361h351v-234h-351v-364h-242v364z" />
    <glyph glyph-name="comma" unicode="," horiz-adv-x="505" 
d="M143 293h284l-201 -545h-222z" />
    <glyph glyph-name="hyphen" unicode="-" horiz-adv-x="824" 
d="M116 695h594v-234h-594v234z" />
    <glyph glyph-name="period" unicode="." horiz-adv-x="495" 
d="M248 -25c-23.333 0 -45.5 4.5 -66.5 13.5s-39.333 21.333 -55 37s-28.167 34.167 -37.5 55.5s-14 44 -14 68s4.66699 46.667 14 68s21.833 40 37.5 56s34 28.5 55 37.5s43.167 13.5 66.5 13.5c24 0 46.667 -4.5 68 -13.5s39.833 -21.5 55.5 -37.5s28 -34.667 37 -56
s13.5 -44 13.5 -68s-4.5 -46.667 -13.5 -68s-21.333 -39.833 -37 -55.5s-34.167 -28 -55.5 -37s-44 -13.5 -68 -13.5z" />
    <glyph glyph-name="slash" unicode="/" horiz-adv-x="1110" 
d="M808 1577h272l-776 -1735h-272z" />
    <glyph glyph-name="zero" unicode="0" horiz-adv-x="1269" 
d="M634 -25c-74.667 0 -139.834 10.667 -195.501 32s-103.334 50.333 -143.001 87s-72.334 79.167 -98.001 127.5s-46 99.666 -61 153.999s-25.333 109.833 -31 166.5s-8.5 111.667 -8.5 165c0 52.667 2.83301 107.334 8.5 164.001s16 112 31 166s35.333 105.167 61 153.5
s58.334 90.666 98.001 126.999s87.334 65.166 143.001 86.499s120.834 32 195.501 32s139.834 -10.667 195.501 -32s103.334 -50.166 143.001 -86.499s72.5 -78.666 98.5 -126.999s46.5 -99.5 61.5 -153.5s25.333 -109.333 31 -166s8.5 -111.334 8.5 -164.001
c0 -53.333 -2.83301 -108.333 -8.5 -165s-16 -112.167 -31 -166.5s-35.5 -105.666 -61.5 -153.999s-58.833 -90.833 -98.5 -127.5s-87.334 -65.667 -143.001 -87s-120.834 -32 -195.501 -32zM634 220c36.667 0 68.499 8.00098 95.499 24.001s49.833 37.167 68.5 63.5
s33.834 56.5 45.501 90.5s20.834 69.167 27.501 105.5s11.167 72.166 13.5 107.499s3.5 67.333 3.5 96s-1 60.667 -3 96s-6.33301 71 -13 107s-15.834 70.833 -27.501 104.5s-27 63.5 -46 89.5s-42 47 -69 63s-58.833 24 -95.5 24s-68.334 -8 -95.001 -24
s-49.167 -37 -67.5 -63s-33.333 -55.833 -45 -89.5s-20.667 -68.5 -27 -104.5s-10.666 -71.667 -12.999 -107s-3.5 -67.333 -3.5 -96c0 -29.333 1.16699 -61.5 3.5 -96.5s6.66602 -70.667 12.999 -107s15.333 -71.5 27 -105.5s26.667 -64.167 45 -90.5
s40.833 -47.5 67.5 -63.5s58.334 -24 95.001 -24z" />
    <glyph glyph-name="one" unicode="1" horiz-adv-x="838" 
d="M404 998l-273.001 -161l-128 217l630 377c9.33301 5.33301 15.833 8.5 19.5 9.5s6.83398 1.5 9.50098 1.5c9.33301 0 14 -6.33301 14 -19v-1423h-272v998z" />
    <glyph glyph-name="two" unicode="2" horiz-adv-x="1179" 
d="M95 0c-7.33301 0 -12.3301 1.50195 -14.9971 4.50195s-4 6.5 -4 10.5c0 6.66699 5.66699 17 17 31l128.5 145.5l133.5 158.5l126.5 156.5l108.5 138.5c31.333 40 57.666 75.5 78.999 106.5s38.666 59.5 51.999 85.5s23 50.667 29 74s9 47 9 71c0 30 -5 57.833 -15 83.5
s-24.167 47.667 -42.5 66s-40.833 32.666 -67.5 42.999s-56.667 15.166 -90 14.499c-30.667 0 -58.834 -6 -84.501 -18s-49 -28.333 -70 -49s-39.667 -45.5 -56 -74.5s-30.5 -60.5 -42.5 -94.5l-244 90c18 56.667 42.333 109 73 157s67.5 89.5 110.5 124.5
s92.167 62.333 147.5 82s116.666 29.5 183.999 29.5c73.333 0.666992 140 -9.33301 200 -30s111.333 -50 154 -88s75.667 -83.5 99 -136.5s35 -111.167 35 -174.5c0 -43.333 -5.66699 -85 -17 -125s-26.666 -79.5 -45.999 -118.5s-42.5 -77.833 -69.5 -116.5l-86.5 -118
l-108 -134l-130 -156h503v-239h-1001z" />
    <glyph glyph-name="three" unicode="3" horiz-adv-x="1183" 
d="M598 -25c-66 0 -127.832 7.99902 -185.499 23.999s-109.667 38.333 -156 67s-87 63 -122 103s-62.833 84 -83.5 132l226 124c30 -71.333 71.167 -125 123.5 -161s111.833 -54 178.5 -54c30.667 0 59.834 4 87.501 12s52 20.167 73 36.5s37.5 37 49.5 62s18 54.5 18 88.5
c0 35.333 -8 66 -24 92s-37.5 47.667 -64.5 65s-58.5 30.333 -94.5 39s-74 13 -114 13h-88v209h82c36.667 0 71 4.33301 103 13s60 21.167 84 37.5s43 36.833 57 61.5s21 53 21 85c0 26 -4.66699 50 -14 72s-22.833 41 -40.5 57s-38.834 28.5 -63.501 37.5
s-52.334 13.5 -83.001 13.5c-58.667 0 -110.167 -17 -154.5 -51s-79.166 -81 -104.499 -141l-224 122c18.667 38 43 75.167 73 111.5s66 68.5 108 96.5s89.833 50.667 143.5 68s114.167 26 181.5 26s129 -8.66699 185 -26s104.167 -42.5 144.5 -75.5
s71.666 -73.167 93.999 -120.5s33.5 -100.666 33.5 -159.999c0 -75.333 -20.167 -140.5 -60.5 -195.5s-96.5 -97.167 -168.5 -126.5c40.667 -13.333 77.834 -31 111.501 -53s62.667 -47.5 87 -76.5s43.166 -61.333 56.499 -97s20 -73.5 20 -113.5
c0 -69.333 -13.167 -130 -39.5 -182s-62 -95.5 -107 -130.5s-97.5 -61.167 -157.5 -78.5s-124 -26 -192 -26z" />
    <glyph glyph-name="four" unicode="4" horiz-adv-x="1218" 
d="M729 297h-689.999c-6.66699 0 -11 1.33301 -13 4s-3 5.66699 -3 9s0.666992 6.83301 2 10.5s3.66602 9.16699 6.99902 16.5l505 1069h302l-410 -869h300v331h268v-331h168v-240h-168v-297h-268v297z" />
    <glyph glyph-name="five" unicode="5" horiz-adv-x="1197" 
d="M572 -25c-65.333 0 -125.664 7.33203 -180.997 21.999s-105.333 35 -150 61s-83.834 57 -117.501 93s-61.5 75.333 -83.5 118l219 124c13.333 -27.333 30 -52.166 50 -74.499s43 -41.5 69 -57.5s54.5 -28.5 85.5 -37.5s64.167 -13.5 99.5 -13.5
c38.667 0 74.167 5.16699 106.5 15.5s60.166 25.833 83.499 46.5s41.666 46 54.999 76s20 65 20 105c0 36.667 -5.66699 69.667 -17 99s-27.666 54.333 -48.999 75s-47.333 36.667 -78 48s-65.334 17 -104.001 17c-23.333 0 -44.833 -2.16699 -64.5 -6.5
s-38.334 -10 -56.001 -17s-34.167 -14.833 -49.5 -23.5l-44 -25l-203 103l63 683h818v-241h-588l-27 -300c38 16 76.667 28.833 116 38.5s78.333 14.5 117 14.5c68 0 129.833 -10.167 185.5 -30.5s103.334 -50 143.001 -89s70.167 -86.667 91.5 -143s32 -120.5 32 -192.5
c0 -75.333 -13.5 -143 -40.5 -203s-64.5 -111.167 -112.5 -153.5s-105.167 -74.833 -171.5 -97.5s-138.833 -34 -217.5 -34z" />
    <glyph glyph-name="six" unicode="6" horiz-adv-x="1199" 
d="M615 -25c-74.667 0 -144.33 11.332 -208.997 33.999s-120.834 54.667 -168.501 96s-85.167 90.666 -112.5 147.999s-41 121 -41 191c0 27.333 1.5 53.5 4.5 78.5s7.83301 49.667 14.5 74s15 48.5 25 72.5s21.667 48.667 35 74c4.66699 9.33301 10.5 20 17.5 32l29 48
l47.5 76l73.5 115l107.5 165l150 227h314l-176 -264.5l-175 -261.5c19.333 8.66699 41.666 15.667 66.999 21s53 8 83 8c32 0 65.167 -4 99.5 -12s68 -20.167 101 -36.5s64.167 -37.166 93.5 -62.499s55.166 -55 77.499 -89s40 -72.5 53 -115.5s19.5 -90.833 19.5 -143.5
c0 -69.333 -13.5 -133.166 -40.5 -191.499s-64.167 -108.5 -111.5 -150.5s-103.333 -74.667 -168 -98s-134.667 -35 -210 -35zM619.004 209.999c36.667 0 69.8311 5.83496 99.498 17.502s55.167 28 76.5 49s37.833 46.167 49.5 75.5s17.5 61.666 17.5 96.999
c0 34 -5.83301 65.5 -17.5 94.5s-28.167 54 -49.5 75s-46.833 37.5 -76.5 49.5s-62.5 18 -98.5 18c-35.333 0 -68.166 -5.83301 -98.499 -17.5s-56.666 -28 -78.999 -49s-39.833 -46 -52.5 -75s-19 -60.833 -19 -95.5c0 -36 6.16699 -68.833 18.5 -98.5
s29.5 -54.834 51.5 -75.501s48.167 -36.667 78.5 -48s63.5 -17 99.5 -17z" />
    <glyph glyph-name="seven" unicode="7" horiz-adv-x="1111" 
d="M685 1165l-632 -0.000976562v241h1028c8.66699 0 13 -2 13 -6c0 -1.33301 -0.5 -3.66602 -1.5 -6.99902s-3.5 -9.33301 -7.5 -18l-631 -1375h-306z" />
    <glyph glyph-name="eight" unicode="8" horiz-adv-x="1230" 
d="M616 -25c-91.333 0 -170.171 11.333 -236.504 34s-121 53.334 -164 92.001s-74.833 83.334 -95.5 134.001s-31 103.667 -31 159c0 41.333 7.16699 80.333 21.5 117s33.833 69.834 58.5 99.501s53.834 55.334 87.501 77.001s70.167 37.834 109.5 48.501
c-34.667 13.333 -66.334 30.833 -95.001 52.5s-53.167 46.167 -73.5 73.5s-36.166 57 -47.499 89s-17 65 -17 99c0 54 10.5 104.333 31.5 151s52 87.5 93 122.5s91.5 62.5 151.5 82.5s129 30 207 30c77.333 0 146 -10 206 -30s110.333 -47.5 151 -82.5
s71.5 -75.833 92.5 -122.5s31.5 -97 31.5 -151c0 -34 -5.5 -67 -16.5 -99s-26.5 -61.667 -46.5 -89s-44.333 -51.833 -73 -73.5s-60.667 -39.167 -96 -52.5c38.667 -10.667 74.834 -26.834 108.501 -48.501s62.834 -47.334 87.501 -77.001s44.167 -62.834 58.5 -99.501
s21.5 -75.667 21.5 -117c0 -55.333 -10.167 -108.333 -30.5 -159s-51.833 -95.334 -94.5 -134.001s-97.167 -69.334 -163.5 -92.001s-145.166 -34 -236.499 -34zM615.995 206c32 0 62.5 4.66699 91.5 14s54.333 22.833 76 40.5s39 39.667 52 66s19.5 56.5 19.5 90.5
c0 32.667 -6.5 62 -19.5 88s-30.5 48 -52.5 66s-47.333 31.667 -76 41s-59 14 -91 14s-62.5 -4.66699 -91.5 -14s-54.5 -23 -76.5 -41s-39.5 -40 -52.5 -66s-19.5 -55.333 -19.5 -88c0 -34 6.33301 -64.167 19 -90.5s30 -48.333 52 -66s47.5 -31.167 76.5 -40.5
s59.833 -14 92.5 -14zM615.995 841c28 0 54.3301 4 78.9971 12s46.334 19.667 65.001 35s33.334 34.166 44.001 56.499s16 48.166 16 77.499c0 28.667 -5.16699 54.5 -15.5 77.5s-24.666 42.5 -42.999 58.5s-40 28.167 -65 36.5s-51.833 12.5 -80.5 12.5
s-55.5 -4.16699 -80.5 -12.5s-46.833 -20.5 -65.5 -36.5s-33.334 -35.5 -44.001 -58.5s-16 -48.833 -16 -77.5c0 -29.333 5.33301 -55.166 16 -77.499s25.334 -41.166 44.001 -56.499s40.5 -27 65.5 -35s51.833 -12 80.5 -12z" />
    <glyph glyph-name="nine" unicode="9" horiz-adv-x="1198" 
d="M296 0l176.001 267.002l177 265c-20.667 -8.66699 -43.667 -15.667 -69 -21s-53 -8 -83 -8c-48 0 -98 9.16699 -150 27.5s-99.667 46.166 -143 83.499s-79 84.833 -107 142.5s-42 126.167 -42 205.5c0 69.333 13.5 133 40.5 191s64 108 111 150s102.667 74.667 167 98
s134.166 35 209.499 35c74.667 0 144.5 -11.167 209.5 -33.5s121.5 -53.833 169.5 -94.5s85.667 -89.5 113 -146.5s41 -120.167 41 -189.5c0 -52.667 -7 -103.834 -21 -153.501s-33.667 -99.5 -59 -149.5l-18.5 -32.5l-29 -49.5l-47.5 -77.5l-74 -116.5l-108 -166.5
l-150 -226.5h-313zM579.001 726.002c36 0 69.167 5.83301 99.5 17.5s56.5 28 78.5 49s39.167 46 51.5 75s18.5 61.167 18.5 96.5c0 36.667 -6.16699 69.5 -18.5 98.5s-29.333 53.833 -51 74.5s-47.5 36.5 -77.5 47.5s-63 16.5 -99 16.5c-36.667 0 -70 -5.83301 -100 -17.5
s-55.667 -28 -77 -49s-37.833 -46 -49.5 -75s-17.5 -60.833 -17.5 -95.5s5.83301 -66.667 17.5 -96s28.167 -54.5 49.5 -75.5s46.833 -37.333 76.5 -49s62.5 -17.5 98.5 -17.5z" />
    <glyph glyph-name="colon" unicode=":" horiz-adv-x="553" 
d="M276 743c-22.667 0 -44.334 4.66699 -65.001 14s-38.667 21.833 -54 37.5s-27.666 33.834 -36.999 54.501s-14 42.667 -14 66c0 22.667 4.66699 44.167 14 64.5s21.666 38.166 36.999 53.499s33.333 27.5 54 36.5s42.334 13.5 65.001 13.5c23.333 0 45.333 -4.5 66 -13.5
s38.667 -21.167 54 -36.5s27.5 -33.166 36.5 -53.499s13.5 -41.833 13.5 -64.5c0 -23.333 -4.5 -45.333 -13.5 -66s-21.167 -38.834 -36.5 -54.501s-33.333 -28.167 -54 -37.5s-42.667 -14 -66 -14zM276 -25c-22.667 0 -44.334 4.66699 -65.001 14s-38.667 21.833 -54 37.5
s-27.666 33.834 -36.999 54.501s-14 42.667 -14 66c0 22.667 4.66699 44.167 14 64.5s21.666 38.166 36.999 53.499s33.333 27.333 54 36s42.334 13 65.001 13c23.333 0 45.333 -4.33301 66 -13s38.667 -20.667 54 -36s27.5 -33.166 36.5 -53.499s13.5 -41.833 13.5 -64.5
c0 -23.333 -4.5 -45.333 -13.5 -66s-21.167 -38.834 -36.5 -54.501s-33.333 -28.167 -54 -37.5s-42.667 -14 -66 -14z" />
    <glyph glyph-name="semicolon" unicode=";" horiz-adv-x="570" 
d="M166 293h285l-201 -545h-223zM298 743c-23.333 0 -45.333 4.66699 -66 14s-38.667 21.833 -54 37.5s-27.5 33.834 -36.5 54.501s-13.5 42.667 -13.5 66c0 22.667 4.5 44.167 13.5 64.5s21.167 38.166 36.5 53.499s33.333 27.5 54 36.5s42.667 13.5 66 13.5
s45.166 -4.5 65.499 -13.5s38.166 -21.167 53.499 -36.5s27.5 -33.166 36.5 -53.499s13.5 -41.833 13.5 -64.5c0 -23.333 -4.5 -45.333 -13.5 -66s-21.167 -38.834 -36.5 -54.501s-33.166 -28.167 -53.499 -37.5s-42.166 -14 -65.499 -14z" />
    <glyph glyph-name="less" unicode="&#x3c;" horiz-adv-x="1044" 
d="M65 474v207l789 433l114 -208l-608 -328l608 -330l-114 -207z" />
    <glyph glyph-name="equal" unicode="=" horiz-adv-x="1171" 
d="M124 919h923v-234h-923v234zM124 473h923v-234h-923v234z" />
    <glyph glyph-name="greater" unicode="&#x3e;" horiz-adv-x="1044" 
d="M78 248l607 330l-607 328l113 208l789 -433v-207l-789 -433z" />
    <glyph glyph-name="question" unicode="?" horiz-adv-x="941" 
d="M252 750c114 28 199.834 64.668 257.501 110.001s86.5 100.333 86.5 165c0 28.667 -5 54.167 -15 76.5s-23.667 41 -41 56s-38 26.333 -62 34s-50.333 11.5 -79 11.5c-20.667 0 -41.834 -2.16699 -63.501 -6.5s-43.334 -10.5 -65.001 -18.5s-42.834 -17.333 -63.501 -28
s-40 -22 -58 -34l-104 191c26.667 19.333 55.834 36.833 87.501 52.5s64.834 29.167 99.501 40.5s70 20.166 106 26.499s71.667 9.5 107 9.5c56 0 110.333 -7.5 163 -22.5s99.334 -38 140.001 -69s73.167 -70.667 97.5 -119s35.833 -105.5 34.5 -171.5
c-1.33301 -92.667 -31.333 -176.5 -90 -251.5s-152.334 -137.5 -281.001 -187.5v-167h-257v302zM381.001 -24.999c-23.333 0 -45.166 4.66699 -65.499 14s-38.166 21.833 -53.499 37.5s-27.5 33.834 -36.5 54.501s-13.5 42.667 -13.5 66c0 22.667 4.5 44.167 13.5 64.5
s21.167 38.166 36.5 53.499s33.166 27.333 53.499 36s42.166 13 65.499 13s45.333 -4.33301 66 -13s38.667 -20.667 54 -36s27.5 -33.166 36.5 -53.499s13.5 -41.833 13.5 -64.5c0 -23.333 -4.5 -45.333 -13.5 -66s-21.167 -38.834 -36.5 -54.501s-33.333 -28.167 -54 -37.5
s-42.667 -14 -66 -14z" />
    <glyph glyph-name="at" unicode="@" horiz-adv-x="1905" 
d="M961 -324c-134 0 -255.667 21.666 -365 64.999s-202.833 103.833 -280.5 181.5s-137.667 170.167 -180 277.5s-63.5 225 -63.5 353c0 126.667 22 243.667 66 351s105.833 200 185.5 278s174.667 139 285 183s232.166 66 365.499 66c88.667 0 171.834 -9.5 249.501 -28.5
s149 -46.167 214 -81.5s123 -78 174 -128s94.333 -106 130 -168s62.834 -129.167 81.501 -201.5s28 -148.5 28 -228.5c0 -64 -8.83301 -125.667 -26.5 -185s-42.834 -112 -75.501 -158s-72.167 -82.667 -118.5 -110s-97.833 -41 -154.5 -41c-54 0 -103.333 12.333 -148 37
s-83 66 -115 124c-17.333 -24 -37.333 -44.667 -60 -62s-47.167 -31.666 -73.5 -42.999s-53.5 -19.666 -81.5 -24.999s-55.667 -8 -83 -8c-56 0 -107.333 10.5 -154 31.5s-86.667 50.333 -120 88s-59.333 82.334 -78 134.001s-28 108.167 -28 169.5
c0 62.667 9.66699 120.167 29 172.5s46 97.333 80 135s74.167 67 120.5 88s96.5 31.5 150.5 31.5c48.667 0 93.334 -9.83301 134.001 -29.5s74.667 -43.5 102 -71.5v83h208l-1 -443c0 -42.667 3 -78.5 9 -107.5s14.5 -52.5 25.5 -70.5s24 -30.833 39 -38.5
s31.5 -11.5 49.5 -11.5c24 0 45.833 8 65.5 24s36.334 37.667 50.001 65s24.167 59.666 31.5 96.999s11 77.666 11 120.999c0 93.333 -15.667 178.833 -47 256.5s-76 144.5 -134 200.5s-128 99.667 -210 131s-173.333 47 -274 47c-98.667 0 -189.167 -16.667 -271.5 -50
s-153.166 -79.833 -212.499 -139.5s-105.5 -131 -138.5 -214s-49.5 -174.167 -49.5 -273.5c0 -100 16.833 -191.333 50.5 -274s80.167 -153.5 139.5 -212.5s130 -104.667 212 -137s171.333 -48.5 268 -48.5c83.333 0 163.666 11.333 240.999 34s146.666 56 207.999 100
l115 -164c-40.667 -28 -82.334 -52.667 -125.001 -74s-87.5 -39.333 -134.5 -54s-96.5 -25.667 -148.5 -33s-107.667 -11 -167 -11zM954 328.999c44 0 82.002 9.83203 114.002 29.499s58.333 46.5 79 80.5v229c-20 30 -46 55.167 -78 75.5s-70.333 30.5 -115 30.5
c-30 0 -56.667 -6 -80 -18s-43 -28.167 -59 -48.5s-28.333 -44.166 -37 -71.499s-13 -56.333 -13 -87c0 -30 4.33301 -58.333 13 -85s21.167 -50 37.5 -70s36.166 -35.833 59.499 -47.5s49.666 -17.5 78.999 -17.5z" />
    <glyph glyph-name="A" unicode="A" horiz-adv-x="1388" 
d="M2 0l154.499 335l149.5 321l135.5 288.5l113 237.5l82 169.5c21.667 44.333 35.834 72.5 42.501 84.5c2.66699 5.33301 5.16699 8.5 7.5 9.5s4.83301 1.5 7.5 1.5c2 0 4.16699 -0.5 6.5 -1.5s4.83301 -4.16699 7.5 -9.5l41.5 -82.5l82 -169l113.5 -238.5l136 -289
l150 -321.5l155 -335.5h-309l-88 203h-600l-87 -203h-300zM891.999 442l-203 465l-202 -465h405z" />
    <glyph glyph-name="B" unicode="B" horiz-adv-x="1330" 
d="M146 1411h560.001c88.667 0 165.167 -7.83301 229.5 -23.5s117.166 -39.5 158.499 -71.5s72 -72.167 92 -120.5s30 -105.166 30 -170.499c0 -64.667 -15.667 -123.834 -47 -177.501s-79 -96.167 -143 -127.5c73.333 -25.333 129.333 -66.333 168 -123
s58 -124.667 58 -204c0 -66 -9.5 -123.5 -28.5 -172.5s-48.833 -89.833 -89.5 -122.5s-93 -57.167 -157 -73.5s-141 -24.5 -231 -24.5h-600v1411zM723.001 224c84 0 146.167 15.832 186.5 47.499s60.5 79.834 60.5 144.501c0 126.667 -81 190 -243 190h-304v-382h300z
M702.001 824.999c78.667 0 136.667 14.668 174 44.001s56 75.333 56 138c0 61.333 -18.5 107.166 -55.5 137.499s-94.5 45.5 -172.5 45.5h-281v-365h279z" />
    <glyph glyph-name="C" unicode="C" horiz-adv-x="1349" 
d="M793 -25c-115.333 0 -217.333 18.8359 -306 56.5029s-163.167 89.334 -223.5 155.001s-106.166 143 -137.499 232s-47 185.167 -47 288.5c0 102.667 15.667 198.5 47 287.5s77.166 166.167 137.499 231.5s134.833 116.666 223.5 153.999s190.667 56 306 56
c112 0 212.333 -19 301 -57s164.334 -92.333 227.001 -163l-178 -165c-44.667 42 -97.167 75.667 -157.5 101s-124.5 38 -192.5 38c-67.333 0 -127.5 -12.667 -180.5 -38s-98 -59.833 -135 -103.5s-65.167 -94.834 -84.5 -153.501s-29 -121.334 -29 -188.001
c0 -67.333 9.66699 -130.333 29 -189s47.5 -109.834 84.5 -153.501s82 -78.167 135 -103.5s113.167 -38 180.5 -38c68 0 132.167 12.5 192.5 37.5s112.833 58.167 157.5 99.5l178 -164c-62.667 -69.333 -138.334 -123.5 -227.001 -162.5s-189 -58.5 -301 -58.5z" />
    <glyph glyph-name="D" unicode="D" horiz-adv-x="1489" 
d="M146 1411h513c114.667 0 218.167 -15.667 310.5 -47s171.166 -77 236.499 -137s115.666 -133.667 150.999 -221s53 -187 53 -299c0 -112.667 -17.667 -212.834 -53 -300.501s-85.666 -161.667 -150.999 -222s-144.166 -106.166 -236.499 -137.499
s-195.833 -47 -310.5 -47h-513v1411zM659 249c73.333 0 138.833 9.99902 196.5 29.999s106.334 49.333 146.001 88s70 86.5 91 143.5s31.5 122.5 31.5 196.5s-10.5 139.333 -31.5 196s-51.333 104.334 -91 143.001s-88.334 68 -146.001 88s-123.167 30 -196.5 30h-236v-915
h236z" />
    <glyph glyph-name="E" unicode="E" horiz-adv-x="1277" 
d="M146 1411h1038v-247h-761v-331h701v-247h-701v-339h761v-247h-1038v1411z" />
    <glyph glyph-name="F" unicode="F" horiz-adv-x="1201" 
d="M146 1411h991v-247h-714v-355h661v-248h-661v-561h-277v1411z" />
    <glyph glyph-name="G" unicode="G" horiz-adv-x="1467" 
d="M798 -25c-114.667 0 -216.5 18.5059 -305.5 55.5059s-164.167 88 -225.5 153s-108 142.167 -140 231.5s-48 186.666 -48 291.999c0 102.667 15.667 198.5 47 287.5s77.166 166.167 137.499 231.5s134.833 116.666 223.5 153.999s190.667 56 306 56
c112.667 0 213.167 -19 301.5 -57s163.833 -92.333 226.5 -163l-178 -166c-44.667 42 -97.167 75.833 -157.5 101.5s-124.5 38.5 -192.5 38.5c-67.333 0 -127.666 -12.667 -180.999 -38s-98.666 -59.833 -135.999 -103.5s-66 -94.834 -86 -153.501
s-30 -121.334 -30 -188.001s9.66699 -129.834 29 -189.501s47.666 -111.834 84.999 -156.501s83.5 -80 138.5 -106s118.167 -39 189.5 -39c52 0 104.667 5 158 15s103.666 30.333 150.999 61v237h-289v225h559v-572c-35.333 -33.333 -75.166 -63 -119.499 -89
s-91.5 -47.667 -141.5 -65s-102.333 -30.5 -157 -39.5s-109.667 -13.5 -165 -13.5z" />
    <glyph glyph-name="H" unicode="H" horiz-adv-x="1496" 
d="M146 1411h277v-574h650v574h277v-1411h-277v590h-650v-590h-277v1411z" />
    <glyph glyph-name="I" unicode="I" horiz-adv-x="569" 
d="M146 1411h277v-1411h-277v1411z" />
    <glyph glyph-name="J" unicode="J" horiz-adv-x="762" 
d="M271 -25c-46.667 0 -91.0029 5.83203 -133.003 17.499s-82 28.834 -120 51.501l80 208c17.333 -9.33301 36.5 -17.333 57.5 -24s42.833 -10 65.5 -10c40.667 0 72.167 12.5 94.5 37.5s33.5 62.833 33.5 113.5v1042h275v-1048c0 -55.333 -7.16699 -106.666 -21.5 -153.999
s-36.166 -88.333 -65.499 -123s-66.166 -61.834 -110.499 -81.501s-96.166 -29.5 -155.499 -29.5z" />
    <glyph glyph-name="K" unicode="K" horiz-adv-x="1344" 
d="M146 1411h277v-650l565 650h354l-620 -690l638 -721h-355l-582 680v-680h-277v1411z" />
    <glyph glyph-name="L" unicode="L" horiz-adv-x="1135" 
d="M146 1411h277v-1164h683v-247h-960v1411z" />
    <glyph glyph-name="M" unicode="M" horiz-adv-x="1746" 
d="M326 1434c2 8.66699 7 13 15 13c4.66699 0 8.33398 -1.16699 11.001 -3.5s6 -6.83301 10 -13.5l511 -884l509 884c4 6.66699 7.16699 11.167 9.5 13.5s6.16602 3.5 11.499 3.5c8 0 13 -4.33301 15 -13l277 -1434h-292l-138 765l-385 -661
c-3.33301 -4.66699 -5.83301 -7.66699 -7.5 -9s-3.5 -2 -5.5 -2c-3.33301 0 -5.83301 0.666992 -7.5 2s-4.16699 4.33301 -7.5 9l-383 660l-137 -764h-280z" />
    <glyph glyph-name="N" unicode="N" horiz-adv-x="1484" 
d="M1325 -34c-7.33301 0 -17.002 5.66699 -29.002 17l-873 856v-839h-277v1430c0 11.333 4.33301 17 13 17c4.66699 0 8.83398 -1.33301 12.501 -4s8.83398 -7 15.501 -13l438 -428.5l435 -426.5l1 836h276v-1428c0 -11.333 -4 -17 -12 -17z" />
    <glyph glyph-name="O" unicode="O" horiz-adv-x="1591" 
d="M793 -25c-113.333 0 -214.166 18.833 -302.499 56.5s-163.166 89.334 -224.499 155.001s-108 143 -140 232s-48 185.167 -48 288.5c0 102.667 16 198.5 48 287.5s78.667 166.167 140 231.5s136.166 116.666 224.499 153.999s189.166 56 302.499 56
c114 0 215.667 -18.667 305 -56s164.666 -88.666 225.999 -153.999s108.166 -142.5 140.499 -231.5s48.5 -184.833 48.5 -287.5c0 -103.333 -16.167 -199.5 -48.5 -288.5s-79.166 -166.333 -140.499 -232s-136.666 -117.334 -225.999 -155.001s-191 -56.5 -305 -56.5z
M794 221c67.333 0 127.833 12.5 181.5 37.5s99.334 59.5 137.001 103.5s66.5 95.5 86.5 154.5s30 122.5 30 190.5s-10 131.333 -30 190s-48.833 109.834 -86.5 153.501s-83.334 77.834 -137.001 102.501s-114.167 37 -181.5 37c-66.667 0 -126.667 -12.333 -180 -37
s-98.666 -58.834 -135.999 -102.501s-66 -94.834 -86 -153.501s-30 -122 -30 -190s10 -131.5 30 -190.5s48.667 -110.5 86 -154.5s82.666 -78.5 135.999 -103.5s113.333 -37.5 180 -37.5z" />
    <glyph glyph-name="P" unicode="P" horiz-adv-x="1288" 
d="M146 1411h547.998c94 0 175.333 -10.667 244 -32s125.167 -52 169.5 -92s77.333 -88.5 99 -145.5s32.5 -121.5 32.5 -193.5s-10.833 -136.667 -32.5 -194s-54.667 -106 -99 -146s-100.666 -70.667 -168.999 -92s-149.166 -32 -242.499 -32h-273v-484h-277v1411z
M684.998 721c180 0 270 75.333 270 226c0 146.667 -90 220 -270 220h-262v-446h262z" />
    <glyph glyph-name="Q" unicode="Q" horiz-adv-x="1590" 
d="M1256 -318c-48 -1.33301 -98.168 5.66504 -150.501 20.998s-104.666 36.833 -156.999 64.5s-103.333 60.334 -153 98.001s-95.834 78.5 -138.501 122.5c-94 15.333 -177 44.333 -249 87s-132.5 95.667 -181.5 159s-86 135.166 -111 215.499s-37.5 166.166 -37.5 257.499
c0 102.667 16 198.5 48 287.5s78.5 166.167 139.5 231.5s135.833 116.666 224.5 153.999s189.667 56 303 56c114 0 215.5 -18.667 304.5 -56s164.167 -88.666 225.5 -153.999s108.166 -142.5 140.499 -231.5s48.5 -184.833 48.5 -287.5
c0 -91.333 -12.333 -175.833 -37 -253.5s-59 -146.5 -103 -206.5s-96.5 -110 -157.5 -150s-127.833 -68.333 -200.5 -85c24.667 -15.333 54.167 -29.166 88.5 -41.499s70.5 -23.166 108.5 -32.499s76.5 -16.5 115.5 -21.5s75.167 -7.5 108.5 -7.5
c12.667 0 23.334 0.5 32.001 1.5s15.334 1.83301 20.001 2.5c-9.33301 -32 -20.833 -62 -34.5 -90s-30 -52.167 -49 -72.5s-40.667 -36.666 -65 -48.999s-51.833 -18.833 -82.5 -19.5zM792.999 215.998c67.333 0 127.833 12.5 181.5 37.5s99.334 59.5 137.001 103.5
s66.5 95.833 86.5 155.5s30 124.167 30 193.5c0 68 -10 131.5 -30 190.5s-48.833 110.333 -86.5 154s-83.334 77.834 -137.001 102.501s-114.167 37 -181.5 37c-66.667 0 -126.667 -12.333 -180 -37s-98.833 -58.834 -136.5 -102.501s-66.5 -95 -86.5 -154
s-30 -122.5 -30 -190.5c0 -69.333 10 -133.833 30 -193.5s48.833 -111.5 86.5 -155.5s83.167 -78.5 136.5 -103.5s113.333 -37.5 180 -37.5z" />
    <glyph glyph-name="R" unicode="R" horiz-adv-x="1336" 
d="M146 1411l561.001 0.00195312c180 0 313.833 -37.333 401.5 -112s131.5 -183.334 131.5 -326.001c0 -120.667 -30.833 -215.834 -92.5 -285.501s-148.834 -115.5 -261.501 -137.5l398 -550h-322l-373 532h-166v-532h-277v1411zM698.001 762.002
c172.667 0 259 67.667 259 203c0 36 -6 66.833 -18 92.5s-29.333 46.5 -52 62.5s-50 27.833 -82 35.5s-68.333 11.5 -109 11.5h-273v-405h275z" />
    <glyph glyph-name="S" unicode="S" horiz-adv-x="1255" 
d="M631 -25c-47.333 0 -96.1699 2.83984 -146.503 8.50684s-100.5 15 -150.5 28s-99 30 -147 51s-94 46.833 -138 77.5l114 237c29.333 -20.667 60.666 -40.334 93.999 -59.001s69 -35 107 -49s78.667 -25.167 122 -33.5s89.333 -12.5 138 -12.5c30 0 60.833 2.66699 92.5 8
s60.667 14.666 87 27.999s47.833 31.333 64.5 54s25 51.667 25 87c0 22 -4.5 41.333 -13.5 58s-21.333 31.167 -37 43.5s-34.5 23.166 -56.5 32.499s-46.333 17.666 -73 24.999c-12 3.33301 -29.333 7.5 -52 12.5l-71.5 15.5l-72 16c-23 5.33301 -41.5 10 -55.5 14
c-46 12.667 -90.833 28.167 -134.5 46.5s-82.167 42 -115.5 71s-60.166 65.167 -80.499 108.5s-30.5 96.333 -30.5 159c0 70.667 13.833 133 41.5 187s66 99.333 115 136s107.167 64.334 174.5 83.001s140.333 28 219 28c44 0 88.167 -2.83301 132.5 -8.5
s88.333 -14.334 132 -26.001s86.5 -26.334 128.5 -44.001s82 -38.834 120 -63.501l-108 -225c-24 15.333 -51.167 30.166 -81.5 44.499s-62.666 27.166 -96.999 38.499s-70.166 20.5 -107.499 27.5s-75 10.5 -113 10.5c-28 0 -57.333 -2.5 -88 -7.5s-59 -13.667 -85 -26
s-47.5 -29.166 -64.5 -50.499s-25.5 -48.333 -25.5 -81c0 -23.333 5.16699 -43.5 15.5 -60.5s24.333 -31.667 42 -44s38.334 -23 62.001 -32s49.167 -17.167 76.5 -24.5c12.667 -3.33301 29.5 -7.33301 50.5 -12l66.5 -15.5l70 -17l61 -14.5c46 -12.667 90 -28.5 132 -47.5
s79.167 -43.167 111.5 -72.5s58 -64.833 77 -106.5s28.5 -91.167 28.5 -148.5c0 -80 -15.167 -148.667 -45.5 -206s-71 -104.5 -122 -141.5s-110 -64.167 -177 -81.5s-137.5 -26 -211.5 -26z" />
    <glyph glyph-name="T" unicode="T" horiz-adv-x="1222" 
d="M473 1164h-446v247h1169v-247h-446v-1164h-277v1164z" />
    <glyph glyph-name="U" unicode="U" horiz-adv-x="1444" 
d="M722 -25c-97.333 0 -182.666 13 -255.999 39s-134.833 66 -184.5 120s-87 122.333 -112 205s-37.5 180.667 -37.5 294v778h275v-769c0 -143.333 26.667 -249 80 -317s131.666 -102 234.999 -102s182.166 34 236.499 102s81.5 173.667 81.5 317v769h273v-778
c0 -113.333 -12.667 -211.333 -38 -294s-62.666 -151 -111.999 -205s-111 -94 -185 -120s-159.333 -39 -256 -39z" />
    <glyph glyph-name="V" unicode="V" horiz-adv-x="1378" 
d="M688 -34c-4 0 -7 1 -9 3s-4.33301 5.33301 -7 10l-89 177.5l-104.5 217.5l-115.5 246l-121 262.5l-122 267.5l-118 261h312l377 -879l378 879h307l-117.5 -258l-122 -266.5l-121.5 -263.5l-116 -247.5l-105.5 -218.5l-89.5 -178c-4.66699 -8.66699 -10 -13 -16 -13z" />
    <glyph glyph-name="W" unicode="W" horiz-adv-x="2019" 
d="M578 -34c-4.66699 0 -8.33301 1.5 -11 4.5s-5.66699 8.16699 -9 15.5c-5.33301 12 -14.333 34 -27 66l-47 119.5l-63.5 163l-75.5 195l-83.5 215.5l-87 226l-86.5 226l-82 215l307 -1l305 -853l382 809c4.66699 8.66699 9.66699 13 15 13s10.666 -4.33301 15.999 -13
l384 -807l303 851h297l-84 -220l-88.5 -231l-88.5 -230l-84 -218.5l-75.5 -195l-62.5 -160l-45 -114l-23 -56.5c-3.33301 -6.66699 -6.16602 -11.667 -8.49902 -15s-6.16602 -5 -11.499 -5c-4 0 -7.33301 1.33301 -10 4s-6.33398 8.33398 -11.001 17.001l-413 859l-411 -859
c-4.66699 -8.66699 -8.5 -14.334 -11.5 -17.001s-6.16699 -4 -9.5 -4z" />
    <glyph glyph-name="X" unicode="X" horiz-adv-x="1345" 
d="M459 704l-455 707h327l344 -541l348 541h312l-454 -704l463 -707h-323l-356 544l-352 -544h-311z" />
    <glyph glyph-name="Y" unicode="Y" horiz-adv-x="1414" 
d="M571 569l-560 842h324l379 -576l378 576h309l-556 -841v-570h-274v569z" />
    <glyph glyph-name="Z" unicode="Z" horiz-adv-x="1241" 
d="M55 0c-11.333 0 -17 3.66602 -17 10.999c0 4.66699 3.66699 13.667 11 27l699 1126h-680v247h1117c11.333 0 17 -3.33301 17 -10c0 -5.33301 -3.66699 -14.666 -11 -27.999l-700 -1126h693l-3 -247h-1126z" />
    <glyph glyph-name="bracketleft" unicode="[" horiz-adv-x="747" 
d="M148 1534h545v-227h-283v-1281h283v-228h-545v1736z" />
    <glyph glyph-name="backslash" unicode="\" horiz-adv-x="1110" 
d="M1078 -158h-272l-776 1735h272z" />
    <glyph glyph-name="bracketright" unicode="]" horiz-adv-x="747" 
d="M599 -202h-545v228h283v1281h-283v227h545v-1736z" />
    <glyph glyph-name="asciicircum" unicode="^" horiz-adv-x="1158" 
d="M448 1411h263l397 -796h-282l-246 506l-248 -506h-282z" />
    <glyph glyph-name="underscore" unicode="_" horiz-adv-x="908" 
d="M-6 -101h921v-219h-921v219z" />
    <glyph glyph-name="grave" unicode="`" horiz-adv-x="687" 
d="M55 1515h350l227 -334h-251z" />
    <glyph glyph-name="a" unicode="a" horiz-adv-x="1267" 
d="M563 -25c-70.667 0 -136.5 13.999 -197.5 41.999s-113.833 66.667 -158.5 116s-79.667 107.666 -105 174.999s-38 140.333 -38 219s12.833 151.667 38.5 219s60.834 125.833 105.501 175.5s97.334 88.5 158.001 116.5s126.334 42 197.001 42
c64.667 0 124 -12.333 178 -37s99 -57.667 135 -99v115h259v-652c0 -58 1 -108 3 -150s4.33301 -78.5 7 -109.5s5.66699 -58.167 9 -81.5s6.66602 -45.333 9.99902 -66h-268c-1.33301 4 -2.83301 10.167 -4.5 18.5s-3.33398 17.833 -5.00098 28.5
s-3.33398 22.334 -5.00098 35.001s-3.5 25.334 -5.5 38.001c-36 -44 -81.333 -79.167 -136 -105.5s-113.667 -39.5 -177 -39.5zM613 219.999c28 0 55.167 4.00195 81.5 12.002s51 18.833 74 32.5s43.667 30 62 49s33.5 39.5 45.5 61.5v313c-12 21.333 -27.167 41 -45.5 59
s-39 33.667 -62 47s-47.667 23.666 -74 30.999s-53.5 11 -81.5 11c-42 0 -79.667 -8.33301 -113 -25s-61.5 -39.334 -84.5 -68.001s-40.667 -61.667 -53 -99s-18.5 -76.333 -18.5 -117c0 -42 6.33301 -81.667 19 -119s30.667 -69.833 54 -97.5s51.5 -49.667 84.5 -66
s70.167 -24.5 111.5 -24.5z" />
    <glyph glyph-name="b" unicode="b" horiz-adv-x="1261" 
d="M700 -25c-66 0 -126.002 13.5 -180.002 40.5s-99 60.5 -135 100.5v-116h-259v1095c0 68 -0.833008 123.167 -2.5 165.5s-3.66699 76.333 -6 102s-5.16602 45.667 -8.49902 60s-6.66602 27.5 -9.99902 39.5h254c4 -8 8 -19 12 -33s7.5 -32.667 10.5 -56
s5.33301 -52.166 7 -86.499s2.5 -75.833 2.5 -124.5v-231c18.667 24 40.5 45.333 65.5 64s51.5 34.5 79.5 47.5s57.167 22.833 87.5 29.5s60.166 10 89.499 10c68.667 0 132.834 -14.333 192.501 -43s111.5 -67.834 155.5 -117.501s78.5 -108.334 103.5 -176.001
s37.5 -140.5 37.5 -218.5c0 -79.333 -12.667 -152.666 -38 -219.999s-60.333 -125.5 -105 -174.5s-97.167 -87.5 -157.5 -115.5s-125.5 -42 -195.5 -42zM649.998 219c41.333 0 78.333 8.33398 111 25.001s60.5 39.167 83.5 67.5s40.667 61.166 53 98.499
s18.5 76.333 18.5 117c0 42 -6.16699 81.833 -18.5 119.5s-30 70.5 -53 98.5s-51 50.167 -84 66.5s-69.833 24.5 -110.5 24.5c-28 0 -55.333 -3.83301 -82 -11.5s-51.5 -18.167 -74.5 -31.5s-43.833 -29.333 -62.5 -48s-34 -39 -46 -61v-313c12 -22 27.333 -42.333 46 -61
s39.5 -34.667 62.5 -48s47.833 -23.833 74.5 -31.5s54 -11.5 82 -11.5z" />
    <glyph glyph-name="c" unicode="c" horiz-adv-x="1069" 
d="M606 -25c-81.333 0 -155.331 13.667 -221.998 41s-123.667 65.5 -171 114.5s-84 107.333 -110 175s-39 142.167 -39 223.5c0 80.667 13 154.667 39 222s62.667 125.333 110 174s104.166 86.667 170.499 114s140.166 41 221.499 41c41.333 0 82.333 -4.33301 123 -13
s79.667 -21.334 117 -38.001s72.5 -37 105.5 -61s62.5 -51.333 88.5 -82l-190 -158c-30 33.333 -65.5 59.666 -106.5 78.999s-85.5 29 -133.5 29c-40 0 -76.333 -8.33301 -109 -25s-60.667 -39 -84 -67s-41.333 -60.5 -54 -97.5s-19 -76.167 -19 -117.5
s6.33301 -80.666 19 -117.999s30.667 -70 54 -98s51.5 -50.333 84.5 -67s69.5 -25 109.5 -25c48 0 92.333 10.333 133 31s77.334 46.334 110.001 77.001l186 -157c-26 -30.667 -55.5 -58.167 -88.5 -82.5s-68.167 -45 -105.5 -62s-76.333 -30 -117 -39
s-81.334 -13.5 -122.001 -13.5z" />
    <glyph glyph-name="d" unicode="d" horiz-adv-x="1267" 
d="M562 -25c-70.667 0 -136.336 14.001 -197.003 42.001s-113.334 66.667 -158.001 116s-79.667 107.666 -105 174.999s-38 140.333 -38 219s12.833 151.834 38.5 219.501s60.834 126.167 105.501 175.5s97.334 88 158.001 116s126 42 196 42c65.333 0 125 -12.333 179 -37
s99 -57.334 135 -98.001v517h259v-1054c0 -58.667 1 -109 3 -151s4.33301 -78.5 7 -109.5s5.66699 -58.167 9 -81.5s7 -45.666 11 -66.999h-269c-3.33301 13.333 -6.66602 30.166 -9.99902 50.499s-6.66602 43.833 -9.99902 70.5c-35.333 -44 -80.5 -79.167 -135.5 -105.5
s-114.5 -39.5 -178.5 -39.5zM612.998 219.001c28 0 55.167 3.83203 81.5 11.499s51 18.5 74 32.5s43.667 30.5 62 49.5s33.5 39.833 45.5 62.5v313c-12 20.667 -27.167 40.334 -45.5 59.001s-39 34.667 -62 48s-47.667 24 -74 32s-53.5 12 -81.5 12
c-42 0 -79.667 -8.66699 -113 -26s-61.5 -40.5 -84.5 -69.5s-40.667 -62.167 -53 -99.5s-18.5 -76.333 -18.5 -117c0 -42 6.33301 -81.667 19 -119s30.667 -70 54 -98s51.5 -50.167 84.5 -66.5s70.167 -24.5 111.5 -24.5z" />
    <glyph glyph-name="e" unicode="e" horiz-adv-x="1161" 
d="M606 -25c-82.667 0 -157.501 13.666 -224.501 40.999s-124 65.5 -171 114.5s-83.167 107.5 -108.5 175.5s-38 142.667 -38 224c0 80.667 12.667 154.834 38 222.501s61.5 125.667 108.5 174s103.333 86 169 113s139.167 40.5 220.5 40.5
c70.667 0 136.334 -11.833 197.001 -35.5s113.167 -58 157.5 -103s79 -99.833 104 -164.5s37.833 -138 38.5 -220c0 -22.667 -0.166992 -40.667 -0.5 -54s-0.833008 -22 -1.5 -26l-737 -60c6.66699 -31.333 17.5 -60.333 32.5 -87s33.667 -49.667 56 -69
s48.5 -34.333 78.5 -45s64 -16 102 -16c51.333 0 101.5 9.83301 150.5 29.5s94.5 50.5 136.5 92.5l162 -162c-58.667 -60.667 -128.167 -106.667 -208.5 -138s-167.5 -47 -261.5 -47zM827.999 626.999c-2 33.333 -8.83203 64.3311 -20.499 92.998s-27.5 53.334 -47.5 74.001
s-44 36.834 -72 48.501s-59.333 17.5 -94 17.5c-29.333 0 -58.5 -5.66699 -87.5 -17s-55.167 -28.5 -78.5 -51.5s-42.833 -51.5 -58.5 -85.5s-24.834 -74 -27.501 -120z" />
    <glyph glyph-name="f" unicode="f" horiz-adv-x="786" 
d="M220 834l-179 -0.000976562v225h179v86c0 53.333 6.83301 102.833 20.5 148.5s34.334 85.334 62.001 119.001s62.5 60 104.5 79s91.667 28.5 149 28.5c46 0 89.833 -5.83301 131.5 -17.5s81.167 -27.5 118.5 -47.5l-75 -193c-18.667 9.33301 -38.834 17 -60.501 23
s-43.167 9 -64.5 9c-40.667 0 -72 -12.5 -94 -37.5s-33 -62.5 -33 -112.5v-85h287v-225h-287v-834h-259v834z" />
    <glyph glyph-name="g" unicode="g" horiz-adv-x="1263" 
d="M605 -473c-46 0 -91.5 4.00098 -136.5 12.001s-88.333 19.5 -130 34.5s-81.167 33.167 -118.5 54.5s-71.666 45.333 -102.999 72l112 190c51.333 -39.333 107.5 -71 168.5 -95s122.833 -36 185.5 -36c44.667 0 85.167 6.33301 121.5 19s67.5 32 93.5 58
s46 58.833 60 98.5s21 86.834 21 141.501v50c-35.333 -41.333 -80 -74.5 -134 -99.5s-113.333 -37.5 -178 -37.5c-71.333 0 -137.5 13.333 -198.5 40s-114 64 -159 112s-80.333 105 -106 171s-38.5 138 -38.5 216c0 79.333 12.833 152.833 38.5 220.5
s60.834 126 105.501 175s97.5 87.333 158.5 115s126.5 41.5 196.5 41.5c64.667 0 124.167 -12.333 178.5 -37s99.833 -57.334 136.5 -98.001v114h259v-963c0 -86.667 -10 -165 -30 -235s-51.333 -129.833 -94 -179.5s-97.834 -87.834 -165.501 -114.501
s-148.834 -40 -243.501 -40zM613 227.001c28 0 55.332 3.83105 81.999 11.498s51.667 18.334 75 32.001s44.333 29.834 63 48.501s34 38.667 46 60v315c-12 21.333 -27.333 41 -46 59s-39.667 33.667 -63 47s-48.333 23.833 -75 31.5s-54 11.5 -82 11.5
c-42 0 -79.5 -8.33301 -112.5 -25s-61 -39.334 -84 -68.001s-40.5 -61.667 -52.5 -99s-18 -76.666 -18 -117.999s6.33301 -80.5 19 -117.5s30.667 -69.5 54 -97.5s51.333 -50.167 84 -66.5s69.334 -24.5 110.001 -24.5z" />
    <glyph glyph-name="h" unicode="h" horiz-adv-x="1216" 
d="M126 1094c0 68 -0.836914 123.161 -2.50391 165.494s-3.66699 76.5 -6 102.5s-5.16602 46.167 -8.49902 60.5s-6.66602 27.5 -9.99902 39.5h256c4 -8 7.66699 -19.167 11 -33.5s6.5 -33.166 9.5 -56.499s5.33301 -52.166 7 -86.499s2.5 -75.833 2.5 -124.5v-237
c19.333 26.667 41.333 49.834 66 69.501s50.834 35.834 78.501 48.501s56.334 22.167 86.001 28.5s59.5 9.5 89.5 9.5c128 0 226.167 -38.667 294.5 -116s102.5 -192.666 102.5 -345.999v-618h-259v566c0 46.667 -5.33301 87 -16 121s-25.667 62 -45 84
s-42.5 38.167 -69.5 48.5s-56.833 15.5 -89.5 15.5c-27.333 0 -53.5 -4.33301 -78.5 -13s-48 -20.667 -69 -36s-39.333 -33.666 -55 -54.999s-27.5 -44.333 -35.5 -69v-662h-259v1094z" />
    <glyph glyph-name="i" unicode="i" horiz-adv-x="512" 
d="M126 1059h259v-1059h-259v1059zM256 1200c-22 0 -42.668 4.33105 -62.001 12.998s-36.166 20.334 -50.499 35.001s-25.5 31.667 -33.5 51s-12 39.666 -12 60.999c0 20.667 4.16699 40.334 12.5 59.001s19.5 35 33.5 49s30.5 25.167 49.5 33.5s39.167 12.5 60.5 12.5
c22 0 42.833 -3.83301 62.5 -11.5s36.667 -18.334 51 -32.001s25.666 -30 33.999 -49s12.5 -39.5 12.5 -61.5c0 -22.667 -4 -43.667 -12 -63s-19.167 -36.166 -33.5 -50.499s-31.166 -25.666 -50.499 -33.999s-40 -12.5 -62 -12.5z" />
    <glyph glyph-name="j" unicode="j" horiz-adv-x="512" 
d="M99 -453c4 6.66699 7.6709 16.667 11.0039 30s6.16602 31 8.49902 53s4.16602 49 5.49902 81s2 69.667 2 113v1235h259v-1243c0 -44 -1 -81.833 -3 -113.5s-4.83301 -58.167 -8.5 -79.5s-7.83398 -38 -12.501 -50s-9.33398 -20.667 -14.001 -26h-248zM256.004 1200
c-22 0 -42.668 4.33105 -62.001 12.998s-36.166 20.334 -50.499 35.001s-25.5 31.667 -33.5 51s-12 39.666 -12 60.999c0 20.667 4.16699 40.334 12.5 59.001s19.5 35 33.5 49s30.5 25.167 49.5 33.5s39.167 12.5 60.5 12.5c22 0 42.833 -3.83301 62.5 -11.5
s36.667 -18.334 51 -32.001s25.666 -30 33.999 -49s12.5 -39.5 12.5 -61.5c0 -22.667 -4 -43.667 -12 -63s-19.167 -36.166 -33.5 -50.499s-31.166 -25.666 -50.499 -33.999s-40 -12.5 -62 -12.5z" />
    <glyph glyph-name="k" unicode="k" horiz-adv-x="1125" 
d="M126 1095c0 68 -0.834961 123.166 -2.50195 165.499s-3.66699 76.333 -6 102s-5.16602 45.667 -8.49902 60s-6.66602 27.5 -9.99902 39.5h254c4 -8 8 -19.167 12 -33.5s7.5 -33.166 10.5 -56.499s5.33301 -52 7 -86s2.5 -75.333 2.5 -124v-531l397 428h346l-496 -508
l512 -551h-346l-413 460v-460h-259v1095z" />
    <glyph glyph-name="l" unicode="l" horiz-adv-x="512" 
d="M126 1097c0 67.333 -0.834961 122 -2.50195 164s-3.66699 75.833 -6 101.5s-5.16602 45.667 -8.49902 60s-6.66602 27.5 -9.99902 39.5h253c4 -8 8 -19 12 -33s7.5 -32.667 10.5 -56s5.5 -52 7.5 -86s3 -75.333 3 -124v-1163h-259v1097z" />
    <glyph glyph-name="m" unicode="m" horiz-adv-x="1918" 
d="M126 1059l259 -0.000976562v-137c40 55.333 88.167 95.5 144.5 120.5s116.166 37.5 179.499 37.5c82.667 0 153.334 -16.833 212.001 -50.5s103.667 -81.5 135 -143.5c40 62.667 89.5 110.667 148.5 144s127.167 50 204.5 50c60 0 114.333 -9.66699 163 -29
s90.167 -46.833 124.5 -82.5s60.666 -78.667 78.999 -129s27.5 -106.166 27.5 -167.499v-672h-258v565c0 94 -19 162.5 -57 205.5s-90 64.5 -156 64.5c-26.667 0 -52.5 -4.33301 -77.5 -13s-48 -20.667 -69 -36s-39.333 -33.5 -55 -54.5s-27.5 -43.833 -35.5 -68.5v-663
h-260v565c0 46.667 -5 87 -15 121s-24.167 62 -42.5 84s-40.666 38.333 -66.999 49s-55.833 16 -88.5 16c-26.667 0 -52.5 -4.33301 -77.5 -13s-48 -20.667 -69 -36s-39.333 -33.5 -55 -54.5s-27.5 -43.833 -35.5 -68.5v-663h-259v1059z" />
    <glyph glyph-name="n" unicode="n" horiz-adv-x="1217" 
d="M126 1059l258.999 -0.00195312v-135c20 26.667 42.333 49.834 67 69.501s51 35.834 79 48.501s56.833 22.167 86.5 28.5s59.167 9.5 88.5 9.5c128.667 0 226.834 -38.333 294.501 -115s101.5 -192 101.5 -346v-619h-259v566c0 48.667 -5.33301 90 -16 124
s-25.5 61.667 -44.5 83s-41.833 37 -68.5 47s-56.334 15 -89.001 15c-27.333 0 -53.666 -4.33301 -78.999 -13s-48.5 -20.667 -69.5 -36s-39.5 -33.5 -55.5 -54.5s-28 -43.833 -36 -68.5v-663h-259v1059z" />
    <glyph glyph-name="o" unicode="o" horiz-adv-x="1228" 
d="M615 -25c-81.333 0 -155.666 13.833 -222.999 41.5s-125.5 66.167 -174.5 115.5s-87 107.833 -114 175.5s-40.5 141.5 -40.5 221.5c0 79.333 13.5 152.666 40.5 219.999s65 125.5 114 174.5s107.167 87.333 174.5 115s141.666 41.5 222.999 41.5
c80.667 0 154.667 -13.833 222 -41.5s125.166 -66 173.499 -115s86 -107.167 113 -174.5s40.5 -140.666 40.5 -219.999c0 -80 -13.5 -153.833 -40.5 -221.5s-64.667 -126.167 -113 -175.5s-106.166 -87.833 -173.499 -115.5s-141.333 -41.5 -222 -41.5zM615 217
c38.667 0 74.5 7.66699 107.5 23s61.5 36.833 85.5 64.5s42.833 60.5 56.5 98.5s20.5 79.667 20.5 125c0 44 -6.83301 84.833 -20.5 122.5s-32.5 70.5 -56.5 98.5s-52.5 49.833 -85.5 65.5s-68.833 23.5 -107.5 23.5s-74.667 -7.83301 -108 -23.5
s-62.166 -37.5 -86.499 -65.5s-43.333 -60.833 -57 -98.5s-20.5 -78.5 -20.5 -122.5c0 -45.333 6.83301 -87 20.5 -125s32.667 -70.833 57 -98.5s53.166 -49.167 86.499 -64.5s69.333 -23 108 -23z" />
    <glyph glyph-name="p" unicode="p" horiz-adv-x="1264" 
d="M126 1059l259.004 -0.00585938v-129c18.667 24 40.5 45.333 65.5 64s51.5 34.334 79.5 47.001s57.167 22.334 87.5 29.001s60.166 10 89.499 10c70 0 134.833 -14.167 194.5 -42.5s111.5 -67.166 155.5 -116.499s78.5 -107.666 103.5 -174.999s37.5 -140 37.5 -218
c0 -79.333 -12.833 -152.666 -38.5 -219.999s-60.834 -125.666 -105.501 -174.999s-97.334 -88 -158.001 -116s-126 -42 -196 -42c-64.667 0 -124.334 12.667 -179.001 38s-100 59 -136 101v-567h-259v1512zM650.004 217.994c42 0 79.502 8.50098 112.502 25.501
s61.167 39.667 84.5 68s41.166 61.166 53.499 98.499s18.5 76.666 18.5 117.999c0 42 -6.33301 81.667 -19 119s-30.834 70 -54.501 98s-52 50.333 -85 67s-69.833 25 -110.5 25c-28 0 -55.333 -3.83301 -82 -11.5s-51.5 -18.334 -74.5 -32.001
s-43.833 -29.834 -62.5 -48.501s-34 -39 -46 -61v-317c12 -21.333 27.333 -41.166 46 -59.499s39.5 -34.166 62.5 -47.499s47.833 -23.666 74.5 -30.999s54 -11 82 -11z" />
    <glyph glyph-name="q" unicode="q" horiz-adv-x="1263" 
d="M877 118c-17.333 -20.667 -37.166 -39.666 -59.499 -56.999s-47 -32.333 -74 -45s-55.833 -22.667 -86.5 -30s-62.334 -11 -95.001 -11c-70.667 0 -136.334 14.167 -197.001 42.5s-113.334 67.166 -158.001 116.499s-79.667 107.833 -105 175.5s-38 140.5 -38 218.5
c0 78.667 12.833 151.834 38.5 219.501s60.834 126 105.501 175s97.334 87.5 158.001 115.5s126 42 196 42c65.333 0 125 -12.333 179 -37s99.333 -57.334 136 -98.001v114h260v-1512h-260v571zM613 220.001c28 0 55.167 3.83203 81.5 11.499s51 18.334 74 32.001
s43.833 30 62.5 49s34 39.833 46 62.5v313c-12 21.333 -27.333 41.166 -46 59.499s-39.5 34.333 -62.5 48s-47.667 24.334 -74 32.001s-53.5 11.5 -81.5 11.5c-42 0 -79.667 -8.5 -113 -25.5s-61.5 -39.667 -84.5 -68s-40.5 -61.333 -52.5 -99s-18 -77.167 -18 -118.5
c0 -42 6.33301 -81.667 19 -119s30.667 -70 54 -98s51.5 -50.167 84.5 -66.5s69.833 -24.5 110.5 -24.5z" />
    <glyph glyph-name="r" unicode="r" horiz-adv-x="814" 
d="M126 1059h258.999v-131c32.667 46.667 73.167 83.667 121.5 111s100.5 41 156.5 41c28 0 53.5 -2.16699 76.5 -6.5s43.833 -10.5 62.5 -18.5l-49 -273c-22.667 11.333 -47.167 20.5 -73.5 27.5s-52.166 10.5 -77.499 10.5c-50.667 0 -95 -13.333 -133 -40
s-66 -64 -84 -112v-668h-259v1059z" />
    <glyph glyph-name="s" unicode="s" horiz-adv-x="1008" 
d="M498 -25c-41.333 0 -82.9971 2.33301 -124.997 7s-82.833 11.5 -122.5 20.5s-77.5 20.5 -113.5 34.5s-68.667 30.667 -98 50l91 217c51.333 -32 107 -58.5 167 -79.5s126.667 -31.5 200 -31.5c114.667 0 172 35.333 172 106c0 27.333 -10.5 48.5 -31.5 63.5
s-55.833 28.5 -104.5 40.5c-22.667 6 -46.167 11.833 -70.5 17.5s-48.833 12 -73.5 19s-49 14.667 -73 23s-46.667 18.166 -68 29.499c-50.667 24.667 -88.667 57 -114 97s-38 90.667 -38 152c0 54 9.5 102 28.5 144s46.667 77.5 83 106.5s80.5 51 132.5 66
s111 22.5 177 22.5c82 0 158.333 -9 229 -27s131.334 -42 182.001 -72l-78 -208l-73 32.5c-25.333 11 -51.333 20.833 -78 29.5s-53.834 15.667 -81.501 21s-55.167 8 -82.5 8c-58.667 0 -101.834 -8.66699 -129.501 -26s-41.5 -42 -41.5 -74
c0 -15.333 3.5 -28.166 10.5 -38.499s16.667 -19.333 29 -27s26.666 -14.5 42.999 -20.5s33.833 -11.667 52.5 -17l53.5 -14l45 -11.5l43.5 -11.5l50 -14c39.333 -12 74.5 -26.333 105.5 -43s57.333 -36.5 79 -59.5s38.167 -49.667 49.5 -80s17 -64.833 17 -103.5
c0 -54 -9.5 -102.5 -28.5 -145.5s-47 -79.5 -84 -109.5s-83.333 -53.167 -139 -69.5s-119.834 -24.5 -192.501 -24.5z" />
    <glyph glyph-name="t" unicode="t" horiz-adv-x="846" 
d="M544 -25c-114.667 0 -199.169 32.665 -253.502 97.998s-81.5 162 -81.5 290v471h-180v225h180v291h260v-291h328v-225h-328v-408c0 -39.333 2.5 -72.666 7.5 -99.999s12.833 -49.5 23.5 -66.5s24.334 -29.333 41.001 -37s36.667 -11.5 60 -11.5
c29.333 0 59 5.33301 89 16s55 22.667 75 36l86 -199c-23.333 -14 -47.833 -26.667 -73.5 -38s-51.667 -20.666 -78 -27.999s-52.666 -13 -78.999 -17s-51.833 -6 -76.5 -6z" />
    <glyph glyph-name="u" unicode="u" horiz-adv-x="1223" 
d="M511 -25c-61.333 0 -116.334 9.16895 -165.001 27.502s-90 45.666 -124 81.999s-60.167 81.833 -78.5 136.5s-27.5 118.667 -27.5 192v646h259v-574c0 -92 18.5 -159 55.5 -201s87.167 -63 150.5 -63c26 0 52 4.33301 78 13s50.333 20.667 73 36
s42.834 33.666 60.501 54.999s31.167 45 40.5 71v663h259v-651c0 -58.667 0.833008 -109.167 2.5 -151.5s3.66699 -79.333 6 -111s5 -59 8 -82s6.16699 -44.167 9.5 -63.5h-263c-4.66699 12.667 -8.66699 29.667 -12 51s-6 45.333 -8 72c-20 -26 -42.5 -48.333 -67.5 -67
s-51.5 -34 -79.5 -46s-57 -20.833 -87 -26.5s-60 -8.5 -90 -8.5z" />
    <glyph glyph-name="v" unicode="v" horiz-adv-x="1130" 
d="M565 -34c-6 0 -11.666 4.33301 -16.999 13c-6.66699 10.667 -17.5 30.334 -32.5 59.001l-54 104.5l-70 138l-80 160l-84.5 169.5l-83 167.5l-75.5 153.5l-62.5 128h305l257 -587l259 587h299l-62.5 -127l-76 -153.5l-83.5 -167.5l-85 -169.5l-80.5 -160l-70 -138.5
l-54 -105c-15 -28.667 -25.833 -48.334 -32.5 -59.001c-3.33301 -5.33301 -6.33301 -8.83301 -9 -10.5s-5.33398 -2.5 -8.00098 -2.5z" />
    <glyph glyph-name="w" unicode="w" horiz-adv-x="1711" 
d="M492 -34c-3.33301 0 -6.16699 1 -8.5 3s-4.83301 5.66699 -7.5 11c-7.33301 14 -20 41.167 -38 81.5l-65 147.5l-84.5 193l-95.5 219l-97 226l-90 212h301l229 -578l311 587c3.33301 6.66699 7.33301 10 12 10s9 -3.33301 13 -10l311 -585l228 576h294l-91.5 -213
l-97.5 -226l-95 -219l-84 -192.5l-65.5 -147c-18.333 -40.333 -31.5 -67.5 -39.5 -81.5c-3.33301 -6 -6 -9.83301 -8 -11.5s-4.33301 -2.5 -7 -2.5c-4 0 -7.33301 1.33301 -10 4s-5.66699 6.66699 -9 12l-68.5 116.5l-76.5 137l-90 168.5l-110 212l-109 -211l-90 -169
l-76 -137.5l-68 -116.5c-6 -10.667 -12 -16 -18 -16z" />
    <glyph glyph-name="x" unicode="x" horiz-adv-x="1113" 
d="M386 536l-377 523h315l241 -354l241 354h301l-372 -523l384 -536h-306l-257 363l-258 -363h-304z" />
    <glyph glyph-name="y" unicode="y" horiz-adv-x="1227" 
d="M493 186l-472 873h313l301 -597l292 594l301 3l-788 -1512h-292z" />
    <glyph glyph-name="z" unicode="z" horiz-adv-x="1023" 
d="M60 0c-6.66699 0 -12 0.500977 -16 1.50098s-6 4.16699 -6 9.5s4.66699 15.666 14 30.999l507 792h-498v225h905c7.33301 0 12.833 -0.5 16.5 -1.5s5.5 -4.16699 5.5 -9.5c0 -6 -5 -16.333 -15 -31l-507 -792h495v-225h-901z" />
    <glyph glyph-name="braceleft" unicode="{" horiz-adv-x="800" 
d="M594 -202c-60.667 0 -112.667 4.66406 -156 13.9971s-79 27.833 -107 55.5s-48.5 66.667 -61.5 117s-19.5 116.5 -19.5 198.5c0 29.333 0.666992 61.5 2 96.5s2 66.5 2 94.5c0 34 -5.33301 62.5 -16 85.5s-25.5 41.5 -44.5 55.5s-41.667 24 -68 30s-55.5 9 -87.5 9v224
c32 0 61.167 3 87.5 9s49 16.167 68 30.5s33.833 33 44.5 56s16 51.5 16 85.5c0 13.333 -0.166992 28 -0.5 44s-0.833008 32.5 -1.5 49.5s-1.16699 33.833 -1.5 50.5s-0.5 32.667 -0.5 48c0 82 6.5 148 19.5 198s33.5 88.833 61.5 116.5s63.667 46 107 55
s95.333 13.5 156 13.5h151v-224h-95c-50 0 -86.5 -12.667 -109.5 -38s-34.5 -65.666 -34.5 -120.999c0 -12 0.166992 -25 0.5 -39s0.833008 -28.333 1.5 -43s1.16699 -29.167 1.5 -43.5s0.5 -27.166 0.5 -38.499c0 -53.333 -3.33301 -98.333 -10 -135
s-17.667 -67.167 -33 -91.5s-35.166 -43.666 -59.499 -57.999s-54.166 -25.833 -89.499 -34.5c35.333 -9.33301 65.166 -21.333 89.499 -36s44.166 -34.334 59.499 -59.001s26.333 -55.5 33 -92.5s10 -82.167 10 -135.5c0 -11.333 -0.166992 -24 -0.5 -38
s-0.833008 -28.333 -1.5 -43s-1.16699 -29 -1.5 -43s-0.5 -27 -0.5 -39c0 -55.333 11.5 -95.666 34.5 -120.999s59.5 -38 109.5 -38h95v-225h-151z" />
    <glyph glyph-name="bar" unicode="|" horiz-adv-x="521" 
d="M158 1581h206v-2143h-206v2143z" />
    <glyph glyph-name="braceright" unicode="}" horiz-adv-x="800" 
d="M55 -202v225.003h95c50 0 86.5 12.667 109.5 38s34.5 65.666 34.5 120.999c0 12 -0.166992 25 -0.5 39s-0.833008 28.333 -1.5 43s-1.16699 29 -1.5 43s-0.5 26.667 -0.5 38c0 53.333 3.33301 98.5 10 135.5s17.667 67.833 33 92.5s35.166 44.334 59.499 59.001
s54.166 26.667 89.499 36c-35.333 8.66699 -65.166 20.167 -89.499 34.5s-44.166 33.666 -59.499 57.999s-26.333 54.833 -33 91.5s-10 81.667 -10 135c0 11.333 0.166992 24.166 0.5 38.499s0.833008 28.833 1.5 43.5s1.16699 29 1.5 43s0.5 27 0.5 39
c0 55.333 -11.5 95.666 -34.5 120.999s-59.5 38 -109.5 38h-95v224h151c60.667 0 112.667 -4.5 156 -13.5s79 -27.333 107 -55s48.5 -66.5 61.5 -116.5s19.5 -116 19.5 -198c0 -15.333 -0.166992 -31.333 -0.5 -48s-0.833008 -33.5 -1.5 -50.5s-1.16699 -33.5 -1.5 -49.5
s-0.5 -30.667 -0.5 -44c0 -34 5.16699 -62.5 15.5 -85.5s25 -41.667 44 -56s41.833 -24.5 68.5 -30.5s56 -9 88 -9v-224c-32 0 -61.333 -3 -88 -9s-49.5 -16 -68.5 -30s-33.667 -32.5 -44 -55.5s-15.5 -51.5 -15.5 -85.5c0 -28 0.666992 -59.5 2 -94.5s2 -67.167 2 -96.5
c0 -82 -6.5 -148.167 -19.5 -198.5s-33.5 -89.333 -61.5 -117s-63.667 -46.167 -107 -55.5s-95.333 -14 -156 -14h-151z" />
    <glyph glyph-name="uni00A0" unicode="&#xa0;" horiz-adv-x="487" 
 />
    <glyph glyph-name="exclamdown" unicode="&#xa1;" horiz-adv-x="547" 
d="M423 -356h-300l28 963h245zM272 1080c23.333 0 45.333 -4.66699 66 -14s38.667 -21.833 54 -37.5s27.5 -33.834 36.5 -54.501s13.5 -42.667 13.5 -66s-4.5 -45 -13.5 -65s-21.167 -37.667 -36.5 -53s-33.333 -27.333 -54 -36s-42.667 -13 -66 -13s-45.333 4.33301 -66 13
s-38.667 20.667 -54 36s-27.5 33 -36.5 53s-13.5 41.667 -13.5 65s4.5 45.333 13.5 66s21.167 38.834 36.5 54.501s33.333 28.167 54 37.5s42.667 14 66 14z" />
    <glyph glyph-name="cent" unicode="&#xa2;" horiz-adv-x="1131" 
d="M534 165c-67.333 10 -128.503 30.1709 -183.503 60.5039s-101.833 69.166 -140.5 116.499s-68.5 102 -89.5 164s-31.5 129.667 -31.5 203s10.667 141.166 32 203.499s51.833 117 91.5 164s87.334 85.5 143.001 115.5s117.5 49.667 185.5 59v160h191v-164
c69.333 -12.667 133.5 -35.834 192.5 -69.501s107.167 -73.5 144.5 -119.5l-183 -154c-34 34.667 -72.5 61.667 -115.5 81s-89.167 29 -138.5 29c-39.333 0 -75.333 -8.16699 -108 -24.5s-60.667 -38.333 -84 -66s-41.5 -59.834 -54.5 -96.501s-19.5 -75.334 -19.5 -116.001
s6.16699 -79.667 18.5 -117s29.833 -70.166 52.5 -98.499s50.334 -51 83.001 -68s69.334 -25.5 110.001 -25.5c47.333 0 92.833 9.33301 136.5 28s83.5 46 119.5 82l183 -154c-38.667 -47.333 -88 -88 -148 -122s-124.667 -57 -194 -69v-167h-193v165z" />
    <glyph glyph-name="sterling" unicode="&#xa3;" horiz-adv-x="1157" 
d="M92 240l175.999 -0.000976562v364h-176v194h176v128c0 81.333 13 153.5 39 216.5s61.5 116.167 106.5 159.5s98 76.333 159 99s126.833 34 197.5 34c62 0 122.5 -10 181.5 -30s110.5 -48.667 154.5 -86l-121 -196c-27.333 19.333 -57.833 35.333 -91.5 48
s-69.5 19 -107.5 19c-36 0 -69.167 -5.83301 -99.5 -17.5s-56.666 -29.167 -78.999 -52.5s-39.833 -52.166 -52.5 -86.499s-19 -74.5 -19 -120.5v-115h410v-194h-410v-364h505v-240h-949v240z" />
    <glyph glyph-name="currency" unicode="&#xa4;" horiz-adv-x="1378" 
d="M91 269l140.002 142.999c-26.667 42 -47.834 87.5 -63.501 136.5s-23.5 100.5 -23.5 154.5c0 54.667 8.16699 107.334 24.5 158.001s38.5 97 66.5 139l-144 146l158 159l147 -144c42 27.333 87.667 48.333 137 63s101.333 22 156 22c54 0 105.5 -7.66699 154.5 -23
s94.5 -36.333 136.5 -63l148 145l160 -160l-146 -147c27.333 -42 48.666 -88 63.999 -138s23 -102.333 23 -157c0 -54 -7.5 -105.167 -22.5 -153.5s-35.833 -93.5 -62.5 -135.5l144 -146l-160 -158l-146 145c-42 -28 -87.833 -49.5 -137.5 -64.5
s-101.167 -22.5 -154.5 -22.5c-56 0 -108.833 7.33301 -158.5 22s-95.5 35.667 -137.5 63l-144 -144zM686.002 405.999c38 0 73.667 7.33203 107 21.999s62.333 35.334 87 62.001s44 58.5 58 95.5s21 77.833 21 122.5c0 42.667 -7 82.167 -21 118.5s-33.333 67.833 -58 94.5
s-53.5 47.667 -86.5 63s-68.5 23 -106.5 23c-38.667 0 -74.5 -7.66699 -107.5 -23s-61.667 -36.5 -86 -63.5s-43.5 -58.667 -57.5 -95s-21 -75.5 -21 -117.5c0 -44 6.83301 -84.5 20.5 -121.5s32.667 -68.833 57 -95.5s53 -47.5 86 -62.5s68.833 -22.5 107.5 -22.5z" />
    <glyph glyph-name="yen" unicode="&#xa5;" horiz-adv-x="1418" 
d="M230 745h254l-447 666h321l356 -553l356 553h310l-447 -666h267v-172h-358v-126h358v-172h-358v-275h-267v275h-345v172h345v126h-345v172z" />
    <glyph glyph-name="section" unicode="&#xa7;" horiz-adv-x="1228" 
d="M589 -371c-56 0 -110.33 4.66309 -162.997 13.9961s-101.834 23 -147.501 41s-87 40.333 -124 67s-67.833 57.667 -92.5 93l180 154c16.667 -22 37.667 -42.167 63 -60.5s53.166 -34.333 83.499 -48s62.666 -24.167 96.999 -31.5s69.5 -11 105.5 -11
c26.667 0 52.5 2.66699 77.5 8s47 13.833 66 25.5s34.167 26.334 45.5 44.001s17 38.834 17 63.501c0 16 -4 31 -12 45s-19 26.833 -33 38.5s-30.167 22.167 -48.5 31.5s-37.5 17.666 -57.5 24.999l-111 40l-78.5 28c-22.333 8 -42.333 15.5 -60 22.5
s-35.5 14.833 -53.5 23.5c-34 16 -65 33.333 -93 52s-51.667 39.834 -71 63.501s-34.333 50.167 -45 79.5s-16 62.666 -16 99.999c0 34.667 4.5 66.334 13.5 95.001s21.833 54.834 38.5 78.501s36.834 45.167 60.501 64.5s49.834 37 78.501 53
c-36.667 27.333 -66.5 59.666 -89.5 96.999s-34.5 82.333 -34.5 135c0 60.667 13.333 114.334 40 161.001s61.834 85.667 105.501 117s93.5 55.166 149.5 71.499s113.333 24.5 172 24.5c46.667 0 92.667 -4 138 -12s88.833 -20 130.5 -36s80.834 -36 117.501 -60
s69.667 -52 99 -84l-172 -159c-16.667 16.667 -35.834 32.834 -57.501 48.501s-45.5 29.5 -71.5 41.5s-54.167 21.667 -84.5 29s-61.833 11 -94.5 11c-26 0 -50.833 -2.66699 -74.5 -8s-44.334 -13.666 -62.001 -24.999s-31.834 -25.5 -42.501 -42.5s-16 -37.167 -16 -60.5
c0 -22 5.16699 -41 15.5 -57s24.5 -30.5 42.5 -43.5s39.167 -24.5 63.5 -34.5s50.166 -20 77.499 -30l61.5 -21l68 -23l67.5 -24c22 -8 42 -16 60 -24c35.333 -16 67.333 -33.167 96 -51.5s53 -39 73 -62s35.5 -48.667 46.5 -77s16.5 -60.5 16.5 -96.5
c0 -68.667 -16.833 -127 -50.5 -175s-79.167 -86 -136.5 -114c41.333 -28 71.5 -60.333 90.5 -97s28.5 -83 28.5 -139c0 -61.333 -12.333 -115.5 -37 -162.5s-59 -86.5 -103 -118.5s-96.167 -56.333 -156.5 -73s-125.833 -25 -196.5 -25zM773.003 335.996
c36 15.333 63.832 36 83.499 62s29.5 55 29.5 87c0 20.667 -4.66699 39 -14 55s-22 30.5 -38 43.5s-34.833 24.5 -56.5 34.5s-44.834 19.333 -69.501 28c-31.333 12 -62.666 23.333 -93.999 34s-67 24.334 -107 41.001c-37.333 -12.667 -67 -31 -89 -55s-33 -53.333 -33 -88
c0 -23.333 4.83301 -43.333 14.5 -60s23 -31.334 40 -44.001s36.833 -24 59.5 -34s47.334 -19.667 74.001 -29l66 -23.5l53 -19.5l44 -17z" />
    <glyph glyph-name="dieresis" unicode="&#xa8;" horiz-adv-x="900" 
d="M688 1187c-22 0 -42.5 4.16699 -61.5 12.5s-35.5 19.833 -49.5 34.5s-25 31.5 -33 50.5s-12 39.167 -12 60.5c0 20.667 4 40.5 12 59.5s19 35.5 33 49.5s30.167 25.167 48.5 33.5s38.166 12.5 59.499 12.5c22.667 0 43.667 -3.83301 63 -11.5s36.333 -18.5 51 -32.5
s26.167 -30.5 34.5 -49.5s12.5 -39.5 12.5 -61.5c0 -22.667 -4 -43.667 -12 -63s-19.167 -36 -33.5 -50s-31.166 -25 -50.499 -33s-40 -12 -62 -12zM213 1187c-22.667 0 -43.6689 4.16699 -63.002 12.5s-36 19.833 -50 34.5s-25 31.5 -33 50.5s-12 39.167 -12 60.5
c0 20.667 4.16699 40.5 12.5 59.5s19.5 35.5 33.5 49.5s30.333 25.167 49 33.5s38.667 12.5 60 12.5c22 0 42.833 -3.83301 62.5 -11.5s36.834 -18.5 51.501 -32.5s26.167 -30.5 34.5 -49.5s12.5 -39.5 12.5 -61.5c0 -22.667 -4 -43.667 -12 -63s-19.167 -36 -33.5 -50
s-31.166 -25 -50.499 -33s-40 -12 -62 -12z" />
    <glyph glyph-name="copyright" unicode="&#xa9;" horiz-adv-x="1817" 
d="M909 -102c-75.333 0 -148 9.66699 -218 29s-135.333 46.5 -196 81.5s-116 77.167 -166 126.5s-92.833 103.833 -128.5 163.5s-63.334 123.834 -83.001 192.501s-29.5 140 -29.5 214s9.83301 145.167 29.5 213.5s47.334 132.333 83.001 192s78.5 114.167 128.5 163.5
s105.333 91.5 166 126.5s126 62.167 196 81.5s142.667 29 218 29s148 -9.66699 218 -29s135.333 -46.5 196 -81.5s116 -77.167 166 -126.5s92.833 -103.833 128.5 -163.5s63.334 -123.667 83.001 -192s29.5 -139.5 29.5 -213.5s-9.83301 -145.333 -29.5 -214
s-47.334 -132.834 -83.001 -192.501s-78.5 -114.167 -128.5 -163.5s-105.333 -91.5 -166 -126.5s-126 -62.167 -196 -81.5s-142.667 -29 -218 -29zM909 98c83.333 0 161.662 15.833 234.995 47.5s137.333 75 192 130s97.834 119.333 129.501 193s47.5 152.5 47.5 236.5
c0 55.333 -7.16699 108.833 -21.5 160.5s-34.666 99.834 -60.999 144.501s-57.833 85.5 -94.5 122.5s-77.5 68.667 -122.5 95s-93.167 46.833 -144.5 61.5s-104.666 22 -159.999 22s-108.666 -7.33301 -159.999 -22s-99.5 -35.167 -144.5 -61.5s-85.833 -58 -122.5 -95
s-68.167 -77.833 -94.5 -122.5s-46.666 -92.834 -60.999 -144.501s-21.5 -105.167 -21.5 -160.5c0 -84 15.833 -162.833 47.5 -236.5s74.834 -138 129.501 -193s118.667 -98.333 192 -130s151.666 -47.5 234.999 -47.5zM927.996 276c-63.333 0 -121 10.499 -173 31.499
s-96.5 50.5 -133.5 88.5s-65.667 83.5 -86 136.5s-30.5 111.5 -30.5 175.5s10.167 122.333 30.5 175s49 97.834 86 135.501s81.5 67 133.5 88s109.667 31.5 173 31.5c83.333 0 155.333 -17.333 216 -52s109.334 -82.334 146.001 -143.001l-161 -113
c-23.333 36.667 -52 63.5 -86 80.5s-70 25.5 -108 25.5c-32 0 -60.833 -5.66699 -86.5 -17s-47.5 -27.166 -65.5 -47.499s-31.833 -44.5 -41.5 -72.5s-14.5 -58.333 -14.5 -91c0 -33.333 4.83301 -64 14.5 -92s23.5 -52.167 41.5 -72.5s39.833 -36.166 65.5 -47.499
s54.5 -17 86.5 -17c38 0 74 8.16699 108 24.5s62.667 43.166 86 80.499l161 -114c-36.667 -60 -85.334 -107.333 -146.001 -142s-132.667 -52 -216 -52z" />
    <glyph glyph-name="ordfeminine" unicode="&#xaa;" horiz-adv-x="878" 
d="M393 561c-50 0 -96.668 9.99902 -140.001 29.999s-80.666 47.5 -111.999 82.5s-56 76.333 -74 124s-27 99.167 -27 154.5c0 56 9 107.833 27 155.5s42.833 89 74.5 124s69 62.5 112 82.5s89.5 30 139.5 30c44 0 84.333 -7.66699 121 -23s67.667 -37.333 93 -66v75h190
v-464c0 -41.333 0.666992 -76.666 2 -105.999s3 -55 5 -77s4.16699 -41.167 6.5 -57.5l6.5 -46.5h-197c-2 7.33301 -4.16699 17.5 -6.5 30.5s-4.5 29.167 -6.5 48.5c-25.333 -30 -56.5 -53.667 -93.5 -71s-77.167 -26 -120.5 -26zM426.999 740.999
c18.667 0 36.998 2.66699 54.998 8s34.833 12.833 50.5 22.5s29.834 20.834 42.501 33.501s23.334 26.667 32.001 42v217c-17.333 28.667 -42.166 52.5 -74.499 71.5s-67.5 28.5 -105.5 28.5c-28.667 0 -54.167 -5.66699 -76.5 -17s-41.333 -26.666 -57 -45.999
s-27.5 -41.833 -35.5 -67.5s-12 -52.834 -12 -81.501s4.16699 -55.834 12.5 -81.501s20.166 -48 35.499 -67s34.333 -34.167 57 -45.5s48 -17 76 -17z" />
    <glyph glyph-name="guillemotleft" unicode="&#xab;" horiz-adv-x="1119" 
d="M69 564l242 410h274l-241 -410l244 -405h-273zM522 564l242 410h274l-241 -410l244 -405h-273z" />
    <glyph glyph-name="uni00AD" unicode="&#xad;" horiz-adv-x="824" 
d="M116 695h594v-234h-594v234z" />
    <glyph glyph-name="registered" unicode="&#xae;" horiz-adv-x="1817" 
d="M909 -102c-75.333 0 -148 9.66699 -218 29s-135.333 46.5 -196 81.5s-116 77.167 -166 126.5s-92.833 103.833 -128.5 163.5s-63.334 123.834 -83.001 192.501s-29.5 140 -29.5 214s9.83301 145.167 29.5 213.5s47.334 132.333 83.001 192s78.5 114.167 128.5 163.5
s105.333 91.5 166 126.5s126 62.167 196 81.5s142.667 29 218 29s148 -9.66699 218 -29s135.333 -46.5 196 -81.5s116 -77.167 166 -126.5s92.833 -103.833 128.5 -163.5s63.334 -123.667 83.001 -192s29.5 -139.5 29.5 -213.5s-9.83301 -145.333 -29.5 -214
s-47.334 -132.834 -83.001 -192.501s-78.5 -114.167 -128.5 -163.5s-105.333 -91.5 -166 -126.5s-126 -62.167 -196 -81.5s-142.667 -29 -218 -29zM909 98c83.333 0 161.662 15.833 234.995 47.5s137.333 75 192 130s97.834 119.333 129.501 193s47.5 152.5 47.5 236.5
c0 55.333 -7.16699 108.833 -21.5 160.5s-34.666 99.834 -60.999 144.501s-57.833 85.5 -94.5 122.5s-77.5 68.667 -122.5 95s-93.167 46.833 -144.5 61.5s-104.666 22 -159.999 22s-108.666 -7.33301 -159.999 -22s-99.5 -35.167 -144.5 -61.5s-85.833 -58 -122.5 -95
s-68.167 -77.833 -94.5 -122.5s-46.666 -92.834 -60.999 -144.501s-21.5 -105.167 -21.5 -160.5c0 -84 15.833 -162.833 47.5 -236.5s74.834 -138 129.501 -193s118.667 -98.333 192 -130s151.666 -47.5 234.999 -47.5zM592.996 1110l334 0.000976562
c112.667 0 198.667 -21.167 258 -63.5s89 -103.833 89 -184.5c0 -65.333 -16.833 -118.833 -50.5 -160.5s-85.5 -69.834 -155.5 -84.501l228 -312h-229l-209 300h-74v-300h-191v805zM944.996 763.001c48 0 81.834 8 101.501 24s29.5 39.667 29.5 71
c0 28.667 -11.333 49.5 -34 62.5s-56.334 19.5 -101.001 19.5h-156v-177h160z" />
    <glyph glyph-name="macron" unicode="&#xaf;" horiz-adv-x="816" 
d="M55 1443h706v-202h-706v202z" />
    <glyph glyph-name="degree" unicode="&#xb0;" horiz-adv-x="808" 
d="M404 840c-49.333 0 -95 9 -137 27s-78.167 42.5 -108.5 73.5s-54.166 67 -71.499 108s-26 84.5 -26 130.5s8.66699 89.667 26 131s41.166 77.5 71.499 108.5s66.5 55.667 108.5 74s87.667 27.5 137 27.5c52 0 99.167 -9.5 141.5 -28.5s78.5 -44.167 108.5 -75.5
s53.333 -67.5 70 -108.5s25 -83.833 25 -128.5c0 -44 -8.33301 -86.5 -25 -127.5s-40 -77.167 -70 -108.5s-66.167 -56.333 -108.5 -75s-89.5 -28 -141.5 -28zM404 1028c22 0 42 4 60 12s33.167 18.667 45.5 32s22 29.166 29 47.499s10.5 38.166 10.5 59.499
c0 20.667 -3.5 40.334 -10.5 59.001s-16.667 34.667 -29 48s-27.5 24 -45.5 32s-38 12 -60 12c-21.333 0 -40.666 -4 -57.999 -12s-32.333 -18.667 -45 -32s-22.334 -29.333 -29.001 -48s-10 -38.334 -10 -59.001c0 -21.333 3.33301 -41.166 10 -59.499
s16.334 -34.166 29.001 -47.499s27.667 -24 45 -32s36.666 -12 57.999 -12z" />
    <glyph glyph-name="plusminus" unicode="&#xb1;" horiz-adv-x="1138" 
d="M448 695h-342v233h342v320h244v-320h340v-233h-340v-322h-244v322zM106 259h926v-234h-926v234z" />
    <glyph glyph-name="uni00B2" unicode="&#xb2;" horiz-adv-x="822" 
d="M99 579c-7.33301 0 -10.999 2.66895 -10.999 8.00195c0 3.33301 0.833008 6.33301 2.5 9s4.16699 5.66699 7.5 9l73 83l83.5 99.5l83.5 101.5l72 91c33.333 43.333 56.666 79.5 69.999 108.5s20 55.167 20 78.5c0 30 -9.83301 53.667 -29.5 71s-46.5 26 -80.5 26
c-34.667 0 -64.5 -11.833 -89.5 -35.5s-44.167 -55.834 -57.5 -96.501l-171 55c12.667 38 29.334 72.333 50.001 103s45.167 56.834 73.5 78.501s60 38.334 95 50.001s72.833 17.5 113.5 17.5c45.333 0 86.5 -6.33301 123.5 -19s68.5 -30.334 94.5 -53.001
s46.167 -49.834 60.5 -81.501s21.5 -66.834 21.5 -105.501c0 -44 -10.333 -86.833 -31 -128.5s-46.334 -83.167 -77.001 -124.5c-19.333 -28 -39.833 -56 -61.5 -84l-76.5 -96h272v-165h-631z" />
    <glyph glyph-name="uni00B3" unicode="&#xb3;" horiz-adv-x="775" 
d="M388 558c-40.667 0 -78.165 4.83301 -112.498 14.5s-65.5 22.667 -93.5 39s-52.333 35.333 -73 57s-37.334 44.5 -50.001 68.5l143 99c17.333 -36 41.166 -63.333 71.499 -82s64.833 -28 103.5 -28c36 0 64.333 9.5 85 28.5s31 43.5 31 73.5
c0 14 -3.66699 27.167 -11 39.5s-17.666 23.166 -30.999 32.499s-29.833 16.833 -49.5 22.5s-41.5 8.5 -65.5 8.5h-64v143l57 2c20 0 38.833 2 56.5 6s33 10 46 18s23.333 18 31 30s11.5 26 11.5 42c0 28 -9.5 50.333 -28.5 67s-46.5 25 -82.5 25
c-29.333 0 -58.166 -7.66699 -86.499 -23s-50.833 -40 -67.5 -74l-134 96c13.333 22 29.666 43.167 48.999 63.5s41.666 38.333 66.999 54s53.833 28.334 85.5 38.001s66.5 14.5 104.5 14.5c44.667 0 84.834 -5.66699 120.501 -17s66 -27.166 91 -47.499s44.333 -45 58 -74
s20.5 -60.833 20.5 -95.5c0 -46.667 -10.833 -86.334 -32.5 -119.001s-53.167 -57.667 -94.5 -75c24 -8 45.5 -18.833 64.5 -32.5s35.167 -29.334 48.5 -47.001s23.5 -36.667 30.5 -57s10.5 -41.166 10.5 -62.499c0 -40 -8 -75.5 -24 -106.5s-37.833 -57 -65.5 -78
s-60.334 -36.833 -98.001 -47.5s-78.5 -16 -122.5 -16z" />
    <glyph glyph-name="acute" unicode="&#xb4;" horiz-adv-x="685" 
d="M282 1515h348l-324 -334h-251z" />
    <glyph glyph-name="paragraph" unicode="&#xb6;" horiz-adv-x="1129" 
d="M443 713c-63.333 0.666992 -119.5 9.66895 -168.5 27.002s-90 41.166 -123 71.499s-58 67 -75 110s-25.5 90.5 -25.5 142.5s8.5 99.167 25.5 141.5s42.167 78.666 75.5 108.999s74.333 54 123 71s104.667 25.5 168 25.5h525v-1411h-202v1234h-121v-1234h-202v713z" />
    <glyph glyph-name="periodcentered" unicode="&#xb7;" horiz-adv-x="521" 
d="M259 402c-23.333 0 -45.5 4.5 -66.5 13.5s-39.333 21.333 -55 37s-28.167 34.167 -37.5 55.5s-14 44 -14 68s4.66699 46.667 14 68s21.833 40 37.5 56s34 28.5 55 37.5s43.167 13.5 66.5 13.5c24 0 46.667 -4.5 68 -13.5s39.833 -21.5 55.5 -37.5s28 -34.667 37 -56
s13.5 -44 13.5 -68s-4.5 -46.667 -13.5 -68s-21.333 -39.833 -37 -55.5s-34.167 -28 -55.5 -37s-44 -13.5 -68 -13.5z" />
    <glyph glyph-name="cedilla" unicode="&#xb8;" horiz-adv-x="588" 
d="M256 -485c-37.333 0 -73.002 3.66504 -107.002 10.998s-65.333 18.333 -94 33l50 129c14 -5.33301 30 -10 48 -14s36.667 -6 56 -6c32 0 58.5 6.5 79.5 19.5s31.5 33.167 31.5 60.5c0 18.667 -4.83301 33.834 -14.5 45.501s-22.167 21 -37.5 28
s-32.666 11.833 -51.999 14.5s-38.666 4.33398 -57.999 5.00098l70 191h174l-45 -107c54 -10.667 96.833 -32.834 128.5 -66.501s47.5 -75.167 47.5 -124.5c0 -33.333 -6.33301 -63.333 -19 -90s-31 -49.667 -55 -69s-53.167 -34.166 -87.5 -44.499
s-72.833 -15.5 -115.5 -15.5z" />
    <glyph glyph-name="uni00B9" unicode="&#xb9;" horiz-adv-x="593" 
d="M280 1129l-165 -104l-101 156l421 245c8 4.66699 13.5 7.5 16.5 8.5s5.83301 1.5 8.5 1.5c7.33301 0 11 -5 11 -15v-842h-191v550z" />
    <glyph glyph-name="ordmasculine" unicode="&#xba;" horiz-adv-x="845" 
d="M424 561c-57.333 0 -110 9.83398 -158 29.501s-89.333 47 -124 82s-61.5 76.5 -80.5 124.5s-28.5 100 -28.5 156s9.5 108 28.5 156s45.833 89.333 80.5 124s76 61.834 124 81.501s100.667 29.5 158 29.5s109.833 -9.83301 157.5 -29.5s88.667 -46.834 123 -81.501
s61 -76 80 -124s28.5 -100 28.5 -156c0 -56.667 -9.5 -108.834 -28.5 -156.501s-45.667 -89 -80 -124s-75.333 -62.333 -123 -82s-100.167 -29.5 -157.5 -29.5zM424 740.001c26.667 0 51.167 5.33301 73.5 16s41.833 25.5 58.5 44.5s29.667 41.5 39 67.5s14 54.333 14 85
c0 30 -4.66699 58 -14 84s-22.333 48.5 -39 67.5s-36.167 33.833 -58.5 44.5s-46.833 16 -73.5 16s-51.334 -5.33301 -74.001 -16s-42.334 -25.5 -59.001 -44.5s-29.667 -41.5 -39 -67.5s-14 -54 -14 -84c0 -30.667 4.66699 -59 14 -85s22.333 -48.5 39 -67.5
s36.334 -33.833 59.001 -44.5s47.334 -16 74.001 -16z" />
    <glyph glyph-name="guillemotright" unicode="&#xbb;" horiz-adv-x="1119" 
d="M322 564l-241 410h274l243 -410l-246 -405h-274zM775 564l-241 410h274l243 -410l-246 -405h-274z" />
    <glyph glyph-name="onequarter" unicode="&#xbc;" horiz-adv-x="1862" 
d="M305 1129l-165 -104l-101 156l421 245c8 4.66699 13.5 7.5 16.5 8.5s5.83301 1.5 8.5 1.5c7.33301 0 11 -5 11 -15v-842h-191v550zM1176 1411h236l-818 -1411h-234zM1521 165l-408.999 1c-5.33301 0 -8.5 0.833008 -9.5 2.5s-1.5 3.5 -1.5 5.5s0.666992 5 2 9
s3.66602 9.66699 6.99902 17l251 632h207l-199 -499h152v195h186v-195h94v-168h-95v-165h-185v165z" />
    <glyph glyph-name="onehalf" unicode="&#xbd;" horiz-adv-x="1884" 
d="M305 1129l-165 -104l-101 156l421 245c8 4.66699 13.5 7.5 16.5 8.5s5.83301 1.5 8.5 1.5c7.33301 0 11 -5 11 -15v-842h-191v550zM1176 1411h236l-818 -1411h-234zM1177 0c-7.33301 0 -10.999 2.66602 -10.999 7.99902c0 3.33301 0.833008 6.33301 2.5 9
s4.16699 5.66699 7.5 9l73 83l84 99l83.5 101.5l71.5 91.5c33.333 43.333 56.666 79.5 69.999 108.5s20 55.167 20 78.5c0 30 -9.83301 53.667 -29.5 71s-46.5 26 -80.5 26c-34.667 0 -64.5 -12 -89.5 -36s-44.167 -56.333 -57.5 -97l-171 56
c12.667 38 29.334 72.333 50.001 103s45.167 56.834 73.5 78.501s60 38.334 95 50.001s73.167 17.5 114.5 17.5c44.667 0 85.5 -6.33301 122.5 -19s68.5 -30.334 94.5 -53.001s46.167 -50 60.5 -82s21.5 -67 21.5 -105c0 -44 -10.333 -86.833 -31 -128.5
s-46.334 -83.5 -77.001 -125.5c-19.333 -28 -39.833 -55.833 -61.5 -83.5l-76.5 -95.5h272v-165h-631z" />
    <glyph glyph-name="threequarters" unicode="&#xbe;" horiz-adv-x="1972" 
d="M381 558c-40 0 -77.334 4.83301 -112.001 14.5s-66 22.667 -94 39s-52.333 35.333 -73 57s-37.334 44.5 -50.001 68.5l143 99c17.333 -36 41.166 -63.333 71.499 -82s64.833 -28 103.5 -28c36.667 0 65.167 9.5 85.5 28.5s30.5 43.5 30.5 73.5
c0 14 -3.66699 27.167 -11 39.5s-17.666 23.166 -30.999 32.499s-29.666 16.833 -48.999 22.5s-41 8.5 -65 8.5h-64v143l57 2c20 0 38.833 2 56.5 6s33 10 46 18s23.333 18 31 30s11.5 26 11.5 42c0 28 -9.5 50.333 -28.5 67s-46.833 25 -83.5 25
c-29.333 0 -58.166 -7.66699 -86.499 -23s-50.833 -40 -67.5 -74l-133 96c13.333 22 29.5 43.167 48.5 63.5s41.167 38.333 66.5 54s53.833 28.334 85.5 38.001s66.5 14.5 104.5 14.5c44.667 0 85 -5.66699 121 -17s66.5 -27.166 91.5 -47.499s44.167 -45 57.5 -74
s20 -60.833 20 -95.5c0 -46.667 -10.667 -86.334 -32 -119.001s-53 -57.667 -95 -75c24 -8 45.5 -18.833 64.5 -32.5s35.333 -29.334 49 -47.001s24 -36.667 31 -57s10.5 -41.166 10.5 -62.499c0 -40 -8 -75.5 -24 -106.5s-38 -57 -66 -78s-60.833 -36.833 -98.5 -47.5
s-78.5 -16 -122.5 -16zM1293 1411h235l-817 -1411h-234zM1639 165l-408.999 1c-7.33301 0 -11 2.66699 -11 8c0 2 0.666992 5 2 9s3.66602 9.66699 6.99902 17l251 632h207l-199 -499h152v195h186v-195h95v-168h-96v-165h-185v165z" />
    <glyph glyph-name="questiondown" unicode="&#xbf;" horiz-adv-x="932" 
d="M685 305c-114 -28 -199.835 -64.667 -257.502 -110s-86.5 -100.333 -86.5 -165c0 -29.333 4.83301 -55 14.5 -77s23.334 -40.5 41.001 -55.5s38.5 -26.333 62.5 -34s50.333 -11.5 79 -11.5c20.667 0 41.834 2.16699 63.501 6.5s43.334 10.5 65.001 18.5
s42.834 17.333 63.501 28s40 22 58 34l104 -191c-26.667 -19.333 -55.834 -36.833 -87.501 -52.5s-64.834 -29.167 -99.501 -40.5s-70 -20.166 -106 -26.499s-71.667 -9.5 -107 -9.5c-56 0 -110.333 7.5 -163 22.5s-99.334 38 -140.001 69s-73.167 70.667 -97.5 119
s-35.833 105.5 -34.5 171.5c0.666992 46 8.33398 90.167 23.001 132.5s37 82 67 119s68.167 71.167 114.5 102.5s101.833 59.666 166.5 84.999v167h257v-302zM555.998 1080c22.667 0 44.334 -4.66699 65.001 -14s38.667 -21.833 54 -37.5s27.5 -33.834 36.5 -54.501
s13.5 -42.667 13.5 -66s-4.5 -45 -13.5 -65s-21.167 -37.667 -36.5 -53s-33.333 -27.333 -54 -36s-42.334 -13 -65.001 -13c-23.333 0 -45.333 4.33301 -66 13s-38.667 20.667 -54 36s-27.5 33 -36.5 53s-13.5 41.667 -13.5 65s4.5 45.333 13.5 66
s21.167 38.834 36.5 54.501s33.333 28.167 54 37.5s42.667 14 66 14z" />
    <glyph glyph-name="Agrave" unicode="&#xc0;" horiz-adv-x="1388" 
d="M2 0l154.499 335l149.5 321l135.5 288.5l113 237.5l82 169.5c21.667 44.333 35.834 72.5 42.501 84.5c2.66699 5.33301 5.16699 8.5 7.5 9.5s4.83301 1.5 7.5 1.5c2 0 4.16699 -0.5 6.5 -1.5s4.83301 -4.16699 7.5 -9.5l41.5 -82.5l82 -169l113.5 -238.5l136 -289
l150 -321.5l155 -335.5h-309l-88 203h-600l-87 -203h-300zM891.999 442l-203 465l-202 -465h405zM289.999 1857h350l228 -333h-253z" />
    <glyph glyph-name="Aacute" unicode="&#xc1;" horiz-adv-x="1388" 
d="M2 0l154.499 335l149.5 321l135.5 288.5l113 237.5l82 169.5c21.667 44.333 35.834 72.5 42.501 84.5c2.66699 5.33301 5.16699 8.5 7.5 9.5s4.83301 1.5 7.5 1.5c2 0 4.16699 -0.5 6.5 -1.5s4.83301 -4.16699 7.5 -9.5l41.5 -82.5l82 -169l113.5 -238.5l136 -289
l150 -321.5l155 -335.5h-309l-88 203h-600l-87 -203h-300zM891.999 442l-203 465l-202 -465h405zM731.999 1857h348l-324 -333h-251z" />
    <glyph glyph-name="Acircumflex" unicode="&#xc2;" horiz-adv-x="1388" 
d="M2 0l154.499 335l149.5 321l135.5 288.5l113 237.5l82 169.5c21.667 44.333 35.834 72.5 42.501 84.5c2.66699 5.33301 5.16699 8.5 7.5 9.5s4.83301 1.5 7.5 1.5c2 0 4.16699 -0.5 6.5 -1.5s4.83301 -4.16699 7.5 -9.5l41.5 -82.5l82 -169l113.5 -238.5l136 -289
l150 -321.5l155 -335.5h-309l-88 203h-600l-87 -203h-300zM891.999 442l-203 465l-202 -465h405zM534.999 1857h326l247 -334h-260l-153 174l-151 -174h-258z" />
    <glyph glyph-name="Atilde" unicode="&#xc3;" horiz-adv-x="1388" 
d="M2 0l154.499 335l149.5 321l135.5 288.5l113 237.5l82 169.5c21.667 44.333 35.834 72.5 42.501 84.5c2.66699 5.33301 5.16699 8.5 7.5 9.5s4.83301 1.5 7.5 1.5c2 0 4.16699 -0.5 6.5 -1.5s4.83301 -4.16699 7.5 -9.5l41.5 -82.5l82 -169l113.5 -238.5l136 -289
l150 -321.5l155 -335.5h-309l-88 203h-600l-87 -203h-300zM891.999 442l-203 465l-202 -465h405zM272.999 1621c12 29.333 26.5 56.668 43.5 82.001s36.667 47.166 59 65.499s47.666 33 75.999 44s59.833 16.5 94.5 16.5c34 0 64.5 -4 91.5 -12s52.167 -17 75.5 -27
l65.5 -27c20.333 -8 40.5 -12 60.5 -12c16 0 29.833 2.16699 41.5 6.5s22 10.166 31 17.499s17.167 15.666 24.5 24.999l22 29l152 -85c-12 -29.333 -26.333 -56.5 -43 -81.5s-36.167 -46.667 -58.5 -65s-47.666 -32.833 -75.999 -43.5s-59.833 -16 -94.5 -16
c-34 0 -64.667 4 -92 12s-52.5 17 -75.5 27s-44.667 19 -65 27s-40.5 12 -60.5 12c-16 0 -29.833 -2.16699 -41.5 -6.5s-22 -10.166 -31 -17.499s-17.167 -15.666 -24.5 -24.999s-14.333 -19 -21 -29z" />
    <glyph glyph-name="Adieresis" unicode="&#xc4;" horiz-adv-x="1388" 
d="M2 0l154.499 335l149.5 321l135.5 288.5l113 237.5l82 169.5c21.667 44.333 35.834 72.5 42.501 84.5c2.66699 5.33301 5.16699 8.5 7.5 9.5s4.83301 1.5 7.5 1.5c2 0 4.16699 -0.5 6.5 -1.5s4.83301 -4.16699 7.5 -9.5l41.5 -82.5l82 -169l113.5 -238.5l136 -289
l150 -321.5l155 -335.5h-309l-88 203h-600l-87 -203h-300zM891.999 442l-203 465l-202 -465h405zM930.999 1527c-22 0 -42.5 4.16699 -61.5 12.5s-35.5 19.833 -49.5 34.5s-25 31.5 -33 50.5s-12 39.167 -12 60.5c0 20.667 4 40.5 12 59.5s19 35.5 33 49.5
s30.167 25.167 48.5 33.5s38.166 12.5 59.499 12.5c22.667 0 43.667 -3.83301 63 -11.5s36.333 -18.5 51 -32.5s26.167 -30.5 34.5 -49.5s12.5 -39.5 12.5 -61.5c0 -22.667 -4 -43.667 -12 -63s-19.167 -36 -33.5 -50s-31.166 -25 -50.499 -33s-40 -12 -62 -12z
M455.999 1527c-22.667 0 -43.6689 4.16699 -63.002 12.5s-36 19.833 -50 34.5s-25 31.5 -33 50.5s-12 39.167 -12 60.5c0 20.667 4.16699 40.5 12.5 59.5s19.5 35.5 33.5 49.5s30.333 25.167 49 33.5s38.667 12.5 60 12.5c22 0 42.833 -3.83301 62.5 -11.5
s36.834 -18.5 51.501 -32.5s26.167 -30.5 34.5 -49.5s12.5 -39.5 12.5 -61.5c0 -22.667 -4 -43.667 -12 -63s-19.167 -36 -33.5 -50s-31.166 -25 -50.499 -33s-40 -12 -62 -12z" />
    <glyph glyph-name="Aring" unicode="&#xc5;" horiz-adv-x="1388" 
d="M2 0l154.499 335l149.5 321l135.5 288.5l113 237.5l82 169.5c21.667 44.333 35.834 72.5 42.501 84.5c2.66699 5.33301 5.16699 8.5 7.5 9.5s4.83301 1.5 7.5 1.5c2 0 4.16699 -0.5 6.5 -1.5s4.83301 -4.16699 7.5 -9.5l41.5 -82.5l82 -169l113.5 -238.5l136 -289
l150 -321.5l155 -335.5h-309l-88 203h-600l-87 -203h-300zM891.999 442l-203 465l-202 -465h405zM695.999 1498c-39.333 0 -76.333 6.83301 -111 20.5s-64.667 32.667 -90 57s-45.333 53.166 -60 86.499s-22 69.333 -22 108s7.33301 74.5 22 107.5s34.667 61.667 60 86
s55.333 43.5 90 57.5s71.667 21 111 21c38.667 0 75 -7 109 -21s63.667 -33.167 89 -57.5s45.333 -53 60 -86s22 -68.833 22 -107.5s-7.33301 -74.667 -22 -108s-34.667 -62.166 -60 -86.499s-55 -43.333 -89 -57s-70.333 -20.5 -109 -20.5zM695.999 1649c16 0 31 3 45 9
s26 14.5 36 25.5s18 23.833 24 38.5s9 30.334 9 47.001c0 16 -3 31.5 -9 46.5s-14 28 -24 39s-22 19.833 -36 26.5s-29 10 -45 10c-16.667 0 -32.334 -3.33301 -47.001 -10s-27.334 -15.5 -38.001 -26.5s-19 -24 -25 -39s-9 -30.5 -9 -46.5c0 -16.667 3 -32.334 9 -47.001
s14.333 -27.5 25 -38.5s23.334 -19.5 38.001 -25.5s30.334 -9 47.001 -9z" />
    <glyph glyph-name="AE" unicode="&#xc6;" horiz-adv-x="2034" 
d="M974 1411h967v-247h-705v-333h644v-247h-644v-337h705v-247h-970v271l-506 1l-193 -272h-321zM977 506v502l-351 -500z" />
    <glyph glyph-name="Ccedilla" unicode="&#xc7;" horiz-adv-x="1349" 
d="M708 -485c-75.333 0 -142.338 14.667 -201.005 44l50 129c14 -5.33301 30 -10 48 -14s36.667 -6 56 -6c32 0 58.5 6.5 79.5 19.5s31.5 33.167 31.5 60.5c0 18.667 -4.83301 33.834 -14.5 45.501s-22.167 21 -37.5 28s-32.666 11.833 -51.999 14.5
s-38.666 4.33398 -57.999 5.00098l52 144c-94 13.333 -177.333 41 -250 83s-133.667 94.833 -183 158.5s-86.666 136.334 -111.999 218.001s-38 169.167 -38 262.5c0 102.667 15.667 198.5 47 287.5s77.166 166.167 137.499 231.5s134.833 116.666 223.5 153.999
s190.667 56 306 56c112 0 212.333 -19 301 -57s164.334 -92.333 227.001 -163l-178 -165c-44.667 42 -97.167 75.667 -157.5 101s-124.5 38 -192.5 38c-67.333 0 -127.5 -12.667 -180.5 -38s-98 -59.833 -135 -103.5s-65.333 -94.834 -85 -153.501
s-29.5 -121.334 -29.5 -188.001c0 -67.333 9.83301 -130.5 29.5 -189.5s48 -110.333 85 -154s82 -78.167 135 -103.5s113.167 -38 180.5 -38c68 0 132.167 12.667 192.5 38s112.833 58.666 157.5 99.999l178 -164c-59.333 -65.333 -130.166 -117.166 -212.499 -155.499
s-175.166 -59.833 -278.499 -64.5l-20 -51c52.667 -10.667 95.167 -32.834 127.5 -66.501s48.5 -75.167 48.5 -124.5c0 -33.333 -6.5 -63.333 -19.5 -90s-31.5 -49.667 -55.5 -69s-53.167 -34.166 -87.5 -44.499s-72.833 -15.5 -115.5 -15.5z" />
    <glyph glyph-name="Egrave" unicode="&#xc8;" horiz-adv-x="1277" 
d="M146 1411h1038v-247h-761v-331h701v-247h-701v-339h761v-247h-1038v1411zM304 1857h350l228 -333h-253z" />
    <glyph glyph-name="Eacute" unicode="&#xc9;" horiz-adv-x="1277" 
d="M146 1411h1038v-247h-761v-331h701v-247h-701v-339h761v-247h-1038v1411zM682 1857h348l-324 -333h-251z" />
    <glyph glyph-name="Ecircumflex" unicode="&#xca;" horiz-adv-x="1277" 
d="M146 1411h1038v-247h-761v-331h701v-247h-701v-339h761v-247h-1038v1411zM504 1857h326l247 -334h-260l-153 174l-151 -174h-258z" />
    <glyph glyph-name="Edieresis" unicode="&#xcb;" horiz-adv-x="1277" 
d="M146 1411h1038v-247h-761v-331h701v-247h-701v-339h761v-247h-1038v1411zM904 1527c-22 0 -42.5 4.16699 -61.5 12.5s-35.5 19.833 -49.5 34.5s-25 31.5 -33 50.5s-12 39.167 -12 60.5c0 20.667 4 40.5 12 59.5s19 35.5 33 49.5s30.167 25.167 48.5 33.5
s38.166 12.5 59.499 12.5c22.667 0 43.667 -3.83301 63 -11.5s36.333 -18.5 51 -32.5s26.167 -30.5 34.5 -49.5s12.5 -39.5 12.5 -61.5c0 -22.667 -4 -43.667 -12 -63s-19.167 -36 -33.5 -50s-31.166 -25 -50.499 -33s-40 -12 -62 -12zM429 1527
c-22.667 0 -43.6689 4.16699 -63.002 12.5s-36 19.833 -50 34.5s-25 31.5 -33 50.5s-12 39.167 -12 60.5c0 20.667 4.16699 40.5 12.5 59.5s19.5 35.5 33.5 49.5s30.333 25.167 49 33.5s38.667 12.5 60 12.5c22 0 42.833 -3.83301 62.5 -11.5s36.834 -18.5 51.501 -32.5
s26.167 -30.5 34.5 -49.5s12.5 -39.5 12.5 -61.5c0 -22.667 -4 -43.667 -12 -63s-19.167 -36 -33.5 -50s-31.166 -25 -50.499 -33s-40 -12 -62 -12z" />
    <glyph glyph-name="Igrave" unicode="&#xcc;" horiz-adv-x="569" 
d="M146 1411h277v-1411h-277v1411zM-117 1857h350l228 -333h-253z" />
    <glyph glyph-name="Iacute" unicode="&#xcd;" horiz-adv-x="569" 
d="M146 1411h277v-1411h-277v1411zM324 1857h348l-324 -333h-251z" />
    <glyph glyph-name="Icircumflex" unicode="&#xce;" horiz-adv-x="569" 
d="M146 1411h277v-1411h-277v1411zM124 1857h326l247 -334h-260l-153 174l-151 -174h-258z" />
    <glyph glyph-name="Idieresis" unicode="&#xcf;" horiz-adv-x="569" 
d="M146 1411h277v-1411h-277v1411zM521 1527c-22 0 -42.5 4.16699 -61.5 12.5s-35.5 19.833 -49.5 34.5s-25 31.5 -33 50.5s-12 39.167 -12 60.5c0 20.667 4 40.5 12 59.5s19 35.5 33 49.5s30.167 25.167 48.5 33.5s38.166 12.5 59.499 12.5
c22.667 0 43.667 -3.83301 63 -11.5s36.333 -18.5 51 -32.5s26.167 -30.5 34.5 -49.5s12.5 -39.5 12.5 -61.5c0 -22.667 -4 -43.667 -12 -63s-19.167 -36 -33.5 -50s-31.166 -25 -50.499 -33s-40 -12 -62 -12zM46 1527c-22.667 0 -43.6689 4.16699 -63.002 12.5
s-36 19.833 -50 34.5s-25 31.5 -33 50.5s-12 39.167 -12 60.5c0 20.667 4.16699 40.5 12.5 59.5s19.5 35.5 33.5 49.5s30.333 25.167 49 33.5s38.667 12.5 60 12.5c22 0 42.833 -3.83301 62.5 -11.5s36.834 -18.5 51.501 -32.5s26.167 -30.5 34.5 -49.5
s12.5 -39.5 12.5 -61.5c0 -22.667 -4 -43.667 -12 -63s-19.167 -36 -33.5 -50s-31.166 -25 -50.499 -33s-40 -12 -62 -12z" />
    <glyph glyph-name="Eth" unicode="&#xd0;" horiz-adv-x="1549" 
d="M207 600h-163v226h163v585h512c114 0 217.333 -15.667 310 -47s171.834 -77 237.501 -137s116.167 -133.667 151.5 -221s53 -187 53 -299c0 -112.667 -17.667 -212.834 -53 -300.501s-85.833 -161.667 -151.5 -222s-144.834 -106.166 -237.501 -137.499
s-196 -47 -310 -47h-512v600zM719 249c72.667 0 137.834 9.99902 195.501 29.999s106.5 49.333 146.5 88s70.5 86.5 91.5 143.5s31.5 122.5 31.5 196.5s-10.5 139.333 -31.5 196s-51.5 104.334 -91.5 143.001s-88.833 68 -146.5 88s-122.834 30 -195.501 30h-236v-338h371
v-226h-371v-351h236z" />
    <glyph glyph-name="Ntilde" unicode="&#xd1;" horiz-adv-x="1484" 
d="M1325 -34c-7.33301 0 -17.002 5.66699 -29.002 17l-873 856v-839h-277v1430c0 11.333 4.33301 17 13 17c4.66699 0 8.83398 -1.33301 12.501 -4s8.83398 -7 15.501 -13l438 -428.5l435 -426.5l1 836h276v-1428c0 -11.333 -4 -17 -12 -17zM320.998 1621
c12 29.333 26.5 56.668 43.5 82.001s36.667 47.166 59 65.499s47.666 33 75.999 44s59.833 16.5 94.5 16.5c34 0 64.5 -4 91.5 -12s52.167 -17 75.5 -27l65.5 -27c20.333 -8 40.5 -12 60.5 -12c16 0 29.833 2.16699 41.5 6.5s22 10.166 31 17.499s17.167 15.666 24.5 24.999
l22 29l152 -85c-12 -29.333 -26.333 -56.5 -43 -81.5s-36.167 -46.667 -58.5 -65s-47.666 -32.833 -75.999 -43.5s-59.833 -16 -94.5 -16c-34 0 -64.667 4 -92 12s-52.5 17 -75.5 27s-44.667 19 -65 27s-40.5 12 -60.5 12c-16 0 -29.833 -2.16699 -41.5 -6.5
s-22 -10.166 -31 -17.499s-17.167 -15.666 -24.5 -24.999s-14.333 -19 -21 -29z" />
    <glyph glyph-name="Ograve" unicode="&#xd2;" horiz-adv-x="1591" 
d="M793 -25c-113.333 0 -214.166 18.833 -302.499 56.5s-163.166 89.334 -224.499 155.001s-108 143 -140 232s-48 185.167 -48 288.5c0 102.667 16 198.5 48 287.5s78.667 166.167 140 231.5s136.166 116.666 224.499 153.999s189.166 56 302.499 56
c114 0 215.667 -18.667 305 -56s164.666 -88.666 225.999 -153.999s108.166 -142.5 140.499 -231.5s48.5 -184.833 48.5 -287.5c0 -103.333 -16.167 -199.5 -48.5 -288.5s-79.166 -166.333 -140.499 -232s-136.666 -117.334 -225.999 -155.001s-191 -56.5 -305 -56.5z
M794 221c67.333 0 127.833 12.5 181.5 37.5s99.334 59.5 137.001 103.5s66.5 95.5 86.5 154.5s30 122.5 30 190.5s-10 131.333 -30 190s-48.833 109.834 -86.5 153.501s-83.334 77.834 -137.001 102.501s-114.167 37 -181.5 37c-66.667 0 -126.667 -12.333 -180 -37
s-98.666 -58.834 -135.999 -102.501s-66 -94.834 -86 -153.501s-30 -122 -30 -190s10 -131.5 30 -190.5s48.667 -110.5 86 -154.5s82.666 -78.5 135.999 -103.5s113.333 -37.5 180 -37.5zM423 1857h350l228 -333h-253z" />
    <glyph glyph-name="Oacute" unicode="&#xd3;" horiz-adv-x="1591" 
d="M793 -25c-113.333 0 -214.166 18.833 -302.499 56.5s-163.166 89.334 -224.499 155.001s-108 143 -140 232s-48 185.167 -48 288.5c0 102.667 16 198.5 48 287.5s78.667 166.167 140 231.5s136.166 116.666 224.499 153.999s189.166 56 302.499 56
c114 0 215.667 -18.667 305 -56s164.666 -88.666 225.999 -153.999s108.166 -142.5 140.499 -231.5s48.5 -184.833 48.5 -287.5c0 -103.333 -16.167 -199.5 -48.5 -288.5s-79.166 -166.333 -140.499 -232s-136.666 -117.334 -225.999 -155.001s-191 -56.5 -305 -56.5z
M794 221c67.333 0 127.833 12.5 181.5 37.5s99.334 59.5 137.001 103.5s66.5 95.5 86.5 154.5s30 122.5 30 190.5s-10 131.333 -30 190s-48.833 109.834 -86.5 153.501s-83.334 77.834 -137.001 102.501s-114.167 37 -181.5 37c-66.667 0 -126.667 -12.333 -180 -37
s-98.666 -58.834 -135.999 -102.501s-66 -94.834 -86 -153.501s-30 -122 -30 -190s10 -131.5 30 -190.5s48.667 -110.5 86 -154.5s82.666 -78.5 135.999 -103.5s113.333 -37.5 180 -37.5zM810 1857h348l-324 -333h-251z" />
    <glyph glyph-name="Ocircumflex" unicode="&#xd4;" horiz-adv-x="1591" 
d="M793 -25c-113.333 0 -214.166 18.833 -302.499 56.5s-163.166 89.334 -224.499 155.001s-108 143 -140 232s-48 185.167 -48 288.5c0 102.667 16 198.5 48 287.5s78.667 166.167 140 231.5s136.166 116.666 224.499 153.999s189.166 56 302.499 56
c114 0 215.667 -18.667 305 -56s164.666 -88.666 225.999 -153.999s108.166 -142.5 140.499 -231.5s48.5 -184.833 48.5 -287.5c0 -103.333 -16.167 -199.5 -48.5 -288.5s-79.166 -166.333 -140.499 -232s-136.666 -117.334 -225.999 -155.001s-191 -56.5 -305 -56.5z
M794 221c67.333 0 127.833 12.5 181.5 37.5s99.334 59.5 137.001 103.5s66.5 95.5 86.5 154.5s30 122.5 30 190.5s-10 131.333 -30 190s-48.833 109.834 -86.5 153.501s-83.334 77.834 -137.001 102.501s-114.167 37 -181.5 37c-66.667 0 -126.667 -12.333 -180 -37
s-98.666 -58.834 -135.999 -102.501s-66 -94.834 -86 -153.501s-30 -122 -30 -190s10 -131.5 30 -190.5s48.667 -110.5 86 -154.5s82.666 -78.5 135.999 -103.5s113.333 -37.5 180 -37.5zM633 1857h326l247 -334h-260l-153 174l-151 -174h-258z" />
    <glyph glyph-name="Otilde" unicode="&#xd5;" horiz-adv-x="1591" 
d="M793 -25c-113.333 0 -214.166 18.833 -302.499 56.5s-163.166 89.334 -224.499 155.001s-108 143 -140 232s-48 185.167 -48 288.5c0 102.667 16 198.5 48 287.5s78.667 166.167 140 231.5s136.166 116.666 224.499 153.999s189.166 56 302.499 56
c114 0 215.667 -18.667 305 -56s164.666 -88.666 225.999 -153.999s108.166 -142.5 140.499 -231.5s48.5 -184.833 48.5 -287.5c0 -103.333 -16.167 -199.5 -48.5 -288.5s-79.166 -166.333 -140.499 -232s-136.666 -117.334 -225.999 -155.001s-191 -56.5 -305 -56.5z
M794 221c67.333 0 127.833 12.5 181.5 37.5s99.334 59.5 137.001 103.5s66.5 95.5 86.5 154.5s30 122.5 30 190.5s-10 131.333 -30 190s-48.833 109.834 -86.5 153.501s-83.334 77.834 -137.001 102.501s-114.167 37 -181.5 37c-66.667 0 -126.667 -12.333 -180 -37
s-98.666 -58.834 -135.999 -102.501s-66 -94.834 -86 -153.501s-30 -122 -30 -190s10 -131.5 30 -190.5s48.667 -110.5 86 -154.5s82.666 -78.5 135.999 -103.5s113.333 -37.5 180 -37.5zM375 1621c12 29.333 26.5 56.668 43.5 82.001s36.667 47.166 59 65.499
s47.666 33 75.999 44s59.833 16.5 94.5 16.5c34 0 64.5 -4 91.5 -12s52.167 -17 75.5 -27l65.5 -27c20.333 -8 40.5 -12 60.5 -12c16 0 29.833 2.16699 41.5 6.5s22 10.166 31 17.499s17.167 15.666 24.5 24.999l22 29l152 -85c-12 -29.333 -26.333 -56.5 -43 -81.5
s-36.167 -46.667 -58.5 -65s-47.666 -32.833 -75.999 -43.5s-59.833 -16 -94.5 -16c-34 0 -64.667 4 -92 12s-52.5 17 -75.5 27s-44.667 19 -65 27s-40.5 12 -60.5 12c-16 0 -29.833 -2.16699 -41.5 -6.5s-22 -10.166 -31 -17.499s-17.167 -15.666 -24.5 -24.999
s-14.333 -19 -21 -29z" />
    <glyph glyph-name="Odieresis" unicode="&#xd6;" horiz-adv-x="1591" 
d="M793 -25c-113.333 0 -214.166 18.833 -302.499 56.5s-163.166 89.334 -224.499 155.001s-108 143 -140 232s-48 185.167 -48 288.5c0 102.667 16 198.5 48 287.5s78.667 166.167 140 231.5s136.166 116.666 224.499 153.999s189.166 56 302.499 56
c114 0 215.667 -18.667 305 -56s164.666 -88.666 225.999 -153.999s108.166 -142.5 140.499 -231.5s48.5 -184.833 48.5 -287.5c0 -103.333 -16.167 -199.5 -48.5 -288.5s-79.166 -166.333 -140.499 -232s-136.666 -117.334 -225.999 -155.001s-191 -56.5 -305 -56.5z
M794 221c67.333 0 127.833 12.5 181.5 37.5s99.334 59.5 137.001 103.5s66.5 95.5 86.5 154.5s30 122.5 30 190.5s-10 131.333 -30 190s-48.833 109.834 -86.5 153.501s-83.334 77.834 -137.001 102.501s-114.167 37 -181.5 37c-66.667 0 -126.667 -12.333 -180 -37
s-98.666 -58.834 -135.999 -102.501s-66 -94.834 -86 -153.501s-30 -122 -30 -190s10 -131.5 30 -190.5s48.667 -110.5 86 -154.5s82.666 -78.5 135.999 -103.5s113.333 -37.5 180 -37.5zM1031 1527c-22 0 -42.5 4.16699 -61.5 12.5s-35.5 19.833 -49.5 34.5
s-25 31.5 -33 50.5s-12 39.167 -12 60.5c0 20.667 4 40.5 12 59.5s19 35.5 33 49.5s30.167 25.167 48.5 33.5s38.166 12.5 59.499 12.5c22.667 0 43.667 -3.83301 63 -11.5s36.333 -18.5 51 -32.5s26.167 -30.5 34.5 -49.5s12.5 -39.5 12.5 -61.5
c0 -22.667 -4 -43.667 -12 -63s-19.167 -36 -33.5 -50s-31.166 -25 -50.499 -33s-40 -12 -62 -12zM556 1527c-22.667 0 -43.6689 4.16699 -63.002 12.5s-36 19.833 -50 34.5s-25 31.5 -33 50.5s-12 39.167 -12 60.5c0 20.667 4.16699 40.5 12.5 59.5s19.5 35.5 33.5 49.5
s30.333 25.167 49 33.5s38.667 12.5 60 12.5c22 0 42.833 -3.83301 62.5 -11.5s36.834 -18.5 51.501 -32.5s26.167 -30.5 34.5 -49.5s12.5 -39.5 12.5 -61.5c0 -22.667 -4 -43.667 -12 -63s-19.167 -36 -33.5 -50s-31.166 -25 -50.499 -33s-40 -12 -62 -12z" />
    <glyph glyph-name="multiply" unicode="&#xd7;" horiz-adv-x="1087" 
d="M81 284l293 294l-294 293l170 170l292 -293l293 292l169 -169l-292 -293l291 -294l-168 -169l-293 294l-292 -294z" />
    <glyph glyph-name="Oslash" unicode="&#xd8;" horiz-adv-x="1594" 
d="M73 121l134.999 139.003c-42 61.333 -74 129.833 -96 205.5s-33 156.167 -33 241.5c0 102.667 16.167 198.5 48.5 287.5s79.166 166.167 140.499 231.5s136.5 116.666 225.5 153.999s190.167 56 303.5 56c87.333 0 166.833 -11 238.5 -33s136.167 -53 193.5 -93l135 139
l160 -157l-136 -141c42 -61.333 74 -129.333 96 -204s33 -154.667 33 -240c0 -103.333 -16.167 -199.5 -48.5 -288.5s-79.166 -166.333 -140.499 -232s-136.666 -117.334 -225.999 -155.001s-191 -56.5 -305 -56.5c-86.667 -0.666992 -165.667 9.66602 -237 30.999
s-135.333 52 -192 92l-133 -137zM362.999 707.003c0 -87.333 16.333 -166.665 49 -237.998l629 648c-34 23.333 -71.167 41.333 -111.5 54s-84.5 19 -132.5 19c-66.667 0 -126.834 -12.333 -180.501 -37s-99.167 -58.834 -136.5 -102.501s-66.166 -94.834 -86.499 -153.501
s-30.5 -122 -30.5 -190zM796.999 221.004c67.333 0 127.831 12.5 181.498 37.5s99.334 59.5 137.001 103.5s66.667 95.5 87 154.5s30.5 122.5 30.5 190.5c0 43.333 -4.16699 84.666 -12.5 123.999s-20.166 76.333 -35.499 111l-629 -649
c33.333 -23.333 70 -41.166 110 -53.499s83.667 -18.5 131 -18.5z" />
    <glyph glyph-name="Ugrave" unicode="&#xd9;" horiz-adv-x="1444" 
d="M722 -25c-97.333 0 -182.666 13 -255.999 39s-134.833 66 -184.5 120s-87 122.333 -112 205s-37.5 180.667 -37.5 294v778h275v-769c0 -143.333 26.667 -249 80 -317s131.666 -102 234.999 -102s182.166 34 236.499 102s81.5 173.667 81.5 317v769h273v-778
c0 -113.333 -12.667 -211.333 -38 -294s-62.666 -151 -111.999 -205s-111 -94 -185 -120s-159.333 -39 -256 -39zM335 1857h350l228 -333h-253z" />
    <glyph glyph-name="Uacute" unicode="&#xda;" horiz-adv-x="1444" 
d="M722 -25c-97.333 0 -182.666 13 -255.999 39s-134.833 66 -184.5 120s-87 122.333 -112 205s-37.5 180.667 -37.5 294v778h275v-769c0 -143.333 26.667 -249 80 -317s131.666 -102 234.999 -102s182.166 34 236.499 102s81.5 173.667 81.5 317v769h273v-778
c0 -113.333 -12.667 -211.333 -38 -294s-62.666 -151 -111.999 -205s-111 -94 -185 -120s-159.333 -39 -256 -39zM755 1857h348l-324 -333h-251z" />
    <glyph glyph-name="Ucircumflex" unicode="&#xdb;" horiz-adv-x="1444" 
d="M722 -25c-97.333 0 -182.666 13 -255.999 39s-134.833 66 -184.5 120s-87 122.333 -112 205s-37.5 180.667 -37.5 294v778h275v-769c0 -143.333 26.667 -249 80 -317s131.666 -102 234.999 -102s182.166 34 236.499 102s81.5 173.667 81.5 317v769h273v-778
c0 -113.333 -12.667 -211.333 -38 -294s-62.666 -151 -111.999 -205s-111 -94 -185 -120s-159.333 -39 -256 -39zM563 1857h326l247 -334h-260l-153 174l-151 -174h-258z" />
    <glyph glyph-name="Udieresis" unicode="&#xdc;" horiz-adv-x="1444" 
d="M722 -25c-97.333 0 -182.666 13 -255.999 39s-134.833 66 -184.5 120s-87 122.333 -112 205s-37.5 180.667 -37.5 294v778h275v-769c0 -143.333 26.667 -249 80 -317s131.666 -102 234.999 -102s182.166 34 236.499 102s81.5 173.667 81.5 317v769h273v-778
c0 -113.333 -12.667 -211.333 -38 -294s-62.666 -151 -111.999 -205s-111 -94 -185 -120s-159.333 -39 -256 -39zM962 1527c-22 0 -42.5 4.16699 -61.5 12.5s-35.5 19.833 -49.5 34.5s-25 31.5 -33 50.5s-12 39.167 -12 60.5c0 20.667 4 40.5 12 59.5s19 35.5 33 49.5
s30.167 25.167 48.5 33.5s38.166 12.5 59.499 12.5c22.667 0 43.667 -3.83301 63 -11.5s36.333 -18.5 51 -32.5s26.167 -30.5 34.5 -49.5s12.5 -39.5 12.5 -61.5c0 -22.667 -4 -43.667 -12 -63s-19.167 -36 -33.5 -50s-31.166 -25 -50.499 -33s-40 -12 -62 -12zM487 1527
c-22.667 0 -43.6689 4.16699 -63.002 12.5s-36 19.833 -50 34.5s-25 31.5 -33 50.5s-12 39.167 -12 60.5c0 20.667 4.16699 40.5 12.5 59.5s19.5 35.5 33.5 49.5s30.333 25.167 49 33.5s38.667 12.5 60 12.5c22 0 42.833 -3.83301 62.5 -11.5s36.834 -18.5 51.501 -32.5
s26.167 -30.5 34.5 -49.5s12.5 -39.5 12.5 -61.5c0 -22.667 -4 -43.667 -12 -63s-19.167 -36 -33.5 -50s-31.166 -25 -50.499 -33s-40 -12 -62 -12z" />
    <glyph glyph-name="Yacute" unicode="&#xdd;" horiz-adv-x="1414" 
d="M571 569l-560 842h324l379 -576l378 576h309l-556 -841v-570h-274v569zM752 1857h348l-324 -333h-251z" />
    <glyph glyph-name="Thorn" unicode="&#xde;" horiz-adv-x="1308" 
d="M146 1411h276.998v-222h271c94 0 175.333 -10.667 244 -32s125.167 -52 169.5 -92s77.333 -88.667 99 -146s32.5 -122 32.5 -194s-10.833 -136.833 -32.5 -194.5s-54.667 -106.5 -99 -146.5s-100.666 -70.667 -168.999 -92s-149.166 -32 -242.499 -32h-273v-260h-277
v1411zM684.998 498c180 0 270 75 270 225c0 148 -90 222 -270 222h-262v-447h262z" />
    <glyph glyph-name="germandbls" unicode="&#xdf;" horiz-adv-x="1247" 
d="M126 991c0 87.333 12.3311 163.996 36.998 229.996s59.5 121.167 104.5 165.5s99 77.666 162 99.999s132.5 33.5 208.5 33.5c78 0 146.5 -10.667 205.5 -32s108.5 -50.166 148.5 -86.499s70 -79.166 90 -128.499s30 -102 30 -158c0 -33.333 -5 -66 -15 -98
s-24.167 -62 -42.5 -90s-40.166 -53.333 -65.499 -76s-53.333 -41 -84 -55c48 -15.333 89.5 -36.5 124.5 -63.5s64 -57.667 87 -92s40.167 -71.333 51.5 -111s17 -79.5 17 -119.5c0 -56 -9.16699 -110 -27.5 -162s-46.833 -98.333 -85.5 -139s-88.167 -73.167 -148.5 -97.5
s-132.166 -36.5 -215.499 -36.5c-20 0 -41.167 1.16699 -63.5 3.5s-44.5 5.66602 -66.5 9.99902s-43.333 9.83301 -64 16.5s-39.667 14.667 -57 24l65 215c19.333 -12 42.833 -22 70.5 -30s54.5 -12 80.5 -12c76 0 134.667 19.833 176 59.5s62 97.167 62 172.5
c0 36.667 -6.83301 69.834 -20.5 99.501s-32.5 54.834 -56.5 75.501s-52.333 36.667 -85 48s-67.667 17 -105 17h-46v222h44c29.333 0.666992 56 6 80 16s44.667 23.833 62 41.5s30.833 38.834 40.5 63.501s14.5 52.334 14.5 83.001s-5 58 -15 82s-24 44.333 -42 61
s-39.5 29.167 -64.5 37.5s-52.5 12.5 -82.5 12.5c-32 0 -63 -5.66699 -93 -17s-56.667 -28.333 -80 -51s-42 -51 -56 -85s-21 -73.333 -21 -118v-1475h-259v1444z" />
    <glyph glyph-name="agrave" unicode="&#xe0;" horiz-adv-x="1266" 
d="M563 -25c-70.667 0 -136.5 13.999 -197.5 41.999s-113.833 66.667 -158.5 116s-79.667 107.666 -105 174.999s-38 140.333 -38 219s12.833 151.667 38.5 219s60.834 125.833 105.501 175.5s97.334 88.5 158.001 116.5s126.334 42 197.001 42
c64.667 0 124 -12.333 178 -37s99 -57.667 135 -99v115h259v-652c0 -58 1 -108 3 -150s4.33301 -78.5 7 -109.5s5.66699 -58.167 9 -81.5s6.66602 -45.333 9.99902 -66h-268c-1.33301 4 -2.83301 10.167 -4.5 18.5s-3.33398 17.833 -5.00098 28.5
s-3.33398 22.334 -5.00098 35.001s-3.5 25.334 -5.5 38.001c-36 -44 -81.333 -79.167 -136 -105.5s-113.667 -39.5 -177 -39.5zM613 219.999c28 0 55.167 4.00195 81.5 12.002s51 18.833 74 32.5s43.667 30 62 49s33.5 39.5 45.5 61.5v313c-12 21.333 -27.167 41 -45.5 59
s-39 33.667 -62 47s-47.667 23.666 -74 30.999s-53.5 11 -81.5 11c-42 0 -79.667 -8.33301 -113 -25s-61.5 -39.334 -84.5 -68.001s-40.667 -61.667 -53 -99s-18.5 -76.333 -18.5 -117c0 -42 6.33301 -81.667 19 -119s30.667 -69.833 54 -97.5s51.5 -49.667 84.5 -66
s70.167 -24.5 111.5 -24.5zM237 1515h350l227 -334h-251z" />
    <glyph glyph-name="aacute" unicode="&#xe1;" horiz-adv-x="1266" 
d="M563 -25c-70.667 0 -136.5 13.999 -197.5 41.999s-113.833 66.667 -158.5 116s-79.667 107.666 -105 174.999s-38 140.333 -38 219s12.833 151.667 38.5 219s60.834 125.833 105.501 175.5s97.334 88.5 158.001 116.5s126.334 42 197.001 42
c64.667 0 124 -12.333 178 -37s99 -57.667 135 -99v115h259v-652c0 -58 1 -108 3 -150s4.33301 -78.5 7 -109.5s5.66699 -58.167 9 -81.5s6.66602 -45.333 9.99902 -66h-268c-1.33301 4 -2.83301 10.167 -4.5 18.5s-3.33398 17.833 -5.00098 28.5
s-3.33398 22.334 -5.00098 35.001s-3.5 25.334 -5.5 38.001c-36 -44 -81.333 -79.167 -136 -105.5s-113.667 -39.5 -177 -39.5zM613 219.999c28 0 55.167 4.00195 81.5 12.002s51 18.833 74 32.5s43.667 30 62 49s33.5 39.5 45.5 61.5v313c-12 21.333 -27.167 41 -45.5 59
s-39 33.667 -62 47s-47.667 23.666 -74 30.999s-53.5 11 -81.5 11c-42 0 -79.667 -8.33301 -113 -25s-61.5 -39.334 -84.5 -68.001s-40.667 -61.667 -53 -99s-18.5 -76.333 -18.5 -117c0 -42 6.33301 -81.667 19 -119s30.667 -69.833 54 -97.5s51.5 -49.667 84.5 -66
s70.167 -24.5 111.5 -24.5zM661 1515h348l-324 -334h-251z" />
    <glyph glyph-name="acircumflex" unicode="&#xe2;" horiz-adv-x="1266" 
d="M563 -25c-70.667 0 -136.5 13.999 -197.5 41.999s-113.833 66.667 -158.5 116s-79.667 107.666 -105 174.999s-38 140.333 -38 219s12.833 151.667 38.5 219s60.834 125.833 105.501 175.5s97.334 88.5 158.001 116.5s126.334 42 197.001 42
c64.667 0 124 -12.333 178 -37s99 -57.667 135 -99v115h259v-652c0 -58 1 -108 3 -150s4.33301 -78.5 7 -109.5s5.66699 -58.167 9 -81.5s6.66602 -45.333 9.99902 -66h-268c-1.33301 4 -2.83301 10.167 -4.5 18.5s-3.33398 17.833 -5.00098 28.5
s-3.33398 22.334 -5.00098 35.001s-3.5 25.334 -5.5 38.001c-36 -44 -81.333 -79.167 -136 -105.5s-113.667 -39.5 -177 -39.5zM613 219.999c28 0 55.167 4.00195 81.5 12.002s51 18.833 74 32.5s43.667 30 62 49s33.5 39.5 45.5 61.5v313c-12 21.333 -27.167 41 -45.5 59
s-39 33.667 -62 47s-47.667 23.666 -74 30.999s-53.5 11 -81.5 11c-42 0 -79.667 -8.33301 -113 -25s-61.5 -39.334 -84.5 -68.001s-40.667 -61.667 -53 -99s-18.5 -76.333 -18.5 -117c0 -42 6.33301 -81.667 19 -119s30.667 -69.833 54 -97.5s51.5 -49.667 84.5 -66
s70.167 -24.5 111.5 -24.5zM470 1515h326l247 -334h-260l-153 174l-151 -174h-258z" />
    <glyph glyph-name="atilde" unicode="&#xe3;" horiz-adv-x="1266" 
d="M563 -25c-70.667 0 -136.5 13.999 -197.5 41.999s-113.833 66.667 -158.5 116s-79.667 107.666 -105 174.999s-38 140.333 -38 219s12.833 151.667 38.5 219s60.834 125.833 105.501 175.5s97.334 88.5 158.001 116.5s126.334 42 197.001 42
c64.667 0 124 -12.333 178 -37s99 -57.667 135 -99v115h259v-652c0 -58 1 -108 3 -150s4.33301 -78.5 7 -109.5s5.66699 -58.167 9 -81.5s6.66602 -45.333 9.99902 -66h-268c-1.33301 4 -2.83301 10.167 -4.5 18.5s-3.33398 17.833 -5.00098 28.5
s-3.33398 22.334 -5.00098 35.001s-3.5 25.334 -5.5 38.001c-36 -44 -81.333 -79.167 -136 -105.5s-113.667 -39.5 -177 -39.5zM613 219.999c28 0 55.167 4.00195 81.5 12.002s51 18.833 74 32.5s43.667 30 62 49s33.5 39.5 45.5 61.5v313c-12 21.333 -27.167 41 -45.5 59
s-39 33.667 -62 47s-47.667 23.666 -74 30.999s-53.5 11 -81.5 11c-42 0 -79.667 -8.33301 -113 -25s-61.5 -39.334 -84.5 -68.001s-40.667 -61.667 -53 -99s-18.5 -76.333 -18.5 -117c0 -42 6.33301 -81.667 19 -119s30.667 -69.833 54 -97.5s51.5 -49.667 84.5 -66
s70.167 -24.5 111.5 -24.5zM221 1285c12 29.333 26.5 56.668 43.5 82.001s36.667 47.333 59 66s47.666 33.334 75.999 44.001s59.833 16 94.5 16c34 0 64.667 -4 92 -12s52.5 -17 75.5 -27s44.667 -19 65 -27s40.5 -12 60.5 -12c16 0 29.833 2.16699 41.5 6.5
s22 10.166 31 17.499s17.167 15.666 24.5 24.999l22 29l151 -85c-11.333 -29.333 -25.333 -56.5 -42 -81.5s-36.167 -46.833 -58.5 -65.5s-47.5 -33.334 -75.5 -44.001s-59.333 -16 -94 -16s-65.667 4.16699 -93 12.5s-52.666 17.333 -75.999 27l-65.5 27
c-20.333 8.33301 -40.5 12.5 -60.5 12.5c-15.333 0 -28.833 -2.16699 -40.5 -6.5s-22 -10.166 -31 -17.499s-17.167 -15.833 -24.5 -25.5l-22 -29.5z" />
    <glyph glyph-name="adieresis" unicode="&#xe4;" horiz-adv-x="1266" 
d="M563 -25c-70.667 0 -136.5 13.999 -197.5 41.999s-113.833 66.667 -158.5 116s-79.667 107.666 -105 174.999s-38 140.333 -38 219s12.833 151.667 38.5 219s60.834 125.833 105.501 175.5s97.334 88.5 158.001 116.5s126.334 42 197.001 42
c64.667 0 124 -12.333 178 -37s99 -57.667 135 -99v115h259v-652c0 -58 1 -108 3 -150s4.33301 -78.5 7 -109.5s5.66699 -58.167 9 -81.5s6.66602 -45.333 9.99902 -66h-268c-1.33301 4 -2.83301 10.167 -4.5 18.5s-3.33398 17.833 -5.00098 28.5
s-3.33398 22.334 -5.00098 35.001s-3.5 25.334 -5.5 38.001c-36 -44 -81.333 -79.167 -136 -105.5s-113.667 -39.5 -177 -39.5zM613 219.999c28 0 55.167 4.00195 81.5 12.002s51 18.833 74 32.5s43.667 30 62 49s33.5 39.5 45.5 61.5v313c-12 21.333 -27.167 41 -45.5 59
s-39 33.667 -62 47s-47.667 23.666 -74 30.999s-53.5 11 -81.5 11c-42 0 -79.667 -8.33301 -113 -25s-61.5 -39.334 -84.5 -68.001s-40.667 -61.667 -53 -99s-18.5 -76.333 -18.5 -117c0 -42 6.33301 -81.667 19 -119s30.667 -69.833 54 -97.5s51.5 -49.667 84.5 -66
s70.167 -24.5 111.5 -24.5zM868 1192c-22 0 -42.5 4.16699 -61.5 12.5s-35.5 19.833 -49.5 34.5s-25 31.5 -33 50.5s-12 39.167 -12 60.5c0 20.667 4 40.5 12 59.5s19 35.5 33 49.5s30.167 25.167 48.5 33.5s38.166 12.5 59.499 12.5c22.667 0 43.667 -3.83301 63 -11.5
s36.333 -18.5 51 -32.5s26.167 -30.5 34.5 -49.5s12.5 -39.5 12.5 -61.5c0 -22.667 -4 -43.667 -12 -63s-19.167 -36 -33.5 -50s-31.166 -25 -50.499 -33s-40 -12 -62 -12zM393 1192c-22.667 0 -43.6689 4.16699 -63.002 12.5s-36 19.833 -50 34.5s-25 31.5 -33 50.5
s-12 39.167 -12 60.5c0 20.667 4.16699 40.5 12.5 59.5s19.5 35.5 33.5 49.5s30.333 25.167 49 33.5s38.667 12.5 60 12.5c22 0 42.833 -3.83301 62.5 -11.5s36.834 -18.5 51.501 -32.5s26.167 -30.5 34.5 -49.5s12.5 -39.5 12.5 -61.5c0 -22.667 -4 -43.667 -12 -63
s-19.167 -36 -33.5 -50s-31.166 -25 -50.499 -33s-40 -12 -62 -12z" />
    <glyph glyph-name="aring" unicode="&#xe5;" horiz-adv-x="1266" 
d="M563 -25c-70.667 0 -136.5 13.999 -197.5 41.999s-113.833 66.667 -158.5 116s-79.667 107.666 -105 174.999s-38 140.333 -38 219s12.833 151.667 38.5 219s60.834 125.833 105.501 175.5s97.334 88.5 158.001 116.5s126.334 42 197.001 42
c64.667 0 124 -12.333 178 -37s99 -57.667 135 -99v115h259v-652c0 -58 1 -108 3 -150s4.33301 -78.5 7 -109.5s5.66699 -58.167 9 -81.5s6.66602 -45.333 9.99902 -66h-268c-1.33301 4 -2.83301 10.167 -4.5 18.5s-3.33398 17.833 -5.00098 28.5
s-3.33398 22.334 -5.00098 35.001s-3.5 25.334 -5.5 38.001c-36 -44 -81.333 -79.167 -136 -105.5s-113.667 -39.5 -177 -39.5zM613 219.999c28 0 55.167 4.00195 81.5 12.002s51 18.833 74 32.5s43.667 30 62 49s33.5 39.5 45.5 61.5v313c-12 21.333 -27.167 41 -45.5 59
s-39 33.667 -62 47s-47.667 23.666 -74 30.999s-53.5 11 -81.5 11c-42 0 -79.667 -8.33301 -113 -25s-61.5 -39.334 -84.5 -68.001s-40.667 -61.667 -53 -99s-18.5 -76.333 -18.5 -117c0 -42 6.33301 -81.667 19 -119s30.667 -69.833 54 -97.5s51.5 -49.667 84.5 -66
s70.167 -24.5 111.5 -24.5zM634 1159c-39.333 0 -76.333 6.83301 -111 20.5s-64.667 32.667 -90 57s-45.333 53.166 -60 86.499s-22 69.333 -22 108s7.33301 74.5 22 107.5s34.667 61.667 60 86s55.333 43.5 90 57.5s71.667 21 111 21c38.667 0 75 -7 109 -21
s63.667 -33.167 89 -57.5s45.333 -53 60 -86s22 -68.833 22 -107.5s-7.33301 -74.667 -22 -108s-34.667 -62.166 -60 -86.499s-55 -43.333 -89 -57s-70.333 -20.5 -109 -20.5zM634 1310c16 0 31 3 45 9s26 14.5 36 25.5s18 23.833 24 38.5s9 30.334 9 47.001
c0 16 -3 31.5 -9 46.5s-14 28 -24 39s-22 19.833 -36 26.5s-29 10 -45 10c-16.667 0 -32.334 -3.33301 -47.001 -10s-27.334 -15.5 -38.001 -26.5s-19 -24 -25 -39s-9 -30.5 -9 -46.5c0 -16.667 3 -32.334 9 -47.001s14.333 -27.5 25 -38.5s23.334 -19.5 38.001 -25.5
s30.334 -9 47.001 -9z" />
    <glyph glyph-name="ae" unicode="&#xe6;" horiz-adv-x="1852" 
d="M454 -23c-62 0 -117.991 7.33105 -167.991 21.998s-92.333 35.5 -127 62.5s-61.334 59.833 -80.001 98.5s-28 82 -28 130c0 50 9 93.333 27 130s43.333 67.667 76 93s71.667 45.666 117 60.999s95.666 26 150.999 32c23.333 3.33301 48.666 6.33301 75.999 9
s55.5 5 84.5 7l88.5 6c30 2 59 3.66699 87 5c-5.33301 72 -27.833 127.333 -67.5 166s-96.834 58 -171.501 58c-30.667 0 -60.334 -3.5 -89.001 -10.5s-56 -16 -82 -27s-50.333 -23.167 -73 -36.5s-43 -26.666 -61 -39.999l-97 206c25.333 16.667 53.666 33 84.999 49
s64.833 30 100.5 42s73.167 21.667 112.5 29s79.666 11 120.999 11c42 0 82.333 -4 121 -12s74.334 -19.5 107.001 -34.5s61.667 -33.5 87 -55.5s45.666 -46.667 60.999 -74c47.333 56.667 103 100.167 167 130.5s137.667 45.5 221 45.5c76 0 144.167 -13.167 204.5 -39.5
s111.666 -62.666 153.999 -108.999s74.833 -101.5 97.5 -165.5s34 -134 34 -210c0 -15.333 -0.166992 -30.333 -0.5 -45s-1.16602 -26 -2.49902 -34l-728 -57c7.33301 -32 18.333 -61.667 33 -89s33 -51 55 -71s47.833 -35.5 77.5 -46.5s63.167 -16.5 100.5 -16.5
c50 0 100.167 10 150.5 30s96.166 51 137.499 93l156 -160c-56 -60.667 -124.333 -106.667 -205 -138s-167 -47 -259 -47c-90 0 -167.333 14 -232 42s-120.334 69.667 -167.001 125c-59.333 -55.333 -127.5 -96.666 -204.5 -123.999s-159.5 -41 -247.5 -41zM506.009 184.998
c28 0 56.3311 3.16699 84.998 9.5s56.5 15 83.5 26s52.333 24.167 76 39.5s44.834 32 63.501 50c-3.33301 8 -6.33301 17.667 -9 29l-8.5 36.5c-3 13 -5.66699 26.5 -8 40.5s-4.5 27.667 -6.5 41c-17.333 -1.33301 -38.5 -2.83301 -63.5 -4.5s-51 -3.5 -78 -5.5
s-53.667 -4.16699 -80 -6.5s-48.833 -4.83301 -67.5 -7.5c-31.333 -4 -57.666 -10 -78.999 -18s-38.5 -17.333 -51.5 -28s-22.333 -22.5 -28 -35.5s-8.5 -26.5 -8.5 -40.5c0 -20 4.5 -37.667 13.5 -53s21.5 -28.5 37.5 -39.5s35 -19.333 57 -25s46 -8.5 72 -8.5z
M1532.01 626.998c-1.33301 34.667 -7.66699 66.5 -19 95.5s-27 54 -47 75s-44 37.5 -72 49.5s-59.667 18 -95 18c-30 0 -59.833 -6 -89.5 -18s-56.667 -29.667 -81 -53s-44.333 -52 -60 -86s-24.167 -73.333 -25.5 -118z" />
    <glyph glyph-name="ccedilla" unicode="&#xe7;" horiz-adv-x="1069" 
d="M529 -485c-74 0 -141.001 14.665 -201.001 43.998l50 129c14.667 -5.33301 31 -10 49 -14s36.333 -6 55 -6c32 0 58.5 6.5 79.5 19.5s31.833 33.167 32.5 60.5c0 18.667 -4.83301 33.834 -14.5 45.501s-22.167 21 -37.5 28s-32.666 11.833 -51.999 14.5
s-38.666 4.33398 -57.999 5.00098l52 146c-64 12 -121.833 33.833 -173.5 65.5s-95.834 71 -132.501 118s-64.834 100.833 -84.501 161.5s-29.5 126.334 -29.5 197.001c0 80.667 13 154.667 39 222s62.667 125.333 110 174s104.166 86.667 170.499 114
s140.166 41 221.499 41c41.333 0 82.333 -4.33301 123 -13s79.667 -21.334 117 -38.001s72.5 -37 105.5 -61s62.5 -51.333 88.5 -82l-190 -158c-30 33.333 -65.5 59.666 -106.5 78.999s-85.5 29 -133.5 29c-40 0 -76.333 -8.33301 -109 -25s-60.667 -39 -84 -67
s-41.333 -60.5 -54 -97.5s-19 -76.167 -19 -117.5s6.33301 -80.666 19 -117.999s30.667 -70 54 -98s51.5 -50.333 84.5 -67s69.5 -25 109.5 -25c48 0 92.333 10.333 133 31s77.334 46.334 110.001 77.001l186 -157c-24 -28 -50.667 -53.333 -80 -76
s-60.666 -42.334 -93.999 -59.001s-68 -30.167 -104 -40.5s-72.667 -16.833 -110 -19.5l-22 -52c54.667 -10.667 97.834 -32.834 129.501 -66.501s47.5 -75.167 47.5 -124.5c0 -33.333 -6.33301 -63.333 -19 -90s-31 -49.667 -55 -69s-53.167 -34.166 -87.5 -44.499
s-72.833 -15.5 -115.5 -15.5z" />
    <glyph glyph-name="egrave" unicode="&#xe8;" horiz-adv-x="1161" 
d="M606 -25c-82.667 0 -157.501 13.666 -224.501 40.999s-124 65.5 -171 114.5s-83.167 107.5 -108.5 175.5s-38 142.667 -38 224c0 80.667 12.667 154.834 38 222.501s61.5 125.667 108.5 174s103.333 86 169 113s139.167 40.5 220.5 40.5
c70.667 0 136.334 -11.833 197.001 -35.5s113.167 -58 157.5 -103s79 -99.833 104 -164.5s37.833 -138 38.5 -220c0 -22.667 -0.166992 -40.667 -0.5 -54s-0.833008 -22 -1.5 -26l-737 -60c6.66699 -31.333 17.5 -60.333 32.5 -87s33.667 -49.667 56 -69
s48.5 -34.333 78.5 -45s64 -16 102 -16c51.333 0 101.5 9.83301 150.5 29.5s94.5 50.5 136.5 92.5l162 -162c-58.667 -60.667 -128.167 -106.667 -208.5 -138s-167.5 -47 -261.5 -47zM827.999 626.999c-2 33.333 -8.83203 64.3311 -20.499 92.998s-27.5 53.334 -47.5 74.001
s-44 36.834 -72 48.501s-59.333 17.5 -94 17.5c-29.333 0 -58.5 -5.66699 -87.5 -17s-55.167 -28.5 -78.5 -51.5s-42.833 -51.5 -58.5 -85.5s-24.834 -74 -27.501 -120zM221 1515h350l227 -334h-251z" />
    <glyph glyph-name="eacute" unicode="&#xe9;" horiz-adv-x="1161" 
d="M606 -25c-82.667 0 -157.501 13.666 -224.501 40.999s-124 65.5 -171 114.5s-83.167 107.5 -108.5 175.5s-38 142.667 -38 224c0 80.667 12.667 154.834 38 222.501s61.5 125.667 108.5 174s103.333 86 169 113s139.167 40.5 220.5 40.5
c70.667 0 136.334 -11.833 197.001 -35.5s113.167 -58 157.5 -103s79 -99.833 104 -164.5s37.833 -138 38.5 -220c0 -22.667 -0.166992 -40.667 -0.5 -54s-0.833008 -22 -1.5 -26l-737 -60c6.66699 -31.333 17.5 -60.333 32.5 -87s33.667 -49.667 56 -69
s48.5 -34.333 78.5 -45s64 -16 102 -16c51.333 0 101.5 9.83301 150.5 29.5s94.5 50.5 136.5 92.5l162 -162c-58.667 -60.667 -128.167 -106.667 -208.5 -138s-167.5 -47 -261.5 -47zM827.999 626.999c-2 33.333 -8.83203 64.3311 -20.499 92.998s-27.5 53.334 -47.5 74.001
s-44 36.834 -72 48.501s-59.333 17.5 -94 17.5c-29.333 0 -58.5 -5.66699 -87.5 -17s-55.167 -28.5 -78.5 -51.5s-42.833 -51.5 -58.5 -85.5s-24.834 -74 -27.501 -120zM619 1515h348l-324 -334h-251z" />
    <glyph glyph-name="ecircumflex" unicode="&#xea;" horiz-adv-x="1161" 
d="M606 -25c-82.667 0 -157.501 13.666 -224.501 40.999s-124 65.5 -171 114.5s-83.167 107.5 -108.5 175.5s-38 142.667 -38 224c0 80.667 12.667 154.834 38 222.501s61.5 125.667 108.5 174s103.333 86 169 113s139.167 40.5 220.5 40.5
c70.667 0 136.334 -11.833 197.001 -35.5s113.167 -58 157.5 -103s79 -99.833 104 -164.5s37.833 -138 38.5 -220c0 -22.667 -0.166992 -40.667 -0.5 -54s-0.833008 -22 -1.5 -26l-737 -60c6.66699 -31.333 17.5 -60.333 32.5 -87s33.667 -49.667 56 -69
s48.5 -34.333 78.5 -45s64 -16 102 -16c51.333 0 101.5 9.83301 150.5 29.5s94.5 50.5 136.5 92.5l162 -162c-58.667 -60.667 -128.167 -106.667 -208.5 -138s-167.5 -47 -261.5 -47zM827.999 626.999c-2 33.333 -8.83203 64.3311 -20.499 92.998s-27.5 53.334 -47.5 74.001
s-44 36.834 -72 48.501s-59.333 17.5 -94 17.5c-29.333 0 -58.5 -5.66699 -87.5 -17s-55.167 -28.5 -78.5 -51.5s-42.833 -51.5 -58.5 -85.5s-24.834 -74 -27.501 -120zM428 1515h326l247 -334h-260l-153 174l-151 -174h-258z" />
    <glyph glyph-name="edieresis" unicode="&#xeb;" horiz-adv-x="1161" 
d="M606 -25c-82.667 0 -157.501 13.666 -224.501 40.999s-124 65.5 -171 114.5s-83.167 107.5 -108.5 175.5s-38 142.667 -38 224c0 80.667 12.667 154.834 38 222.501s61.5 125.667 108.5 174s103.333 86 169 113s139.167 40.5 220.5 40.5
c70.667 0 136.334 -11.833 197.001 -35.5s113.167 -58 157.5 -103s79 -99.833 104 -164.5s37.833 -138 38.5 -220c0 -22.667 -0.166992 -40.667 -0.5 -54s-0.833008 -22 -1.5 -26l-737 -60c6.66699 -31.333 17.5 -60.333 32.5 -87s33.667 -49.667 56 -69
s48.5 -34.333 78.5 -45s64 -16 102 -16c51.333 0 101.5 9.83301 150.5 29.5s94.5 50.5 136.5 92.5l162 -162c-58.667 -60.667 -128.167 -106.667 -208.5 -138s-167.5 -47 -261.5 -47zM827.999 626.999c-2 33.333 -8.83203 64.3311 -20.499 92.998s-27.5 53.334 -47.5 74.001
s-44 36.834 -72 48.501s-59.333 17.5 -94 17.5c-29.333 0 -58.5 -5.66699 -87.5 -17s-55.167 -28.5 -78.5 -51.5s-42.833 -51.5 -58.5 -85.5s-24.834 -74 -27.501 -120zM822 1192c-22 0 -42.5 4.16699 -61.5 12.5s-35.5 19.833 -49.5 34.5s-25 31.5 -33 50.5
s-12 39.167 -12 60.5c0 20.667 4 40.5 12 59.5s19 35.5 33 49.5s30.167 25.167 48.5 33.5s38.166 12.5 59.499 12.5c22.667 0 43.667 -3.83301 63 -11.5s36.333 -18.5 51 -32.5s26.167 -30.5 34.5 -49.5s12.5 -39.5 12.5 -61.5c0 -22.667 -4 -43.667 -12 -63
s-19.167 -36 -33.5 -50s-31.166 -25 -50.499 -33s-40 -12 -62 -12zM347 1192c-22.667 0 -43.6689 4.16699 -63.002 12.5s-36 19.833 -50 34.5s-25 31.5 -33 50.5s-12 39.167 -12 60.5c0 20.667 4.16699 40.5 12.5 59.5s19.5 35.5 33.5 49.5s30.333 25.167 49 33.5
s38.667 12.5 60 12.5c22 0 42.833 -3.83301 62.5 -11.5s36.834 -18.5 51.501 -32.5s26.167 -30.5 34.5 -49.5s12.5 -39.5 12.5 -61.5c0 -22.667 -4 -43.667 -12 -63s-19.167 -36 -33.5 -50s-31.166 -25 -50.499 -33s-40 -12 -62 -12z" />
    <glyph glyph-name="igrave" unicode="&#xec;" horiz-adv-x="512" 
d="M126 1059h259v-1059h-259v1059zM-142 1515h350l227 -334h-251z" />
    <glyph glyph-name="iacute" unicode="&#xed;" horiz-adv-x="512" 
d="M126 1059h259v-1059h-259v1059zM299 1515h348l-324 -334h-251z" />
    <glyph glyph-name="icircumflex" unicode="&#xee;" horiz-adv-x="512" 
d="M126 1059h259v-1059h-259v1059zM93 1515h326l247 -334h-260l-153 174l-151 -174h-258z" />
    <glyph glyph-name="idieresis" unicode="&#xef;" horiz-adv-x="512" 
d="M126 1059h259v-1059h-259v1059zM493 1192c-22 0 -42.5 4.16699 -61.5 12.5s-35.5 19.833 -49.5 34.5s-25 31.5 -33 50.5s-12 39.167 -12 60.5c0 20.667 4 40.5 12 59.5s19 35.5 33 49.5s30.167 25.167 48.5 33.5s38.166 12.5 59.499 12.5
c22.667 0 43.667 -3.83301 63 -11.5s36.333 -18.5 51 -32.5s26.167 -30.5 34.5 -49.5s12.5 -39.5 12.5 -61.5c0 -22.667 -4 -43.667 -12 -63s-19.167 -36 -33.5 -50s-31.166 -25 -50.499 -33s-40 -12 -62 -12zM18 1192c-22.667 0 -43.6689 4.16699 -63.002 12.5
s-36 19.833 -50 34.5s-25 31.5 -33 50.5s-12 39.167 -12 60.5c0 20.667 4.16699 40.5 12.5 59.5s19.5 35.5 33.5 49.5s30.333 25.167 49 33.5s38.667 12.5 60 12.5c22 0 42.833 -3.83301 62.5 -11.5s36.834 -18.5 51.501 -32.5s26.167 -30.5 34.5 -49.5
s12.5 -39.5 12.5 -61.5c0 -22.667 -4 -43.667 -12 -63s-19.167 -36 -33.5 -50s-31.166 -25 -50.499 -33s-40 -12 -62 -12z" />
    <glyph glyph-name="eth" unicode="&#xf0;" horiz-adv-x="1182" 
d="M305 1159l158.997 99.001l-76.5 52l-79.5 51l152 160c36.667 -18.667 72.834 -39.5 108.501 -62.5s69.834 -47.167 102.501 -72.5l215 133l95 -151l-171 -108c46 -48.667 87.667 -100.834 125 -156.501s69.166 -114 95.499 -175s46.666 -124.5 60.999 -190.5
s21.5 -133.333 21.5 -202c0 -75.333 -10.167 -146.833 -30.5 -214.5s-51.666 -127.167 -93.999 -178.5s-96.333 -92.166 -162 -122.499s-143.5 -45.5 -233.5 -45.5c-76 0 -146.333 12.167 -211 36.5s-120.667 58.5 -168 102.5s-84.5 96.5 -111.5 157.5
s-40.5 128.167 -40.5 201.5c0 52.667 6.5 101.334 19.5 146.001s30.5 85 52.5 121s47.833 67.667 77.5 95s61.334 50.166 95.001 68.499s68.334 32.166 104.001 41.499s70.5 14 104.5 14c62 0 117.667 -10 167 -30s91 -47.667 125 -83c-18.667 54 -44.667 104.667 -78 152
s-72.333 93 -117 137l-208 -131zM586.997 215.001c37.333 0 71.168 6.66504 101.501 19.998s56.333 31.5 78 54.5s38.334 50.167 50.001 81.5s17.5 65.333 17.5 102s-6 70.667 -18 102s-29 58.5 -51 81.5s-48.333 41 -79 54s-65 19.5 -103 19.5
c-36.667 -0.666992 -69.834 -7.5 -99.501 -20.5s-54.834 -31 -75.501 -54s-36.667 -50 -48 -81s-17 -64.833 -17 -101.5c0 -36 5.83301 -69.833 17.5 -101.5s28.167 -59.167 49.5 -82.5s47 -41.666 77 -54.999s63.333 -19.666 100 -18.999z" />
    <glyph glyph-name="ntilde" unicode="&#xf1;" horiz-adv-x="1217" 
d="M126 1059l258.999 -0.00195312v-135c20 26.667 42.333 49.834 67 69.501s51 35.834 79 48.501s56.833 22.167 86.5 28.5s59.167 9.5 88.5 9.5c128.667 0 226.834 -38.333 294.501 -115s101.5 -192 101.5 -346v-619h-259v566c0 48.667 -5.33301 90 -16 124
s-25.5 61.667 -44.5 83s-41.833 37 -68.5 47s-56.334 15 -89.001 15c-27.333 0 -53.666 -4.33301 -78.999 -13s-48.5 -20.667 -69.5 -36s-39.5 -33.5 -55.5 -54.5s-28 -43.833 -36 -68.5v-663h-259v1059zM200.999 1285c12 29.333 26.5 56.668 43.5 82.001
s36.667 47.333 59 66s47.666 33.334 75.999 44.001s59.833 16 94.5 16c34 0 64.667 -4 92 -12s52.5 -17 75.5 -27s44.667 -19 65 -27s40.5 -12 60.5 -12c16 0 29.833 2.16699 41.5 6.5s22 10.166 31 17.499s17.167 15.666 24.5 24.999l22 29l151 -85
c-11.333 -29.333 -25.333 -56.5 -42 -81.5s-36.167 -46.833 -58.5 -65.5s-47.5 -33.334 -75.5 -44.001s-59.333 -16 -94 -16s-65.667 4.16699 -93 12.5s-52.666 17.333 -75.999 27l-65.5 27c-20.333 8.33301 -40.5 12.5 -60.5 12.5c-15.333 0 -28.833 -2.16699 -40.5 -6.5
s-22 -10.166 -31 -17.499s-17.167 -15.833 -24.5 -25.5l-22 -29.5z" />
    <glyph glyph-name="ograve" unicode="&#xf2;" horiz-adv-x="1228" 
d="M615 -25c-81.333 0 -155.666 13.833 -222.999 41.5s-125.5 66.167 -174.5 115.5s-87 107.833 -114 175.5s-40.5 141.5 -40.5 221.5c0 79.333 13.5 152.666 40.5 219.999s65 125.5 114 174.5s107.167 87.333 174.5 115s141.666 41.5 222.999 41.5
c80.667 0 154.667 -13.833 222 -41.5s125.166 -66 173.499 -115s86 -107.167 113 -174.5s40.5 -140.666 40.5 -219.999c0 -80 -13.5 -153.833 -40.5 -221.5s-64.667 -126.167 -113 -175.5s-106.166 -87.833 -173.499 -115.5s-141.333 -41.5 -222 -41.5zM615 217
c38.667 0 74.5 7.66699 107.5 23s61.5 36.833 85.5 64.5s42.833 60.5 56.5 98.5s20.5 79.667 20.5 125c0 44 -6.83301 84.833 -20.5 122.5s-32.5 70.5 -56.5 98.5s-52.5 49.833 -85.5 65.5s-68.833 23.5 -107.5 23.5s-74.667 -7.83301 -108 -23.5
s-62.166 -37.5 -86.499 -65.5s-43.333 -60.833 -57 -98.5s-20.5 -78.5 -20.5 -122.5c0 -45.333 6.83301 -87 20.5 -125s32.667 -70.833 57 -98.5s53.166 -49.167 86.499 -64.5s69.333 -23 108 -23zM246 1515h350l227 -334h-251z" />
    <glyph glyph-name="oacute" unicode="&#xf3;" horiz-adv-x="1228" 
d="M615 -25c-81.333 0 -155.666 13.833 -222.999 41.5s-125.5 66.167 -174.5 115.5s-87 107.833 -114 175.5s-40.5 141.5 -40.5 221.5c0 79.333 13.5 152.666 40.5 219.999s65 125.5 114 174.5s107.167 87.333 174.5 115s141.666 41.5 222.999 41.5
c80.667 0 154.667 -13.833 222 -41.5s125.166 -66 173.499 -115s86 -107.167 113 -174.5s40.5 -140.666 40.5 -219.999c0 -80 -13.5 -153.833 -40.5 -221.5s-64.667 -126.167 -113 -175.5s-106.166 -87.833 -173.499 -115.5s-141.333 -41.5 -222 -41.5zM615 217
c38.667 0 74.5 7.66699 107.5 23s61.5 36.833 85.5 64.5s42.833 60.5 56.5 98.5s20.5 79.667 20.5 125c0 44 -6.83301 84.833 -20.5 122.5s-32.5 70.5 -56.5 98.5s-52.5 49.833 -85.5 65.5s-68.833 23.5 -107.5 23.5s-74.667 -7.83301 -108 -23.5
s-62.166 -37.5 -86.499 -65.5s-43.333 -60.833 -57 -98.5s-20.5 -78.5 -20.5 -122.5c0 -45.333 6.83301 -87 20.5 -125s32.667 -70.833 57 -98.5s53.166 -49.167 86.499 -64.5s69.333 -23 108 -23zM636 1515h348l-324 -334h-251z" />
    <glyph glyph-name="ocircumflex" unicode="&#xf4;" horiz-adv-x="1228" 
d="M615 -25c-81.333 0 -155.666 13.833 -222.999 41.5s-125.5 66.167 -174.5 115.5s-87 107.833 -114 175.5s-40.5 141.5 -40.5 221.5c0 79.333 13.5 152.666 40.5 219.999s65 125.5 114 174.5s107.167 87.333 174.5 115s141.666 41.5 222.999 41.5
c80.667 0 154.667 -13.833 222 -41.5s125.166 -66 173.499 -115s86 -107.167 113 -174.5s40.5 -140.666 40.5 -219.999c0 -80 -13.5 -153.833 -40.5 -221.5s-64.667 -126.167 -113 -175.5s-106.166 -87.833 -173.499 -115.5s-141.333 -41.5 -222 -41.5zM615 217
c38.667 0 74.5 7.66699 107.5 23s61.5 36.833 85.5 64.5s42.833 60.5 56.5 98.5s20.5 79.667 20.5 125c0 44 -6.83301 84.833 -20.5 122.5s-32.5 70.5 -56.5 98.5s-52.5 49.833 -85.5 65.5s-68.833 23.5 -107.5 23.5s-74.667 -7.83301 -108 -23.5
s-62.166 -37.5 -86.499 -65.5s-43.333 -60.833 -57 -98.5s-20.5 -78.5 -20.5 -122.5c0 -45.333 6.83301 -87 20.5 -125s32.667 -70.833 57 -98.5s53.166 -49.167 86.499 -64.5s69.333 -23 108 -23zM453 1515h326l247 -334h-260l-153 174l-151 -174h-258z" />
    <glyph glyph-name="otilde" unicode="&#xf5;" horiz-adv-x="1228" 
d="M615 -25c-81.333 0 -155.666 13.833 -222.999 41.5s-125.5 66.167 -174.5 115.5s-87 107.833 -114 175.5s-40.5 141.5 -40.5 221.5c0 79.333 13.5 152.666 40.5 219.999s65 125.5 114 174.5s107.167 87.333 174.5 115s141.666 41.5 222.999 41.5
c80.667 0 154.667 -13.833 222 -41.5s125.166 -66 173.499 -115s86 -107.167 113 -174.5s40.5 -140.666 40.5 -219.999c0 -80 -13.5 -153.833 -40.5 -221.5s-64.667 -126.167 -113 -175.5s-106.166 -87.833 -173.499 -115.5s-141.333 -41.5 -222 -41.5zM615 217
c38.667 0 74.5 7.66699 107.5 23s61.5 36.833 85.5 64.5s42.833 60.5 56.5 98.5s20.5 79.667 20.5 125c0 44 -6.83301 84.833 -20.5 122.5s-32.5 70.5 -56.5 98.5s-52.5 49.833 -85.5 65.5s-68.833 23.5 -107.5 23.5s-74.667 -7.83301 -108 -23.5
s-62.166 -37.5 -86.499 -65.5s-43.333 -60.833 -57 -98.5s-20.5 -78.5 -20.5 -122.5c0 -45.333 6.83301 -87 20.5 -125s32.667 -70.833 57 -98.5s53.166 -49.167 86.499 -64.5s69.333 -23 108 -23zM199 1285c12 29.333 26.5 56.668 43.5 82.001s36.667 47.333 59 66
s47.666 33.334 75.999 44.001s59.833 16 94.5 16c34 0 64.667 -4 92 -12s52.5 -17 75.5 -27s44.667 -19 65 -27s40.5 -12 60.5 -12c16 0 29.833 2.16699 41.5 6.5s22 10.166 31 17.499s17.167 15.666 24.5 24.999l22 29l151 -85c-11.333 -29.333 -25.333 -56.5 -42 -81.5
s-36.167 -46.833 -58.5 -65.5s-47.5 -33.334 -75.5 -44.001s-59.333 -16 -94 -16s-65.667 4.16699 -93 12.5s-52.666 17.333 -75.999 27l-65.5 27c-20.333 8.33301 -40.5 12.5 -60.5 12.5c-15.333 0 -28.833 -2.16699 -40.5 -6.5s-22 -10.166 -31 -17.499
s-17.167 -15.833 -24.5 -25.5l-22 -29.5z" />
    <glyph glyph-name="odieresis" unicode="&#xf6;" horiz-adv-x="1228" 
d="M615 -25c-81.333 0 -155.666 13.833 -222.999 41.5s-125.5 66.167 -174.5 115.5s-87 107.833 -114 175.5s-40.5 141.5 -40.5 221.5c0 79.333 13.5 152.666 40.5 219.999s65 125.5 114 174.5s107.167 87.333 174.5 115s141.666 41.5 222.999 41.5
c80.667 0 154.667 -13.833 222 -41.5s125.166 -66 173.499 -115s86 -107.167 113 -174.5s40.5 -140.666 40.5 -219.999c0 -80 -13.5 -153.833 -40.5 -221.5s-64.667 -126.167 -113 -175.5s-106.166 -87.833 -173.499 -115.5s-141.333 -41.5 -222 -41.5zM615 217
c38.667 0 74.5 7.66699 107.5 23s61.5 36.833 85.5 64.5s42.833 60.5 56.5 98.5s20.5 79.667 20.5 125c0 44 -6.83301 84.833 -20.5 122.5s-32.5 70.5 -56.5 98.5s-52.5 49.833 -85.5 65.5s-68.833 23.5 -107.5 23.5s-74.667 -7.83301 -108 -23.5
s-62.166 -37.5 -86.499 -65.5s-43.333 -60.833 -57 -98.5s-20.5 -78.5 -20.5 -122.5c0 -45.333 6.83301 -87 20.5 -125s32.667 -70.833 57 -98.5s53.166 -49.167 86.499 -64.5s69.333 -23 108 -23zM850 1192c-22 0 -42.5 4.16699 -61.5 12.5s-35.5 19.833 -49.5 34.5
s-25 31.5 -33 50.5s-12 39.167 -12 60.5c0 20.667 4 40.5 12 59.5s19 35.5 33 49.5s30.167 25.167 48.5 33.5s38.166 12.5 59.499 12.5c22.667 0 43.667 -3.83301 63 -11.5s36.333 -18.5 51 -32.5s26.167 -30.5 34.5 -49.5s12.5 -39.5 12.5 -61.5
c0 -22.667 -4 -43.667 -12 -63s-19.167 -36 -33.5 -50s-31.166 -25 -50.499 -33s-40 -12 -62 -12zM375 1192c-22.667 0 -43.6689 4.16699 -63.002 12.5s-36 19.833 -50 34.5s-25 31.5 -33 50.5s-12 39.167 -12 60.5c0 20.667 4.16699 40.5 12.5 59.5s19.5 35.5 33.5 49.5
s30.333 25.167 49 33.5s38.667 12.5 60 12.5c22 0 42.833 -3.83301 62.5 -11.5s36.834 -18.5 51.501 -32.5s26.167 -30.5 34.5 -49.5s12.5 -39.5 12.5 -61.5c0 -22.667 -4 -43.667 -12 -63s-19.167 -36 -33.5 -50s-31.166 -25 -50.499 -33s-40 -12 -62 -12z" />
    <glyph glyph-name="divide" unicode="&#xf7;" horiz-adv-x="1095" 
d="M85 695h925v-234h-925v234zM548 20c-22 0 -42.667 4.33301 -62 13s-36.333 20.334 -51 35.001s-26.167 31.834 -34.5 51.501s-12.5 40.5 -12.5 62.5s4.16699 42.667 12.5 62s19.833 36.166 34.5 50.499s31.667 25.833 51 34.5s40 13 62 13s42.833 -4.33301 62.5 -13
s36.834 -20.167 51.501 -34.5s26.334 -31.166 35.001 -50.499s13 -40 13 -62s-4.33301 -42.833 -13 -62.5s-20.334 -36.834 -35.001 -51.501s-31.834 -26.334 -51.501 -35.001s-40.5 -13 -62.5 -13zM548 815c-22 0 -42.667 4.33301 -62 13s-36.333 20.167 -51 34.5
s-26.167 31.166 -34.5 50.499s-12.5 40 -12.5 62s4.16699 42.833 12.5 62.5s19.833 36.667 34.5 51s31.667 25.666 51 33.999s40 12.5 62 12.5s42.833 -4.16699 62.5 -12.5s36.834 -19.666 51.501 -33.999s26.334 -31.333 35.001 -51s13 -40.5 13 -62.5
s-4.33301 -42.667 -13 -62s-20.334 -36.166 -35.001 -50.499s-31.834 -25.833 -51.501 -34.5s-40.5 -13 -62.5 -13z" />
    <glyph glyph-name="oslash" unicode="&#xf8;" horiz-adv-x="1243" 
d="M54 89l112.003 115.003c-30 45.333 -53.167 95.333 -69.5 150s-24.5 113 -24.5 175c0 79.333 13.5 152.666 40.5 219.999s64.667 125.5 113 174.5s106.166 87.333 173.499 115s141.333 41.5 222 41.5c60.667 0 117.667 -8 171 -24s100 -37.667 140 -65l115 118l145 -140
l-116 -118c32 -44.667 56 -94.334 72 -149.001s24 -112.334 24 -173.001c0 -80 -13.5 -153.833 -40.5 -221.5s-64.833 -126.167 -113.5 -175.5s-106.834 -87.833 -174.501 -115.5s-141.834 -41.5 -222.501 -41.5c-58.667 0 -114 7.83301 -166 23.5s-99.333 37.5 -142 65.5
l-116 -117zM628.003 207.003c39.333 0 76 7.83398 110 23.501s63.5 37.5 88.5 65.5s44.5 61.333 58.5 100s21 81 21 127c0 23.333 -2 45.666 -6 66.999s-10.333 43 -19 65l-395 -402c20 -14.667 41.667 -26 65 -34s49 -12 77 -12zM757.003 800.004
c-20.667 15.333 -43 27 -67 35s-49.333 12 -76 12c-39.333 0 -76 -8 -110 -24s-63.5 -38.167 -88.5 -66.5s-44.667 -61.833 -59 -100.5s-21.5 -80.334 -21.5 -125.001c0 -22.667 1.83301 -45.167 5.5 -67.5s10.167 -44.166 19.5 -65.499z" />
    <glyph glyph-name="ugrave" unicode="&#xf9;" horiz-adv-x="1222" 
d="M511 -25c-61.333 0 -116.334 9.16895 -165.001 27.502s-90 45.666 -124 81.999s-60.167 81.833 -78.5 136.5s-27.5 118.667 -27.5 192v646h259v-574c0 -92 18.5 -159 55.5 -201s87.167 -63 150.5 -63c26 0 52 4.33301 78 13s50.333 20.667 73 36
s42.834 33.666 60.501 54.999s31.167 45 40.5 71v663h259v-651c0 -58.667 0.833008 -109.167 2.5 -151.5s3.66699 -79.333 6 -111s5 -59 8 -82s6.16699 -44.167 9.5 -63.5h-263c-4.66699 12.667 -8.66699 29.667 -12 51s-6 45.333 -8 72c-20 -26 -42.5 -48.333 -67.5 -67
s-51.5 -34 -79.5 -46s-57 -20.833 -87 -26.5s-60 -8.5 -90 -8.5zM261.999 1515h350l227 -334h-251z" />
    <glyph glyph-name="uacute" unicode="&#xfa;" horiz-adv-x="1222" 
d="M511 -25c-61.333 0 -116.334 9.16895 -165.001 27.502s-90 45.666 -124 81.999s-60.167 81.833 -78.5 136.5s-27.5 118.667 -27.5 192v646h259v-574c0 -92 18.5 -159 55.5 -201s87.167 -63 150.5 -63c26 0 52 4.33301 78 13s50.333 20.667 73 36
s42.834 33.666 60.501 54.999s31.167 45 40.5 71v663h259v-651c0 -58.667 0.833008 -109.167 2.5 -151.5s3.66699 -79.333 6 -111s5 -59 8 -82s6.16699 -44.167 9.5 -63.5h-263c-4.66699 12.667 -8.66699 29.667 -12 51s-6 45.333 -8 72c-20 -26 -42.5 -48.333 -67.5 -67
s-51.5 -34 -79.5 -46s-57 -20.833 -87 -26.5s-60 -8.5 -90 -8.5zM653.999 1515h348l-324 -334h-251z" />
    <glyph glyph-name="ucircumflex" unicode="&#xfb;" horiz-adv-x="1222" 
d="M511 -25c-61.333 0 -116.334 9.16895 -165.001 27.502s-90 45.666 -124 81.999s-60.167 81.833 -78.5 136.5s-27.5 118.667 -27.5 192v646h259v-574c0 -92 18.5 -159 55.5 -201s87.167 -63 150.5 -63c26 0 52 4.33301 78 13s50.333 20.667 73 36
s42.834 33.666 60.501 54.999s31.167 45 40.5 71v663h259v-651c0 -58.667 0.833008 -109.167 2.5 -151.5s3.66699 -79.333 6 -111s5 -59 8 -82s6.16699 -44.167 9.5 -63.5h-263c-4.66699 12.667 -8.66699 29.667 -12 51s-6 45.333 -8 72c-20 -26 -42.5 -48.333 -67.5 -67
s-51.5 -34 -79.5 -46s-57 -20.833 -87 -26.5s-60 -8.5 -90 -8.5zM446.999 1515h326l247 -334h-260l-153 174l-151 -174h-258z" />
    <glyph glyph-name="udieresis" unicode="&#xfc;" horiz-adv-x="1222" 
d="M511 -25c-61.333 0 -116.334 9.16895 -165.001 27.502s-90 45.666 -124 81.999s-60.167 81.833 -78.5 136.5s-27.5 118.667 -27.5 192v646h259v-574c0 -92 18.5 -159 55.5 -201s87.167 -63 150.5 -63c26 0 52 4.33301 78 13s50.333 20.667 73 36
s42.834 33.666 60.501 54.999s31.167 45 40.5 71v663h259v-651c0 -58.667 0.833008 -109.167 2.5 -151.5s3.66699 -79.333 6 -111s5 -59 8 -82s6.16699 -44.167 9.5 -63.5h-263c-4.66699 12.667 -8.66699 29.667 -12 51s-6 45.333 -8 72c-20 -26 -42.5 -48.333 -67.5 -67
s-51.5 -34 -79.5 -46s-57 -20.833 -87 -26.5s-60 -8.5 -90 -8.5zM842.999 1192c-22 0 -42.5 4.16699 -61.5 12.5s-35.5 19.833 -49.5 34.5s-25 31.5 -33 50.5s-12 39.167 -12 60.5c0 20.667 4 40.5 12 59.5s19 35.5 33 49.5s30.167 25.167 48.5 33.5
s38.166 12.5 59.499 12.5c22.667 0 43.667 -3.83301 63 -11.5s36.333 -18.5 51 -32.5s26.167 -30.5 34.5 -49.5s12.5 -39.5 12.5 -61.5c0 -22.667 -4 -43.667 -12 -63s-19.167 -36 -33.5 -50s-31.166 -25 -50.499 -33s-40 -12 -62 -12zM367.999 1192
c-22.667 0 -43.6689 4.16699 -63.002 12.5s-36 19.833 -50 34.5s-25 31.5 -33 50.5s-12 39.167 -12 60.5c0 20.667 4.16699 40.5 12.5 59.5s19.5 35.5 33.5 49.5s30.333 25.167 49 33.5s38.667 12.5 60 12.5c22 0 42.833 -3.83301 62.5 -11.5s36.834 -18.5 51.501 -32.5
s26.167 -30.5 34.5 -49.5s12.5 -39.5 12.5 -61.5c0 -22.667 -4 -43.667 -12 -63s-19.167 -36 -33.5 -50s-31.166 -25 -50.499 -33s-40 -12 -62 -12z" />
    <glyph glyph-name="yacute" unicode="&#xfd;" horiz-adv-x="1227" 
d="M493 186l-472 873h313l301 -597l292 594l301 3l-788 -1512h-292zM670 1515h348l-324 -334h-251z" />
    <glyph glyph-name="thorn" unicode="&#xfe;" horiz-adv-x="1264" 
d="M126 1095c0 68 -0.831055 123.159 -2.49805 165.492s-3.66699 76.333 -6 102s-5.16602 45.667 -8.49902 60s-6.66602 27.5 -9.99902 39.5h254c4 -8 8 -19.167 12 -33.5s7.5 -33.166 10.5 -56.499s5.33301 -52.166 7 -86.499s2.5 -75.833 2.5 -124.5v-231
c18.667 24 40.5 45.333 65.5 64s51.5 34.334 79.5 47.001s57.167 22.334 87.5 29.001s60.166 10 89.499 10c70 0 134.833 -14.167 194.5 -42.5s111.5 -67.166 155.5 -116.499s78.5 -107.666 103.5 -174.999s37.5 -140 37.5 -218c0 -79.333 -12.833 -152.666 -38.5 -219.999
s-60.834 -125.666 -105.501 -174.999s-97.334 -88 -158.001 -116s-126 -42 -196 -42c-64.667 0 -124.334 12.667 -179.001 38s-100 59 -136 101v-567h-259v1548zM650.002 217.992c42 0 79.502 8.50098 112.502 25.501s61.167 39.667 84.5 68s41.166 61.166 53.499 98.499
s18.5 76.666 18.5 117.999c0 42 -6.33301 81.667 -19 119s-30.834 70 -54.501 98s-52 50.333 -85 67s-69.833 25 -110.5 25c-28 0 -55.333 -3.83301 -82 -11.5s-51.5 -18.334 -74.5 -32.001s-43.833 -29.834 -62.5 -48.501s-34 -39 -46 -61v-317
c12 -21.333 27.333 -41.166 46 -59.499s39.5 -34.166 62.5 -47.499s47.833 -23.666 74.5 -30.999s54 -11 82 -11z" />
    <glyph glyph-name="ydieresis" unicode="&#xff;" horiz-adv-x="1227" 
d="M493 186l-472 873h313l301 -597l292 594l301 3l-788 -1512h-292zM869 1192c-22 0 -42.5 4.16699 -61.5 12.5s-35.5 19.833 -49.5 34.5s-25 31.5 -33 50.5s-12 39.167 -12 60.5c0 20.667 4 40.5 12 59.5s19 35.5 33 49.5s30.167 25.167 48.5 33.5s38.166 12.5 59.499 12.5
c22.667 0 43.667 -3.83301 63 -11.5s36.333 -18.5 51 -32.5s26.167 -30.5 34.5 -49.5s12.5 -39.5 12.5 -61.5c0 -22.667 -4 -43.667 -12 -63s-19.167 -36 -33.5 -50s-31.166 -25 -50.499 -33s-40 -12 -62 -12zM394 1192c-22.667 0 -43.6689 4.16699 -63.002 12.5
s-36 19.833 -50 34.5s-25 31.5 -33 50.5s-12 39.167 -12 60.5c0 20.667 4.16699 40.5 12.5 59.5s19.5 35.5 33.5 49.5s30.333 25.167 49 33.5s38.667 12.5 60 12.5c22 0 42.833 -3.83301 62.5 -11.5s36.834 -18.5 51.501 -32.5s26.167 -30.5 34.5 -49.5
s12.5 -39.5 12.5 -61.5c0 -22.667 -4 -43.667 -12 -63s-19.167 -36 -33.5 -50s-31.166 -25 -50.499 -33s-40 -12 -62 -12z" />
    <glyph glyph-name="Amacron" unicode="&#x100;" horiz-adv-x="1388" 
d="M2 0l154.499 335l149.5 321l135.5 288.5l113 237.5l82 169.5c21.667 44.333 35.834 72.5 42.501 84.5c2.66699 5.33301 5.16699 8.5 7.5 9.5s4.83301 1.5 7.5 1.5c2 0 4.16699 -0.5 6.5 -1.5s4.83301 -4.16699 7.5 -9.5l41.5 -82.5l82 -169l113.5 -238.5l136 -289
l150 -321.5l155 -335.5h-309l-88 203h-600l-87 -203h-300zM891.999 442l-203 465l-202 -465h405zM342.999 1783h706v-202h-706v202z" />
    <glyph glyph-name="amacron" unicode="&#x101;" horiz-adv-x="1266" 
d="M563 -25c-70.667 0 -136.5 13.999 -197.5 41.999s-113.833 66.667 -158.5 116s-79.667 107.666 -105 174.999s-38 140.333 -38 219s12.833 151.667 38.5 219s60.834 125.833 105.501 175.5s97.334 88.5 158.001 116.5s126.334 42 197.001 42
c64.667 0 124 -12.333 178 -37s99 -57.667 135 -99v115h259v-652c0 -58 1 -108 3 -150s4.33301 -78.5 7 -109.5s5.66699 -58.167 9 -81.5s6.66602 -45.333 9.99902 -66h-268c-1.33301 4 -2.83301 10.167 -4.5 18.5s-3.33398 17.833 -5.00098 28.5
s-3.33398 22.334 -5.00098 35.001s-3.5 25.334 -5.5 38.001c-36 -44 -81.333 -79.167 -136 -105.5s-113.667 -39.5 -177 -39.5zM613 219.999c28 0 55.167 4.00195 81.5 12.002s51 18.833 74 32.5s43.667 30 62 49s33.5 39.5 45.5 61.5v313c-12 21.333 -27.167 41 -45.5 59
s-39 33.667 -62 47s-47.667 23.666 -74 30.999s-53.5 11 -81.5 11c-42 0 -79.667 -8.33301 -113 -25s-61.5 -39.334 -84.5 -68.001s-40.667 -61.667 -53 -99s-18.5 -76.333 -18.5 -117c0 -42 6.33301 -81.667 19 -119s30.667 -69.833 54 -97.5s51.5 -49.667 84.5 -66
s70.167 -24.5 111.5 -24.5zM277 1448h706v-202h-706v202z" />
    <glyph glyph-name="Abreve" unicode="&#x102;" horiz-adv-x="1388" 
d="M2 0l154.499 335l149.5 321l135.5 288.5l113 237.5l82 169.5c21.667 44.333 35.834 72.5 42.501 84.5c2.66699 5.33301 5.16699 8.5 7.5 9.5s4.83301 1.5 7.5 1.5c2 0 4.16699 -0.5 6.5 -1.5s4.83301 -4.16699 7.5 -9.5l41.5 -82.5l82 -169l113.5 -238.5l136 -289
l150 -321.5l155 -335.5h-309l-88 203h-600l-87 -203h-300zM891.999 442l-203 465l-202 -465h405zM693.999 1508c-45.333 0 -89.498 6.16797 -132.498 18.501s-82 31.5 -117 57.5s-65 59.167 -90 99.5s-41.833 88.5 -50.5 144.5l179 40
c7.33301 -27.333 18.5 -50.833 33.5 -70.5s32.167 -35.834 51.5 -48.501s40 -22 62 -28s44 -9 66 -9c47.333 0 89.666 11.833 126.999 35.5s64.666 63.834 81.999 120.501l182 -40c-10 -52.667 -26.667 -98.834 -50 -138.501s-52 -73 -86 -100s-72.833 -47.333 -116.5 -61
s-90.5 -20.5 -140.5 -20.5z" />
    <glyph glyph-name="abreve" unicode="&#x103;" horiz-adv-x="1266" 
d="M563 -25c-70.667 0 -136.5 13.999 -197.5 41.999s-113.833 66.667 -158.5 116s-79.667 107.666 -105 174.999s-38 140.333 -38 219s12.833 151.667 38.5 219s60.834 125.833 105.501 175.5s97.334 88.5 158.001 116.5s126.334 42 197.001 42
c64.667 0 124 -12.333 178 -37s99 -57.667 135 -99v115h259v-652c0 -58 1 -108 3 -150s4.33301 -78.5 7 -109.5s5.66699 -58.167 9 -81.5s6.66602 -45.333 9.99902 -66h-268c-1.33301 4 -2.83301 10.167 -4.5 18.5s-3.33398 17.833 -5.00098 28.5
s-3.33398 22.334 -5.00098 35.001s-3.5 25.334 -5.5 38.001c-36 -44 -81.333 -79.167 -136 -105.5s-113.667 -39.5 -177 -39.5zM613 219.999c28 0 55.167 4.00195 81.5 12.002s51 18.833 74 32.5s43.667 30 62 49s33.5 39.5 45.5 61.5v313c-12 21.333 -27.167 41 -45.5 59
s-39 33.667 -62 47s-47.667 23.666 -74 30.999s-53.5 11 -81.5 11c-42 0 -79.667 -8.33301 -113 -25s-61.5 -39.334 -84.5 -68.001s-40.667 -61.667 -53 -99s-18.5 -76.333 -18.5 -117c0 -42 6.33301 -81.667 19 -119s30.667 -69.833 54 -97.5s51.5 -49.667 84.5 -66
s70.167 -24.5 111.5 -24.5zM624 1163c-45.333 0 -89.498 6.16797 -132.498 18.501s-82 31.5 -117 57.5s-65 59.167 -90 99.5s-41.833 88.5 -50.5 144.5l179 40c7.33301 -27.333 18.5 -50.833 33.5 -70.5s32.167 -35.834 51.5 -48.501s40 -22 62 -28s44 -9 66 -9
c47.333 0 89.666 11.833 126.999 35.5s64.666 63.834 81.999 120.501l182 -40c-10 -52.667 -26.667 -98.834 -50 -138.501s-52 -73 -86 -100s-72.833 -47.333 -116.5 -61s-90.5 -20.5 -140.5 -20.5z" />
    <glyph glyph-name="Aogonek" unicode="&#x104;" horiz-adv-x="1388" 
d="M1171 -480c-90.667 0 -159.168 18.502 -205.501 55.502s-69.5 88.5 -69.5 154.5c0 26.667 4.66699 52.667 14 78s22 49.666 38 72.999s34.833 45.333 56.5 66s45.167 39.334 70.5 56.001l-86 200h-600l-87 -203h-300l154.5 335l149.5 321l135.5 288.5l113 237.5l82 169.5
c21.667 44.333 35.834 72.5 42.501 84.5c2.66699 5.33301 5.16699 8.5 7.5 9.5s4.83301 1.5 7.5 1.5c2 0 4.16699 -0.5 6.5 -1.5s4.83301 -4.16699 7.5 -9.5l41.5 -82.5l82 -169l113.5 -238.5l136 -289l150 -321.5l155 -335.5h-105
c-19.333 -14.667 -38.5 -30.167 -57.5 -46.5s-36 -33.5 -51 -51.5s-27.167 -36.833 -36.5 -56.5s-14 -39.834 -14 -60.501c0 -32 9.16699 -55.5 27.5 -70.5s42.833 -22.5 73.5 -22.5c21.333 0 39.5 2 54.5 6s28.167 8.33301 39.5 13l57 -142
c-8 -5.33301 -19 -10.833 -33 -16.5s-30 -10.834 -48 -15.501s-37.333 -8.66699 -58 -12s-42 -5 -64 -5zM891.999 441.002l-203 466l-202 -466h405z" />
    <glyph glyph-name="aogonek" unicode="&#x105;" horiz-adv-x="1266" 
d="M991 -481c-90 0 -158.002 18.666 -204.002 55.999s-69 89 -69 155c0 26.667 4.5 52.667 13.5 78s21.333 49.5 37 72.5s34.334 44.667 56.001 65s45.5 38.5 71.5 54.5c-1.33301 4 -2.83301 10.167 -4.5 18.5s-3.33398 17.833 -5.00098 28.5
s-3.33398 22.334 -5.00098 35.001s-3.5 25.334 -5.5 38.001c-36 -44 -81.333 -79.167 -136 -105.5s-113.667 -39.5 -177 -39.5c-70.667 0 -136.5 14 -197.5 42s-113.833 66.667 -158.5 116s-79.667 107.666 -105 174.999s-38 140.333 -38 219s12.833 151.667 38.5 219
s60.834 125.833 105.501 175.5s97.334 88.5 158.001 116.5s126.334 42 197.001 42c64.667 0 124 -12.333 178 -37s99 -57.667 135 -99v115h258v-652c0 -58 1 -108 3 -150s4.33301 -78.5 7 -109.5s5.66699 -58.167 9 -81.5s6.66602 -45.333 9.99902 -66h-56
c-20 -14.667 -39.833 -30.5 -59.5 -47.5s-37 -34.833 -52 -53.5s-27.167 -38 -36.5 -58s-13.666 -40.667 -12.999 -62c1.33301 -30 10.833 -52.167 28.5 -66.5s41.5 -21.5 71.5 -21.5c20.667 0 38.667 2.16699 54 6.5s28.333 8.83301 39 13.5l57 -142
c-9.33301 -5.33301 -21 -10.833 -35 -16.5s-30 -11 -48 -16s-37.333 -9.16699 -58 -12.5s-42 -5 -64 -5zM612.998 219.999c28 0 55.167 4.00195 81.5 12.002s51 18.833 74 32.5s43.667 30 62 49s33.5 39.5 45.5 61.5v313c-12 21.333 -27.167 41 -45.5 59s-39 33.667 -62 47
s-47.667 23.666 -74 30.999s-53.5 11 -81.5 11c-42 0 -79.667 -8.33301 -113 -25s-61.5 -39.334 -84.5 -68.001s-40.667 -61.667 -53 -99s-18.5 -76.333 -18.5 -117c0 -42 6.33301 -81.667 19 -119s30.667 -69.833 54 -97.5s51.5 -49.667 84.5 -66s70.167 -24.5 111.5 -24.5
z" />
    <glyph glyph-name="Cacute" unicode="&#x106;" horiz-adv-x="1349" 
d="M793 -25c-115.333 0 -217.333 18.8359 -306 56.5029s-163.167 89.334 -223.5 155.001s-106.166 143 -137.499 232s-47 185.167 -47 288.5c0 102.667 15.667 198.5 47 287.5s77.166 166.167 137.499 231.5s134.833 116.666 223.5 153.999s190.667 56 306 56
c112 0 212.333 -19 301 -57s164.334 -92.333 227.001 -163l-178 -165c-44.667 42 -97.167 75.667 -157.5 101s-124.5 38 -192.5 38c-67.333 0 -127.5 -12.667 -180.5 -38s-98 -59.833 -135 -103.5s-65.167 -94.834 -84.5 -153.501s-29 -121.334 -29 -188.001
c0 -67.333 9.66699 -130.333 29 -189s47.5 -109.834 84.5 -153.501s82 -78.167 135 -103.5s113.167 -38 180.5 -38c68 0 132.167 12.5 192.5 37.5s112.833 58.167 157.5 99.5l178 -164c-62.667 -69.333 -138.334 -123.5 -227.001 -162.5s-189 -58.5 -301 -58.5zM810 1857
h348l-324 -333h-251z" />
    <glyph glyph-name="cacute" unicode="&#x107;" horiz-adv-x="1069" 
d="M606 -25c-81.333 0 -155.331 13.667 -221.998 41s-123.667 65.5 -171 114.5s-84 107.333 -110 175s-39 142.167 -39 223.5c0 80.667 13 154.667 39 222s62.667 125.333 110 174s104.166 86.667 170.499 114s140.166 41 221.499 41c41.333 0 82.333 -4.33301 123 -13
s79.667 -21.334 117 -38.001s72.5 -37 105.5 -61s62.5 -51.333 88.5 -82l-190 -158c-30 33.333 -65.5 59.666 -106.5 78.999s-85.5 29 -133.5 29c-40 0 -76.333 -8.33301 -109 -25s-60.667 -39 -84 -67s-41.333 -60.5 -54 -97.5s-19 -76.167 -19 -117.5
s6.33301 -80.666 19 -117.999s30.667 -70 54 -98s51.5 -50.333 84.5 -67s69.5 -25 109.5 -25c48 0 92.333 10.333 133 31s77.334 46.334 110.001 77.001l186 -157c-26 -30.667 -55.5 -58.167 -88.5 -82.5s-68.167 -45 -105.5 -62s-76.333 -30 -117 -39
s-81.334 -13.5 -122.001 -13.5zM608.002 1515h348l-324 -334h-251z" />
    <glyph glyph-name="Cdotaccent" unicode="&#x10a;" horiz-adv-x="1349" 
d="M793 -25c-115.333 0 -217.333 18.8359 -306 56.5029s-163.167 89.334 -223.5 155.001s-106.166 143 -137.499 232s-47 185.167 -47 288.5c0 102.667 15.667 198.5 47 287.5s77.166 166.167 137.499 231.5s134.833 116.666 223.5 153.999s190.667 56 306 56
c112 0 212.333 -19 301 -57s164.334 -92.333 227.001 -163l-178 -165c-44.667 42 -97.167 75.667 -157.5 101s-124.5 38 -192.5 38c-67.333 0 -127.5 -12.667 -180.5 -38s-98 -59.833 -135 -103.5s-65.167 -94.834 -84.5 -153.501s-29 -121.334 -29 -188.001
c0 -67.333 9.66699 -130.333 29 -189s47.5 -109.834 84.5 -153.501s82 -78.167 135 -103.5s113.167 -38 180.5 -38c68 0 132.167 12.5 192.5 37.5s112.833 58.167 157.5 99.5l178 -164c-62.667 -69.333 -138.334 -123.5 -227.001 -162.5s-189 -58.5 -301 -58.5zM759 1533
c-22 0 -42.668 4.33105 -62.001 12.998s-36.166 20.334 -50.499 35.001s-25.5 31.667 -33.5 51s-12 39.666 -12 60.999c0 20.667 4.16699 40.334 12.5 59.001s19.5 35 33.5 49s30.5 25.167 49.5 33.5s39.167 12.5 60.5 12.5c22 0 42.833 -3.83301 62.5 -11.5
s36.667 -18.334 51 -32.001s25.666 -30 33.999 -49s12.5 -39.5 12.5 -61.5c0 -22.667 -4 -43.667 -12 -63s-19.167 -36.166 -33.5 -50.499s-31.166 -25.666 -50.499 -33.999s-40 -12.5 -62 -12.5z" />
    <glyph glyph-name="cdotaccent" unicode="&#x10b;" horiz-adv-x="1069" 
d="M606 -25c-81.333 0 -155.331 13.667 -221.998 41s-123.667 65.5 -171 114.5s-84 107.333 -110 175s-39 142.167 -39 223.5c0 80.667 13 154.667 39 222s62.667 125.333 110 174s104.166 86.667 170.499 114s140.166 41 221.499 41c41.333 0 82.333 -4.33301 123 -13
s79.667 -21.334 117 -38.001s72.5 -37 105.5 -61s62.5 -51.333 88.5 -82l-190 -158c-30 33.333 -65.5 59.666 -106.5 78.999s-85.5 29 -133.5 29c-40 0 -76.333 -8.33301 -109 -25s-60.667 -39 -84 -67s-41.333 -60.5 -54 -97.5s-19 -76.167 -19 -117.5
s6.33301 -80.666 19 -117.999s30.667 -70 54 -98s51.5 -50.333 84.5 -67s69.5 -25 109.5 -25c48 0 92.333 10.333 133 31s77.334 46.334 110.001 77.001l186 -157c-26 -30.667 -55.5 -58.167 -88.5 -82.5s-68.167 -45 -105.5 -62s-76.333 -30 -117 -39
s-81.334 -13.5 -122.001 -13.5zM583.002 1197c-22 0 -42.668 4.33105 -62.001 12.998s-36.166 20.334 -50.499 35.001s-25.5 31.667 -33.5 51s-12 39.666 -12 60.999c0 20.667 4.16699 40.334 12.5 59.001s19.5 35 33.5 49s30.5 25.167 49.5 33.5s39.167 12.5 60.5 12.5
c22 0 42.833 -3.83301 62.5 -11.5s36.667 -18.334 51 -32.001s25.666 -30 33.999 -49s12.5 -39.5 12.5 -61.5c0 -22.667 -4 -43.667 -12 -63s-19.167 -36.166 -33.5 -50.499s-31.166 -25.666 -50.499 -33.999s-40 -12.5 -62 -12.5z" />
    <glyph glyph-name="Ccaron" unicode="&#x10c;" horiz-adv-x="1349" 
d="M793 -25c-115.333 0 -217.333 18.8359 -306 56.5029s-163.167 89.334 -223.5 155.001s-106.166 143 -137.499 232s-47 185.167 -47 288.5c0 102.667 15.667 198.5 47 287.5s77.166 166.167 137.499 231.5s134.833 116.666 223.5 153.999s190.667 56 306 56
c112 0 212.333 -19 301 -57s164.334 -92.333 227.001 -163l-178 -165c-44.667 42 -97.167 75.667 -157.5 101s-124.5 38 -192.5 38c-67.333 0 -127.5 -12.667 -180.5 -38s-98 -59.833 -135 -103.5s-65.167 -94.834 -84.5 -153.501s-29 -121.334 -29 -188.001
c0 -67.333 9.66699 -130.333 29 -189s47.5 -109.834 84.5 -153.501s82 -78.167 135 -103.5s113.167 -38 180.5 -38c68 0 132.167 12.5 192.5 37.5s112.833 58.167 157.5 99.5l178 -164c-62.667 -69.333 -138.334 -123.5 -227.001 -162.5s-189 -58.5 -301 -58.5zM350 1857
h260l152 -173l152 173h259l-250 -334h-326z" />
    <glyph glyph-name="ccaron" unicode="&#x10d;" horiz-adv-x="1069" 
d="M606 -25c-81.333 0 -155.331 13.667 -221.998 41s-123.667 65.5 -171 114.5s-84 107.333 -110 175s-39 142.167 -39 223.5c0 80.667 13 154.667 39 222s62.667 125.333 110 174s104.166 86.667 170.499 114s140.166 41 221.499 41c41.333 0 82.333 -4.33301 123 -13
s79.667 -21.334 117 -38.001s72.5 -37 105.5 -61s62.5 -51.333 88.5 -82l-190 -158c-30 33.333 -65.5 59.666 -106.5 78.999s-85.5 29 -133.5 29c-40 0 -76.333 -8.33301 -109 -25s-60.667 -39 -84 -67s-41.333 -60.5 -54 -97.5s-19 -76.167 -19 -117.5
s6.33301 -80.666 19 -117.999s30.667 -70 54 -98s51.5 -50.333 84.5 -67s69.5 -25 109.5 -25c48 0 92.333 10.333 133 31s77.334 46.334 110.001 77.001l186 -157c-26 -30.667 -55.5 -58.167 -88.5 -82.5s-68.167 -45 -105.5 -62s-76.333 -30 -117 -39
s-81.334 -13.5 -122.001 -13.5zM167.002 1515h260l152 -173l152 173h259l-250 -334h-326z" />
    <glyph glyph-name="Dcaron" unicode="&#x10e;" horiz-adv-x="1489" 
d="M146 1411h513c114.667 0 218.167 -15.667 310.5 -47s171.166 -77 236.499 -137s115.666 -133.667 150.999 -221s53 -187 53 -299c0 -112.667 -17.667 -212.834 -53 -300.501s-85.666 -161.667 -150.999 -222s-144.166 -106.166 -236.499 -137.499
s-195.833 -47 -310.5 -47h-513v1411zM659 249c73.333 0 138.833 9.99902 196.5 29.999s106.334 49.333 146.001 88s70 86.5 91 143.5s31.5 122.5 31.5 196.5s-10.5 139.333 -31.5 196s-51.333 104.334 -91 143.001s-88.334 68 -146.001 88s-123.167 30 -196.5 30h-236v-915
h236zM263 1857h260l152 -173l152 173h259l-250 -334h-326z" />
    <glyph glyph-name="dcaron" unicode="&#x10f;" horiz-adv-x="1387" 
d="M562 -25c-70.667 0 -136.338 14.002 -197.005 42.002s-113.334 66.667 -158.001 116s-79.667 107.666 -105 174.999s-38 140.333 -38 219s12.833 151.834 38.5 219.501s60.834 126.167 105.501 175.5s97.334 88 158.001 116s126 42 196 42c65.333 0 125 -12.333 179 -37
s99 -57.334 135 -98.001v517h259v-1054c0 -58.667 0.833008 -108.834 2.5 -150.501s3.83398 -78 6.50098 -109s5.83398 -58.167 9.50098 -81.5s7.5 -45.666 11.5 -66.999h-269c-3.33301 13.333 -6.66602 30.166 -9.99902 50.499s-6.66602 43.5 -9.99902 69.5
c-35.333 -44 -80.5 -79.167 -135.5 -105.5s-114.5 -39.5 -178.5 -39.5zM612.996 219.002c28 0 55.167 3.83203 81.5 11.499s51 18.5 74 32.5s43.667 30.5 62 49.5s33.5 39.833 45.5 62.5v313c-12 20.667 -27.167 40.334 -45.5 59.001s-39 34.667 -62 48s-47.667 24 -74 32
s-53.5 12 -81.5 12c-42 0 -79.667 -8.66699 -113 -26s-61.5 -40.5 -84.5 -69.5s-40.667 -62.167 -53 -99.5s-18.5 -76.333 -18.5 -117c0 -42 6.33301 -81.667 19 -119s30.667 -70 54 -98s51.5 -50.167 84.5 -66.5s70.167 -24.5 111.5 -24.5zM1234 1462h263l-74 -435h-189
v435z" />
    <glyph glyph-name="Dcroat" unicode="&#x110;" horiz-adv-x="1549" 
d="M207 600h-163v226h163v585h512c114 0 217.333 -15.667 310 -47s171.834 -77 237.501 -137s116.167 -133.667 151.5 -221s53 -187 53 -299c0 -112.667 -17.667 -212.834 -53 -300.501s-85.833 -161.667 -151.5 -222s-144.834 -106.166 -237.501 -137.499
s-196 -47 -310 -47h-512v600zM719 249c72.667 0 137.834 9.99902 195.501 29.999s106.5 49.333 146.5 88s70.5 86.5 91.5 143.5s31.5 122.5 31.5 196.5s-10.5 139.333 -31.5 196s-51.5 104.334 -91.5 143.001s-88.833 68 -146.5 88s-122.834 30 -195.501 30h-236v-338h371
v-226h-371v-351h236z" />
    <glyph glyph-name="dcroat" unicode="&#x111;" horiz-adv-x="1266" 
d="M593 1347l282.996 0.000976562v115h259v-115h127v-184h-127v-754c0 -58.667 0.833008 -109 2.5 -151s3.83398 -78.5 6.50098 -109.5s5.83398 -58.167 9.50098 -81.5s7.5 -45.666 11.5 -66.999h-269c-3.33301 13.333 -6.66602 30.166 -9.99902 50.499
s-6.66602 43.5 -9.99902 69.5c-35.333 -44 -80.5 -79.167 -135.5 -105.5s-114.5 -39.5 -178.5 -39.5c-70.667 0 -136.334 14 -197.001 42s-113.334 66.667 -158.001 116s-79.667 107.666 -105 174.999s-38 140.333 -38 219s12.833 151.834 38.5 219.501
s60.834 126.167 105.501 175.5s97.334 88 158.001 116s126 42 196 42c65.333 0 125 -12.333 179 -37s99 -57.334 135 -98.001v218h-283v184zM612.996 219.001c28 0 55.167 3.83203 81.5 11.499s51 18.5 74 32.5s43.667 30.5 62 49.5s33.5 39.833 45.5 62.5v313
c-12 20.667 -27.167 40.334 -45.5 59.001s-39 34.667 -62 48s-47.667 24 -74 32s-53.5 12 -81.5 12c-42 0 -79.667 -8.66699 -113 -26s-61.5 -40.5 -84.5 -69.5s-40.667 -62.167 -53 -99.5s-18.5 -76.333 -18.5 -117c0 -42 6.33301 -81.667 19 -119s30.667 -70 54 -98
s51.5 -50.167 84.5 -66.5s70.167 -24.5 111.5 -24.5z" />
    <glyph glyph-name="Emacron" unicode="&#x112;" horiz-adv-x="1277" 
d="M146 1411h1038v-247h-761v-331h701v-247h-701v-339h761v-247h-1038v1411zM314 1783h706v-202h-706v202z" />
    <glyph glyph-name="emacron" unicode="&#x113;" horiz-adv-x="1161" 
d="M606 -25c-82.667 0 -157.501 13.666 -224.501 40.999s-124 65.5 -171 114.5s-83.167 107.5 -108.5 175.5s-38 142.667 -38 224c0 80.667 12.667 154.834 38 222.501s61.5 125.667 108.5 174s103.333 86 169 113s139.167 40.5 220.5 40.5
c70.667 0 136.334 -11.833 197.001 -35.5s113.167 -58 157.5 -103s79 -99.833 104 -164.5s37.833 -138 38.5 -220c0 -22.667 -0.166992 -40.667 -0.5 -54s-0.833008 -22 -1.5 -26l-737 -60c6.66699 -31.333 17.5 -60.333 32.5 -87s33.667 -49.667 56 -69
s48.5 -34.333 78.5 -45s64 -16 102 -16c51.333 0 101.5 9.83301 150.5 29.5s94.5 50.5 136.5 92.5l162 -162c-58.667 -60.667 -128.167 -106.667 -208.5 -138s-167.5 -47 -261.5 -47zM827.999 626.999c-2 33.333 -8.83203 64.3311 -20.499 92.998s-27.5 53.334 -47.5 74.001
s-44 36.834 -72 48.501s-59.333 17.5 -94 17.5c-29.333 0 -58.5 -5.66699 -87.5 -17s-55.167 -28.5 -78.5 -51.5s-42.833 -51.5 -58.5 -85.5s-24.834 -74 -27.501 -120zM233 1448h706v-202h-706v202z" />
    <glyph glyph-name="Edotaccent" unicode="&#x116;" horiz-adv-x="1277" 
d="M146 1411h1038v-247h-761v-331h701v-247h-701v-339h761v-247h-1038v1411zM666 1533c-22 0 -42.668 4.33105 -62.001 12.998s-36.166 20.334 -50.499 35.001s-25.5 31.667 -33.5 51s-12 39.666 -12 60.999c0 20.667 4.16699 40.334 12.5 59.001s19.5 35 33.5 49
s30.5 25.167 49.5 33.5s39.167 12.5 60.5 12.5c22 0 42.833 -3.83301 62.5 -11.5s36.667 -18.334 51 -32.001s25.666 -30 33.999 -49s12.5 -39.5 12.5 -61.5c0 -22.667 -4 -43.667 -12 -63s-19.167 -36.166 -33.5 -50.499s-31.166 -25.666 -50.499 -33.999
s-40 -12.5 -62 -12.5z" />
    <glyph glyph-name="edotaccent" unicode="&#x117;" horiz-adv-x="1161" 
d="M606 -25c-82.667 0 -157.501 13.666 -224.501 40.999s-124 65.5 -171 114.5s-83.167 107.5 -108.5 175.5s-38 142.667 -38 224c0 80.667 12.667 154.834 38 222.501s61.5 125.667 108.5 174s103.333 86 169 113s139.167 40.5 220.5 40.5
c70.667 0 136.334 -11.833 197.001 -35.5s113.167 -58 157.5 -103s79 -99.833 104 -164.5s37.833 -138 38.5 -220c0 -22.667 -0.166992 -40.667 -0.5 -54s-0.833008 -22 -1.5 -26l-737 -60c6.66699 -31.333 17.5 -60.333 32.5 -87s33.667 -49.667 56 -69
s48.5 -34.333 78.5 -45s64 -16 102 -16c51.333 0 101.5 9.83301 150.5 29.5s94.5 50.5 136.5 92.5l162 -162c-58.667 -60.667 -128.167 -106.667 -208.5 -138s-167.5 -47 -261.5 -47zM827.999 626.999c-2 33.333 -8.83203 64.3311 -20.499 92.998s-27.5 53.334 -47.5 74.001
s-44 36.834 -72 48.501s-59.333 17.5 -94 17.5c-29.333 0 -58.5 -5.66699 -87.5 -17s-55.167 -28.5 -78.5 -51.5s-42.833 -51.5 -58.5 -85.5s-24.834 -74 -27.501 -120zM592 1199c-22 0 -42.668 4.33105 -62.001 12.998s-36.166 20.334 -50.499 35.001
s-25.5 31.667 -33.5 51s-12 39.666 -12 60.999c0 20.667 4.16699 40.334 12.5 59.001s19.5 35 33.5 49s30.5 25.167 49.5 33.5s39.167 12.5 60.5 12.5c22 0 42.833 -3.83301 62.5 -11.5s36.667 -18.334 51 -32.001s25.666 -30 33.999 -49s12.5 -39.5 12.5 -61.5
c0 -22.667 -4 -43.667 -12 -63s-19.167 -36.166 -33.5 -50.499s-31.166 -25.666 -50.499 -33.999s-40 -12.5 -62 -12.5z" />
    <glyph glyph-name="Eogonek" unicode="&#x118;" horiz-adv-x="1277" 
d="M146 1411l1038 0.000976562v-247h-761v-331h701v-247h-701v-339h761v-247h-71c-20 -14.667 -39.833 -30.5 -59.5 -47.5s-37 -34.833 -52 -53.5s-27 -38 -36 -58s-12.833 -40.667 -11.5 -62c1.33301 -30 10.666 -52 27.999 -66s41 -21 71 -21c20.667 0 38.5 2 53.5 6
s28.167 8.33301 39.5 13l58 -142c-8.66699 -5.33301 -20.167 -10.833 -34.5 -16.5s-30.5 -10.834 -48.5 -15.501s-37.5 -8.66699 -58.5 -12s-42.5 -5 -64.5 -5c-90 0 -157.667 18.5 -203 55.5s-68 88.5 -68 154.5c0 26.667 4.33301 52.667 13 78s20.667 49.5 36 72.5
s33.833 44.667 55.5 65s45.5 38.5 71.5 54.5h-757v1411z" />
    <glyph glyph-name="eogonek" unicode="&#x119;" horiz-adv-x="1161" 
d="M680 -480c-90 0 -157.832 18.499 -203.499 55.499s-68.5 88.5 -68.5 154.5c0 47.333 13.167 92.333 39.5 135s60.5 80 102.5 112c-74.667 6 -142 23.833 -202 53.5s-111 68.667 -153 117s-74.333 105 -97 170s-34 135.833 -34 212.5c0 80.667 12.667 154.834 38 222.501
s61.5 125.667 108.5 174s103.333 86 169 113s139.167 40.5 220.5 40.5c70.667 0 136.334 -11.833 197.001 -35.5s113.167 -58 157.5 -103s79 -99.833 104 -164.5s37.833 -138 38.5 -220c0 -22.667 -0.166992 -40.667 -0.5 -54s-0.833008 -22 -1.5 -26l-737 -60
c6.66699 -31.333 17.5 -60.333 32.5 -87s33.667 -49.667 56 -69s48.5 -34.333 78.5 -45s64 -16 102 -16c51.333 0 101.5 9.83301 150.5 29.5s94.5 50.5 136.5 92.5l162 -162c-38 -39.333 -80.833 -72.5 -128.5 -99.5s-99.167 -47.5 -154.5 -61.5
c-20 -14.667 -39.667 -30.5 -59 -47.5s-36.5 -34.667 -51.5 -53s-26.833 -37.666 -35.5 -57.999s-12.334 -40.833 -11.001 -61.5c1.33301 -30 10.666 -52 27.999 -66s41 -21 71 -21c20.667 0 38.5 2 53.5 6s28.167 8.33301 39.5 13l57 -142
c-9.33301 -5.33301 -21 -10.833 -35 -16.5s-30 -10.834 -48 -15.501s-37.333 -8.66699 -58 -12s-42 -5 -64 -5zM828.001 626.999c-2 33.333 -8.83203 64.3311 -20.499 92.998s-27.5 53.334 -47.5 74.001s-44 36.834 -72 48.501s-59.333 17.5 -94 17.5
c-29.333 0 -58.5 -5.66699 -87.5 -17s-55.167 -28.5 -78.5 -51.5s-42.833 -51.5 -58.5 -85.5s-24.834 -74 -27.501 -120z" />
    <glyph glyph-name="Ecaron" unicode="&#x11a;" horiz-adv-x="1277" 
d="M146 1411h1038v-247h-761v-331h701v-247h-701v-339h761v-247h-1038v1411zM249 1857h260l152 -173l152 173h259l-250 -334h-326z" />
    <glyph glyph-name="ecaron" unicode="&#x11b;" horiz-adv-x="1161" 
d="M606 -25c-82.667 0 -157.501 13.666 -224.501 40.999s-124 65.5 -171 114.5s-83.167 107.5 -108.5 175.5s-38 142.667 -38 224c0 80.667 12.667 154.834 38 222.501s61.5 125.667 108.5 174s103.333 86 169 113s139.167 40.5 220.5 40.5
c70.667 0 136.334 -11.833 197.001 -35.5s113.167 -58 157.5 -103s79 -99.833 104 -164.5s37.833 -138 38.5 -220c0 -22.667 -0.166992 -40.667 -0.5 -54s-0.833008 -22 -1.5 -26l-737 -60c6.66699 -31.333 17.5 -60.333 32.5 -87s33.667 -49.667 56 -69
s48.5 -34.333 78.5 -45s64 -16 102 -16c51.333 0 101.5 9.83301 150.5 29.5s94.5 50.5 136.5 92.5l162 -162c-58.667 -60.667 -128.167 -106.667 -208.5 -138s-167.5 -47 -261.5 -47zM827.999 626.999c-2 33.333 -8.83203 64.3311 -20.499 92.998s-27.5 53.334 -47.5 74.001
s-44 36.834 -72 48.501s-59.333 17.5 -94 17.5c-29.333 0 -58.5 -5.66699 -87.5 -17s-55.167 -28.5 -78.5 -51.5s-42.833 -51.5 -58.5 -85.5s-24.834 -74 -27.501 -120zM176 1515h260l152 -173l152 173h259l-250 -334h-326z" />
    <glyph glyph-name="Gbreve" unicode="&#x11e;" horiz-adv-x="1467" 
d="M798 -25c-114.667 0 -216.5 18.5059 -305.5 55.5059s-164.167 88 -225.5 153s-108 142.167 -140 231.5s-48 186.666 -48 291.999c0 102.667 15.667 198.5 47 287.5s77.166 166.167 137.499 231.5s134.833 116.666 223.5 153.999s190.667 56 306 56
c112.667 0 213.167 -19 301.5 -57s163.833 -92.333 226.5 -163l-178 -166c-44.667 42 -97.167 75.833 -157.5 101.5s-124.5 38.5 -192.5 38.5c-67.333 0 -127.666 -12.667 -180.999 -38s-98.666 -59.833 -135.999 -103.5s-66 -94.834 -86 -153.501
s-30 -121.334 -30 -188.001s9.66699 -129.834 29 -189.501s47.666 -111.834 84.999 -156.501s83.5 -80 138.5 -106s118.167 -39 189.5 -39c52 0 104.667 5 158 15s103.666 30.333 150.999 61v237h-289v225h559v-572c-35.333 -33.333 -75.166 -63 -119.499 -89
s-91.5 -47.667 -141.5 -65s-102.333 -30.5 -157 -39.5s-109.667 -13.5 -165 -13.5zM784 1508.01c-45.333 0 -89.498 6.16797 -132.498 18.501s-82 31.5 -117 57.5s-65 59.167 -90 99.5s-41.833 88.5 -50.5 144.5l179 40c7.33301 -27.333 18.5 -50.833 33.5 -70.5
s32.167 -35.834 51.5 -48.501s40 -22 62 -28s44 -9 66 -9c47.333 0 89.666 11.833 126.999 35.5s64.666 63.834 81.999 120.501l182 -40c-10 -52.667 -26.667 -98.834 -50 -138.501s-52 -73 -86 -100s-72.833 -47.333 -116.5 -61s-90.5 -20.5 -140.5 -20.5z" />
    <glyph glyph-name="gbreve" unicode="&#x11f;" horiz-adv-x="1261" 
d="M605 -473c-46 0 -91.5 4.00098 -136.5 12.001s-88.333 19.5 -130 34.5s-81.167 33.167 -118.5 54.5s-71.666 45.333 -102.999 72l112 190c51.333 -39.333 107.5 -71 168.5 -95s122.833 -36 185.5 -36c44.667 0 85.167 6.33301 121.5 19s67.5 32 93.5 58
s46 58.833 60 98.5s21 86.834 21 141.501v50c-35.333 -41.333 -80 -74.5 -134 -99.5s-113.333 -37.5 -178 -37.5c-71.333 0 -137.5 13.333 -198.5 40s-114 64 -159 112s-80.333 105 -106 171s-38.5 138 -38.5 216c0 79.333 12.833 152.833 38.5 220.5
s60.834 126 105.501 175s97.5 87.333 158.5 115s126.5 41.5 196.5 41.5c64.667 0 124.167 -12.333 178.5 -37s99.833 -57.334 136.5 -98.001v114h259v-963c0 -86.667 -10 -165 -30 -235s-51.333 -129.833 -94 -179.5s-97.834 -87.834 -165.501 -114.501
s-148.834 -40 -243.501 -40zM613 227.001c28 0 55.332 3.83105 81.999 11.498s51.667 18.334 75 32.001s44.333 29.834 63 48.501s34 38.667 46 60v315c-12 21.333 -27.333 41 -46 59s-39.667 33.667 -63 47s-48.333 23.833 -75 31.5s-54 11.5 -82 11.5
c-42 0 -79.5 -8.33301 -112.5 -25s-61 -39.334 -84 -68.001s-40.5 -61.667 -52.5 -99s-18 -76.666 -18 -117.999s6.33301 -80.5 19 -117.5s30.667 -69.5 54 -97.5s51.333 -50.167 84 -66.5s69.334 -24.5 110.001 -24.5zM628.999 1163
c-45.333 0 -89.498 6.16797 -132.498 18.501s-82 31.5 -117 57.5s-65 59.167 -90 99.5s-41.833 88.5 -50.5 144.5l179 40c7.33301 -27.333 18.5 -50.833 33.5 -70.5s32.167 -35.834 51.5 -48.501s40 -22 62 -28s44 -9 66 -9c47.333 0 89.666 11.833 126.999 35.5
s64.666 63.834 81.999 120.501l182 -40c-10 -52.667 -26.667 -98.834 -50 -138.501s-52 -73 -86 -100s-72.833 -47.333 -116.5 -61s-90.5 -20.5 -140.5 -20.5z" />
    <glyph glyph-name="Gdotaccent" unicode="&#x120;" horiz-adv-x="1467" 
d="M798 -25c-114.667 0 -216.5 18.5059 -305.5 55.5059s-164.167 88 -225.5 153s-108 142.167 -140 231.5s-48 186.666 -48 291.999c0 102.667 15.667 198.5 47 287.5s77.166 166.167 137.499 231.5s134.833 116.666 223.5 153.999s190.667 56 306 56
c112.667 0 213.167 -19 301.5 -57s163.833 -92.333 226.5 -163l-178 -166c-44.667 42 -97.167 75.833 -157.5 101.5s-124.5 38.5 -192.5 38.5c-67.333 0 -127.666 -12.667 -180.999 -38s-98.666 -59.833 -135.999 -103.5s-66 -94.834 -86 -153.501
s-30 -121.334 -30 -188.001s9.66699 -129.834 29 -189.501s47.666 -111.834 84.999 -156.501s83.5 -80 138.5 -106s118.167 -39 189.5 -39c52 0 104.667 5 158 15s103.666 30.333 150.999 61v237h-289v225h559v-572c-35.333 -33.333 -75.166 -63 -119.499 -89
s-91.5 -47.667 -141.5 -65s-102.333 -30.5 -157 -39.5s-109.667 -13.5 -165 -13.5zM776 1533.01c-22 0 -42.668 4.33105 -62.001 12.998s-36.166 20.334 -50.499 35.001s-25.5 31.667 -33.5 51s-12 39.666 -12 60.999c0 20.667 4.16699 40.334 12.5 59.001s19.5 35 33.5 49
s30.5 25.167 49.5 33.5s39.167 12.5 60.5 12.5c22 0 42.833 -3.83301 62.5 -11.5s36.667 -18.334 51 -32.001s25.666 -30 33.999 -49s12.5 -39.5 12.5 -61.5c0 -22.667 -4 -43.667 -12 -63s-19.167 -36.166 -33.5 -50.499s-31.166 -25.666 -50.499 -33.999
s-40 -12.5 -62 -12.5z" />
    <glyph glyph-name="gdotaccent" unicode="&#x121;" horiz-adv-x="1261" 
d="M605 -473c-46 0 -91.5 4.00098 -136.5 12.001s-88.333 19.5 -130 34.5s-81.167 33.167 -118.5 54.5s-71.666 45.333 -102.999 72l112 190c51.333 -39.333 107.5 -71 168.5 -95s122.833 -36 185.5 -36c44.667 0 85.167 6.33301 121.5 19s67.5 32 93.5 58
s46 58.833 60 98.5s21 86.834 21 141.501v50c-35.333 -41.333 -80 -74.5 -134 -99.5s-113.333 -37.5 -178 -37.5c-71.333 0 -137.5 13.333 -198.5 40s-114 64 -159 112s-80.333 105 -106 171s-38.5 138 -38.5 216c0 79.333 12.833 152.833 38.5 220.5
s60.834 126 105.501 175s97.5 87.333 158.5 115s126.5 41.5 196.5 41.5c64.667 0 124.167 -12.333 178.5 -37s99.833 -57.334 136.5 -98.001v114h259v-963c0 -86.667 -10 -165 -30 -235s-51.333 -129.833 -94 -179.5s-97.834 -87.834 -165.501 -114.501
s-148.834 -40 -243.501 -40zM613 227.001c28 0 55.332 3.83105 81.999 11.498s51.667 18.334 75 32.001s44.333 29.834 63 48.501s34 38.667 46 60v315c-12 21.333 -27.333 41 -46 59s-39.667 33.667 -63 47s-48.333 23.833 -75 31.5s-54 11.5 -82 11.5
c-42 0 -79.5 -8.33301 -112.5 -25s-61 -39.334 -84 -68.001s-40.5 -61.667 -52.5 -99s-18 -76.666 -18 -117.999s6.33301 -80.5 19 -117.5s30.667 -69.5 54 -97.5s51.333 -50.167 84 -66.5s69.334 -24.5 110.001 -24.5zM616.999 1199c-22 0 -42.668 4.33105 -62.001 12.998
s-36.166 20.334 -50.499 35.001s-25.5 31.667 -33.5 51s-12 39.666 -12 60.999c0 20.667 4.16699 40.334 12.5 59.001s19.5 35 33.5 49s30.5 25.167 49.5 33.5s39.167 12.5 60.5 12.5c22 0 42.833 -3.83301 62.5 -11.5s36.667 -18.334 51 -32.001s25.666 -30 33.999 -49
s12.5 -39.5 12.5 -61.5c0 -22.667 -4 -43.667 -12 -63s-19.167 -36.166 -33.5 -50.499s-31.166 -25.666 -50.499 -33.999s-40 -12.5 -62 -12.5z" />
    <glyph glyph-name="uni0122" unicode="&#x122;" horiz-adv-x="1467" 
d="M798 -25c-114.667 0 -216.5 18.5059 -305.5 55.5059s-164.167 88 -225.5 153s-108 142.167 -140 231.5s-48 186.666 -48 291.999c0 102.667 15.667 198.5 47 287.5s77.166 166.167 137.499 231.5s134.833 116.666 223.5 153.999s190.667 56 306 56
c112.667 0 213.167 -19 301.5 -57s163.833 -92.333 226.5 -163l-178 -166c-44.667 42 -97.167 75.833 -157.5 101.5s-124.5 38.5 -192.5 38.5c-67.333 0 -127.666 -12.667 -180.999 -38s-98.666 -59.833 -135.999 -103.5s-66 -94.834 -86 -153.501
s-30 -121.334 -30 -188.001s9.66699 -129.834 29 -189.501s47.666 -111.834 84.999 -156.501s83.5 -80 138.5 -106s118.167 -39 189.5 -39c52 0 104.667 5 158 15s103.666 30.333 150.999 61v237h-289v225h559v-572c-35.333 -33.333 -75.166 -63 -119.499 -89
s-91.5 -47.667 -141.5 -65s-102.333 -30.5 -157 -39.5s-109.667 -13.5 -165 -13.5zM688 -113.994h279l-196 -408h-205z" />
    <glyph glyph-name="uni0123" unicode="&#x123;" horiz-adv-x="1264" 
d="M605 -473c-46 0 -91.5 4.00098 -136.5 12.001s-88.333 19.5 -130 34.5s-81.167 33.167 -118.5 54.5s-71.666 45.333 -102.999 72l112 190c51.333 -39.333 107.5 -71 168.5 -95s122.833 -36 185.5 -36c44.667 0 85.167 6.33301 121.5 19s67.5 32 93.5 58
s46 58.833 60 98.5s21 86.834 21 141.501v50c-35.333 -41.333 -80 -74.5 -134 -99.5s-113.333 -37.5 -178 -37.5c-71.333 0 -137.5 13.333 -198.5 40s-114 64 -159 112s-80.333 105 -106 171s-38.5 138 -38.5 216c0 79.333 12.833 152.833 38.5 220.5
s60.834 126 105.501 175s97.5 87.333 158.5 115s126.5 41.5 196.5 41.5c64.667 0 124.167 -12.333 178.5 -37s99.833 -57.334 136.5 -98.001v114h259v-963c0 -86.667 -10 -165 -30 -235s-51.333 -129.833 -94 -179.5s-97.834 -87.834 -165.501 -114.501
s-148.834 -40 -243.501 -40zM613 227.001c28 0 55.332 3.83105 81.999 11.498s51.667 18.334 75 32.001s44.333 29.834 63 48.501s34 38.667 46 60v315c-12 21.333 -27.333 41 -46 59s-39.667 33.667 -63 47s-48.333 23.833 -75 31.5s-54 11.5 -82 11.5
c-42 0 -79.5 -8.33301 -112.5 -25s-61 -39.334 -84 -68.001s-40.5 -61.667 -52.5 -99s-18 -76.666 -18 -117.999s6.33301 -80.5 19 -117.5s30.667 -69.5 54 -97.5s51.333 -50.167 84 -66.5s69.334 -24.5 110.001 -24.5zM646.999 1590h206l-122 -409h-279z" />
    <glyph glyph-name="Hbar" unicode="&#x126;" horiz-adv-x="1573" 
d="M49 1204h136v207h276v-207h651v207h276v-207h136v-187h-136v-1017h-276v590h-651v-590h-276v1017h-136v187zM1112 837v180h-651v-180h651z" />
    <glyph glyph-name="hbar" unicode="&#x127;" horiz-adv-x="1216" 
d="M0 1347l118.999 -0.00390625c-2.66699 31.333 -5.83398 55 -9.50098 71l-10.5 44h256c4 -9.33301 8 -23 12 -41s7.66699 -42.667 11 -74h290v-184h-283v-2v-237c19.333 26.667 41.333 49.834 66 69.501s50.834 35.834 78.501 48.501s56.334 22.167 86.001 28.5
s59.5 9.5 89.5 9.5c128 0 226.167 -38.667 294.5 -116s102.5 -192.666 102.5 -345.999v-618h-259v566c0 46.667 -5.33301 87 -16 121s-25.667 62 -45 84s-42.5 38.167 -69.5 48.5s-56.833 15.5 -89.5 15.5c-27.333 0 -53.5 -4.33301 -78.5 -13s-48 -20.667 -69 -36
s-39.333 -33.666 -55 -54.999s-27.5 -44.333 -35.5 -69v-662h-259v1094v69h-126v184z" />
    <glyph glyph-name="Imacron" unicode="&#x12a;" horiz-adv-x="569" 
d="M146 1411h277v-1411h-277v1411zM-69 1783h706v-202h-706v202z" />
    <glyph glyph-name="imacron" unicode="&#x12b;" horiz-adv-x="512" 
d="M126 1059h259v-1059h-259v1059zM-97 1448h706v-202h-706v202z" />
    <glyph glyph-name="Iogonek" unicode="&#x12e;" horiz-adv-x="569" 
d="M146 1411l276.999 -0.00195312v-1411c-18 -13.333 -35.667 -28 -53 -44s-32.833 -33.333 -46.5 -52s-24.834 -38.167 -33.501 -58.5s-13 -41.166 -13 -62.499c0 -28 9 -50.667 27 -68s45 -26 81 -26c21.333 0 40.5 2.33301 57.5 7s31.167 9 42.5 13l58 -141
c-8.66699 -4.66699 -20.167 -9.66699 -34.5 -15s-30.666 -10.5 -48.999 -15.5s-38.166 -9.16699 -59.499 -12.5s-43.333 -5 -66 -5c-90.667 0 -159 19.5 -205 58.5s-69 92.167 -69 159.5c0 24 3.83301 48 11.5 72s18.5 47.333 32.5 70s30.5 44.334 49.5 65.001
s40.167 39 63.5 55h-71v1411z" />
    <glyph glyph-name="iogonek" unicode="&#x12f;" horiz-adv-x="512" 
d="M127 1059l259.001 -0.000976562v-1059c-19.333 -14 -37.833 -29.167 -55.5 -45.5s-33.167 -33.666 -46.5 -51.999s-23.833 -37.5 -31.5 -57.5s-10.834 -40.667 -9.50098 -62c2.66699 -31.333 13.667 -54.666 33 -69.999s45 -22.333 77 -21
c19.333 0.666992 36.833 3.16699 52.5 7.5s28.5 9.16602 38.5 14.499l65 -143c-32 -15.333 -67.167 -27.666 -105.5 -36.999s-77.833 -14 -118.5 -14c-84 0 -148.5 18.167 -193.5 54.5s-67.833 87.5 -68.5 153.5c-0.666992 25.333 2.83301 50.666 10.5 75.999
s18.834 49.833 33.501 73.5s32.167 46 52.5 67s43.166 39.5 68.499 55.5h-61v1059zM257.001 1201c-22.667 0 -43.6689 4.33203 -63.002 12.999s-36 20.334 -50 35.001s-25 31.667 -33 51s-12 39.666 -12 60.999c0 20.667 4.16699 40.334 12.5 59.001s19.5 35 33.5 49
s30.333 25 49 33s38.667 12 60 12c22 0 42.833 -3.83301 62.5 -11.5s36.834 -18.334 51.501 -32.001s26.167 -29.834 34.5 -48.501s12.5 -39 12.5 -61c0 -22.667 -4 -43.667 -12 -63s-19.167 -36.166 -33.5 -50.499s-31.166 -25.666 -50.499 -33.999s-40 -12.5 -62 -12.5z
" />
    <glyph glyph-name="Idotaccent" unicode="&#x130;" horiz-adv-x="569" 
d="M146 1411h277v-1411h-277v1411zM281 1533c-22 0 -42.668 4.33105 -62.001 12.998s-36.166 20.334 -50.499 35.001s-25.5 31.667 -33.5 51s-12 39.666 -12 60.999c0 20.667 4.16699 40.334 12.5 59.001s19.5 35 33.5 49s30.5 25.167 49.5 33.5s39.167 12.5 60.5 12.5
c22 0 42.833 -3.83301 62.5 -11.5s36.667 -18.334 51 -32.001s25.666 -30 33.999 -49s12.5 -39.5 12.5 -61.5c0 -22.667 -4 -43.667 -12 -63s-19.167 -36.166 -33.5 -50.499s-31.166 -25.666 -50.499 -33.999s-40 -12.5 -62 -12.5z" />
    <glyph glyph-name="dotlessi" unicode="&#x131;" horiz-adv-x="512" 
d="M126 1059h259v-1059h-259v1059z" />
    <glyph glyph-name="uni0136" unicode="&#x136;" horiz-adv-x="1344" 
d="M146 1411h277v-650l565 650h354l-620 -690l638 -721h-355l-582 680v-680h-277v1411zM579 -114h279l-196 -408h-205z" />
    <glyph glyph-name="uni0137" unicode="&#x137;" horiz-adv-x="1125" 
d="M126 1095c0 68 -0.834961 123.166 -2.50195 165.499s-3.66699 76.333 -6 102s-5.16602 45.667 -8.49902 60s-6.66602 27.5 -9.99902 39.5h254c4 -8 8 -19.167 12 -33.5s7.5 -33.166 10.5 -56.499s5.33301 -52 7 -86s2.5 -75.333 2.5 -124v-531l397 428h346l-496 -508
l512 -551h-346l-413 460v-460h-259v1095zM453.998 -114.001h279l-196 -408h-205z" />
    <glyph glyph-name="Lacute" unicode="&#x139;" horiz-adv-x="1135" 
d="M146 1411h277v-1164h683v-247h-960v1411zM328 1857h348l-324 -333h-251z" />
    <glyph glyph-name="lacute" unicode="&#x13a;" horiz-adv-x="512" 
d="M126 1097c0 67.333 -0.834961 122 -2.50195 164s-3.66699 75.833 -6 101.5s-5.16602 45.667 -8.49902 60s-6.66602 27.5 -9.99902 39.5h253c4 -8 8 -19 12 -33s7.5 -32.667 10.5 -56s5.5 -52 7.5 -86s3 -75.333 3 -124v-1163h-259v1097zM291.998 1904h348l-324 -333h-251
z" />
    <glyph glyph-name="uni013B" unicode="&#x13b;" horiz-adv-x="1135" 
d="M146 1411h277v-1164h683v-247h-960v1411zM527 -114h279l-196 -408h-205z" />
    <glyph glyph-name="uni013C" unicode="&#x13c;" horiz-adv-x="512" 
d="M126 1097c0 67.333 -0.834961 122 -2.50195 164s-3.66699 75.833 -6 101.5s-5.16602 45.667 -8.49902 60s-6.66602 27.5 -9.99902 39.5h253c4 -8 8 -19 12 -33s7.5 -32.667 10.5 -56s5.5 -52 7.5 -86s3 -75.333 3 -124v-1163h-259v1097zM145.998 -114h279l-196 -408h-205
z" />
    <glyph glyph-name="Lcaron" unicode="&#x13d;" horiz-adv-x="1137" 
d="M146 1411h277v-1164h683v-247h-960v1411zM612 1411h261l-76 -435h-185v435z" />
    <glyph glyph-name="lcaron" unicode="&#x13e;" horiz-adv-x="634" 
d="M126 1097c0 67.333 -0.834961 122 -2.50195 164s-3.66699 75.833 -6 101.5s-5.16602 45.667 -8.49902 60s-6.66602 27.5 -9.99902 39.5h254c4 -8 8 -19 12 -33s7.5 -32.667 10.5 -56s5.33301 -52 7 -86s2.5 -75.333 2.5 -124v-1163h-259v1097zM483.998 1462h263l-75 -435
h-188v435z" />
    <glyph glyph-name="Lslash" unicode="&#x141;" horiz-adv-x="1231" 
d="M72 593l170 117v701h277v-509l420 291v-288l-420 -290v-368h681v-247h-958v423l-170 -117v287z" />
    <glyph glyph-name="lslash" unicode="&#x142;" horiz-adv-x="739" 
d="M234 1096c0 68 -0.834961 123 -2.50195 165s-3.66699 75.833 -6 101.5s-5.16602 45.667 -8.49902 60s-7 27.5 -11 39.5h257c4 -8 7.66699 -19 11 -33s6.33301 -32.667 9 -56s4.83398 -52 6.50098 -86s2.5 -75.333 2.5 -124v-187l210 151v-279l-210 -151v-697h-258v512
l-177 -127v279l177 127v305z" />
    <glyph glyph-name="Nacute" unicode="&#x143;" horiz-adv-x="1484" 
d="M1325 -34c-7.33301 0 -17.002 5.66699 -29.002 17l-873 856v-839h-277v1430c0 11.333 4.33301 17 13 17c4.66699 0 8.83398 -1.33301 12.501 -4s8.83398 -7 15.501 -13l438 -428.5l435 -426.5l1 836h276v-1428c0 -11.333 -4 -17 -12 -17zM763.998 1857h348l-324 -333
h-251z" />
    <glyph glyph-name="nacute" unicode="&#x144;" horiz-adv-x="1217" 
d="M126 1059l258.999 -0.00195312v-135c20 26.667 42.333 49.834 67 69.501s51 35.834 79 48.501s56.833 22.167 86.5 28.5s59.167 9.5 88.5 9.5c128.667 0 226.834 -38.333 294.501 -115s101.5 -192 101.5 -346v-619h-259v566c0 48.667 -5.33301 90 -16 124
s-25.5 61.667 -44.5 83s-41.833 37 -68.5 47s-56.334 15 -89.001 15c-27.333 0 -53.666 -4.33301 -78.999 -13s-48.5 -20.667 -69.5 -36s-39.5 -33.5 -55.5 -54.5s-28 -43.833 -36 -68.5v-663h-259v1059zM648.999 1515h348l-324 -334h-251z" />
    <glyph glyph-name="uni0145" unicode="&#x145;" horiz-adv-x="1484" 
d="M1325 -34c-7.33301 0 -17.002 5.66699 -29.002 17l-873 856v-839h-277v1430c0 11.333 4.33301 17 13 17c4.66699 0 8.83398 -1.33301 12.501 -4s8.83398 -7 15.501 -13l438 -428.5l435 -426.5l1 836h276v-1428c0 -11.333 -4 -17 -12 -17zM691.998 -114h279l-196 -408
h-205z" />
    <glyph glyph-name="uni0146" unicode="&#x146;" horiz-adv-x="1217" 
d="M126 1059l258.999 -0.00195312v-135c20 26.667 42.333 49.834 67 69.501s51 35.834 79 48.501s56.833 22.167 86.5 28.5s59.167 9.5 88.5 9.5c128.667 0 226.834 -38.333 294.501 -115s101.5 -192 101.5 -346v-619h-259v566c0 48.667 -5.33301 90 -16 124
s-25.5 61.667 -44.5 83s-41.833 37 -68.5 47s-56.334 15 -89.001 15c-27.333 0 -53.666 -4.33301 -78.999 -13s-48.5 -20.667 -69.5 -36s-39.5 -33.5 -55.5 -54.5s-28 -43.833 -36 -68.5v-663h-259v1059zM528.999 -114.002h279l-196 -408h-205z" />
    <glyph glyph-name="Ncaron" unicode="&#x147;" horiz-adv-x="1484" 
d="M1325 -34c-7.33301 0 -17.002 5.66699 -29.002 17l-873 856v-839h-277v1430c0 11.333 4.33301 17 13 17c4.66699 0 8.83398 -1.33301 12.501 -4s8.83398 -7 15.501 -13l438 -428.5l435 -426.5l1 836h276v-1428c0 -11.333 -4 -17 -12 -17zM326.998 1857h260l152 -173
l152 173h259l-250 -334h-326z" />
    <glyph glyph-name="ncaron" unicode="&#x148;" horiz-adv-x="1217" 
d="M126 1059l258.999 -0.00195312v-135c20 26.667 42.333 49.834 67 69.501s51 35.834 79 48.501s56.833 22.167 86.5 28.5s59.167 9.5 88.5 9.5c128.667 0 226.834 -38.333 294.501 -115s101.5 -192 101.5 -346v-619h-259v566c0 48.667 -5.33301 90 -16 124
s-25.5 61.667 -44.5 83s-41.833 37 -68.5 47s-56.334 15 -89.001 15c-27.333 0 -53.666 -4.33301 -78.999 -13s-48.5 -20.667 -69.5 -36s-39.5 -33.5 -55.5 -54.5s-28 -43.833 -36 -68.5v-663h-259v1059zM210.999 1515h260l152 -173l152 173h259l-250 -334h-326z" />
    <glyph glyph-name="Eng" unicode="&#x14a;" horiz-adv-x="1484" 
d="M987 -473c-46 0 -91.334 5.33398 -136.001 16.001s-89.667 28 -135 52l83 209c16.667 -9.33301 36.334 -17 59.001 -23s46 -9 70 -9c46 0 79.833 13.833 101.5 41.5s32.5 71.834 32.5 132.501v54l-639 749v-749h-277v1429c0 12 4.33301 18 13 18
c5.33301 0 10 -1.66699 14 -5s8.66699 -8 14 -14l875 -1015v998h275v-1477c0 -57.333 -7 -110.833 -21 -160.5s-35.333 -92.834 -64 -129.501s-65 -65.334 -109 -86.001s-96 -31 -156 -31z" />
    <glyph glyph-name="eng" unicode="&#x14b;" horiz-adv-x="1217" 
d="M797 -336c-30 0.666992 -60.167 3.83008 -90.5 9.49707s-57.833 13.5 -82.5 23.5l34 218c12 -4.66699 25.167 -8.5 39.5 -11.5s29.166 -4.5 44.499 -4.5c35.333 0 61 8.83301 77 26.5s24 48.834 24 93.501v547c0 46.667 -5.33301 87 -16 121s-25.5 62 -44.5 84
s-41.833 38.167 -68.5 48.5s-56.334 15.5 -89.001 15.5c-27.333 0 -53.666 -4.33301 -78.999 -13s-48.5 -20.667 -69.5 -36s-39.5 -33.5 -55.5 -54.5s-28 -43.833 -36 -68.5v-663h-259v1059h259v-135c20 26.667 42.333 49.834 67 69.501s51 35.834 79 48.501
s56.833 22.167 86.5 28.5s59.167 9.5 88.5 9.5c128.667 0 226.834 -38.333 294.501 -115s101.5 -192 101.5 -346v-609c0 -109.333 -24.833 -194.333 -74.5 -255s-126.5 -91 -230.5 -91z" />
    <glyph glyph-name="Omacron" unicode="&#x14c;" horiz-adv-x="1591" 
d="M793 -25c-113.333 0 -214.166 18.833 -302.499 56.5s-163.166 89.334 -224.499 155.001s-108 143 -140 232s-48 185.167 -48 288.5c0 102.667 16 198.5 48 287.5s78.667 166.167 140 231.5s136.166 116.666 224.499 153.999s189.166 56 302.499 56
c114 0 215.667 -18.667 305 -56s164.666 -88.666 225.999 -153.999s108.166 -142.5 140.499 -231.5s48.5 -184.833 48.5 -287.5c0 -103.333 -16.167 -199.5 -48.5 -288.5s-79.166 -166.333 -140.499 -232s-136.666 -117.334 -225.999 -155.001s-191 -56.5 -305 -56.5z
M794 221c67.333 0 127.833 12.5 181.5 37.5s99.334 59.5 137.001 103.5s66.5 95.5 86.5 154.5s30 122.5 30 190.5s-10 131.333 -30 190s-48.833 109.834 -86.5 153.501s-83.334 77.834 -137.001 102.501s-114.167 37 -181.5 37c-66.667 0 -126.667 -12.333 -180 -37
s-98.666 -58.834 -135.999 -102.501s-66 -94.834 -86 -153.501s-30 -122 -30 -190s10 -131.5 30 -190.5s48.667 -110.5 86 -154.5s82.666 -78.5 135.999 -103.5s113.333 -37.5 180 -37.5zM442 1783h706v-202h-706v202z" />
    <glyph glyph-name="omacron" unicode="&#x14d;" horiz-adv-x="1228" 
d="M615 -25c-81.333 0 -155.666 13.833 -222.999 41.5s-125.5 66.167 -174.5 115.5s-87 107.833 -114 175.5s-40.5 141.5 -40.5 221.5c0 79.333 13.5 152.666 40.5 219.999s65 125.5 114 174.5s107.167 87.333 174.5 115s141.666 41.5 222.999 41.5
c80.667 0 154.667 -13.833 222 -41.5s125.166 -66 173.499 -115s86 -107.167 113 -174.5s40.5 -140.666 40.5 -219.999c0 -80 -13.5 -153.833 -40.5 -221.5s-64.667 -126.167 -113 -175.5s-106.166 -87.833 -173.499 -115.5s-141.333 -41.5 -222 -41.5zM615 217
c38.667 0 74.5 7.66699 107.5 23s61.5 36.833 85.5 64.5s42.833 60.5 56.5 98.5s20.5 79.667 20.5 125c0 44 -6.83301 84.833 -20.5 122.5s-32.5 70.5 -56.5 98.5s-52.5 49.833 -85.5 65.5s-68.833 23.5 -107.5 23.5s-74.667 -7.83301 -108 -23.5
s-62.166 -37.5 -86.499 -65.5s-43.333 -60.833 -57 -98.5s-20.5 -78.5 -20.5 -122.5c0 -45.333 6.83301 -87 20.5 -125s32.667 -70.833 57 -98.5s53.166 -49.167 86.499 -64.5s69.333 -23 108 -23zM261 1448h706v-202h-706v202z" />
    <glyph glyph-name="Ohungarumlaut" unicode="&#x150;" horiz-adv-x="1591" 
d="M793 -25c-113.333 0 -214.166 18.833 -302.499 56.5s-163.166 89.334 -224.499 155.001s-108 143 -140 232s-48 185.167 -48 288.5c0 102.667 16 198.5 48 287.5s78.667 166.167 140 231.5s136.166 116.666 224.499 153.999s189.166 56 302.499 56
c114 0 215.667 -18.667 305 -56s164.666 -88.666 225.999 -153.999s108.166 -142.5 140.499 -231.5s48.5 -184.833 48.5 -287.5c0 -103.333 -16.167 -199.5 -48.5 -288.5s-79.166 -166.333 -140.499 -232s-136.666 -117.334 -225.999 -155.001s-191 -56.5 -305 -56.5z
M794 221c67.333 0 127.833 12.5 181.5 37.5s99.334 59.5 137.001 103.5s66.5 95.5 86.5 154.5s30 122.5 30 190.5s-10 131.333 -30 190s-48.833 109.834 -86.5 153.501s-83.334 77.834 -137.001 102.501s-114.167 37 -181.5 37c-66.667 0 -126.667 -12.333 -180 -37
s-98.666 -58.834 -135.999 -102.501s-66 -94.834 -86 -153.501s-30 -122 -30 -190s10 -131.5 30 -190.5s48.667 -110.5 86 -154.5s82.666 -78.5 135.999 -103.5s113.333 -37.5 180 -37.5zM1073 1857h319l-299 -334h-258zM628 1857h294l-248 -334h-247z" />
    <glyph glyph-name="ohungarumlaut" unicode="&#x151;" horiz-adv-x="1228" 
d="M615 -25c-81.333 0 -155.666 13.833 -222.999 41.5s-125.5 66.167 -174.5 115.5s-87 107.833 -114 175.5s-40.5 141.5 -40.5 221.5c0 79.333 13.5 152.666 40.5 219.999s65 125.5 114 174.5s107.167 87.333 174.5 115s141.666 41.5 222.999 41.5
c80.667 0 154.667 -13.833 222 -41.5s125.166 -66 173.499 -115s86 -107.167 113 -174.5s40.5 -140.666 40.5 -219.999c0 -80 -13.5 -153.833 -40.5 -221.5s-64.667 -126.167 -113 -175.5s-106.166 -87.833 -173.499 -115.5s-141.333 -41.5 -222 -41.5zM615 217
c38.667 0 74.5 7.66699 107.5 23s61.5 36.833 85.5 64.5s42.833 60.5 56.5 98.5s20.5 79.667 20.5 125c0 44 -6.83301 84.833 -20.5 122.5s-32.5 70.5 -56.5 98.5s-52.5 49.833 -85.5 65.5s-68.833 23.5 -107.5 23.5s-74.667 -7.83301 -108 -23.5
s-62.166 -37.5 -86.499 -65.5s-43.333 -60.833 -57 -98.5s-20.5 -78.5 -20.5 -122.5c0 -45.333 6.83301 -87 20.5 -125s32.667 -70.833 57 -98.5s53.166 -49.167 86.499 -64.5s69.333 -23 108 -23zM902 1515h319l-299 -334h-258zM457 1515h294l-248 -334h-247z" />
    <glyph glyph-name="OE" unicode="&#x152;" horiz-adv-x="2159" 
d="M829 0c-114 0 -217.333 15.667 -310 47s-171.5 77.166 -236.5 137.499s-115.167 134.333 -150.5 222s-53 187.834 -53 300.501c0 112 17.667 211.667 53 299s85.5 161 150.5 221s143.833 105.667 236.5 137s196 47 310 47h1237v-247h-761v-331h702v-247h-702v-339h761
v-247h-1237zM1029 249v916h-200c-72.667 0 -137.834 -10 -195.501 -30s-106.5 -49.5 -146.5 -88.5s-70.5 -86.833 -91.5 -143.5s-31.5 -122 -31.5 -196s10.5 -139.5 31.5 -196.5s51.5 -104.833 91.5 -143.5s88.833 -68 146.5 -88s122.834 -30 195.501 -30h200z" />
    <glyph glyph-name="oe" unicode="&#x153;" horiz-adv-x="1982" 
d="M602 -25c-74 0 -143.832 13.1699 -209.499 39.5029s-122.834 63.666 -171.501 111.999s-87.167 106.5 -115.5 174.5s-42.5 144 -42.5 228c0 79.333 13.667 152.666 41 219.999s65 125.5 113 174.5s104.833 87.333 170.5 115s136.834 41.5 213.501 41.5
c88.667 0 167.667 -16.833 237 -50.5s128 -83.167 176 -148.5c20.667 32 45.834 60.333 75.501 85s62.167 45.5 97.5 62.5s72.833 29.833 112.5 38.5s80.167 13 121.5 13c71.333 0 137.333 -11.833 198 -35.5s113.167 -58 157.5 -103s79.166 -99.833 104.499 -164.5
s38.333 -138 39 -220c0 -38.667 -1 -65.334 -3 -80.001l-741 -60c7.33301 -31.333 18.666 -60.333 33.999 -87s34.333 -49.667 57 -69s49.167 -34.333 79.5 -45s64.166 -16 101.499 -16c51.333 0 101.666 9.83301 150.999 29.5s95 50.5 137 92.5l161 -162
c-56.667 -60.667 -125.167 -106.667 -205.5 -138s-168.166 -47 -263.499 -47c-43.333 0 -85.5 4.66699 -126.5 14s-79.667 22.833 -116 40.5s-69.166 39.167 -98.499 64.5s-54 54 -74 86c-20.667 -31.333 -45.5 -59.5 -74.5 -84.5s-61 -46.5 -96 -64.5
s-72.833 -31.833 -113.5 -41.5s-83 -14.5 -127 -14.5zM609.001 214.003c39.333 0 75.5 7.66602 108.5 22.999s61.5 37 85.5 65s42.667 61.167 56 99.5s20 80.5 20 126.5c0 44.667 -6.66699 86.167 -20 124.5s-32 71.5 -56 99.5s-52.5 50 -85.5 66s-69.167 24 -108.5 24
c-40 0 -76.667 -8 -110 -24s-62 -38 -86 -66s-42.667 -61.167 -56 -99.5s-20 -79.833 -20 -124.5c0 -45.333 6.66699 -87.166 20 -125.499s32 -71.5 56 -99.5s52.667 -49.833 86 -65.5s70 -23.5 110 -23.5zM1649 627.002c-1.33301 33.333 -7.83301 64.3311 -19.5 92.998
s-27.5 53.334 -47.5 74.001s-44.167 36.834 -72.5 48.501s-59.833 17.5 -94.5 17.5c-29.333 0 -58.5 -5.66699 -87.5 -17s-55.333 -28.5 -79 -51.5s-43.167 -51.5 -58.5 -85.5s-24 -74 -26 -120z" />
    <glyph glyph-name="Racute" unicode="&#x154;" horiz-adv-x="1336" 
d="M146 1411l561.001 0.00195312c180 0 313.833 -37.333 401.5 -112s131.5 -183.334 131.5 -326.001c0 -120.667 -30.833 -215.834 -92.5 -285.501s-148.834 -115.5 -261.501 -137.5l398 -550h-322l-373 532h-166v-532h-277v1411zM698.001 762.002
c172.667 0 259 67.667 259 203c0 36 -6 66.833 -18 92.5s-29.333 46.5 -52 62.5s-50 27.833 -82 35.5s-68.333 11.5 -109 11.5h-273v-405h275zM689.001 1857h348l-324 -333h-251z" />
    <glyph glyph-name="racute" unicode="&#x155;" horiz-adv-x="814" 
d="M126 1059h258.999v-131c32.667 46.667 73.167 83.667 121.5 111s100.5 41 156.5 41c28 0 53.5 -2.16699 76.5 -6.5s43.833 -10.5 62.5 -18.5l-49 -273c-22.667 11.333 -47.167 20.5 -73.5 27.5s-52.166 10.5 -77.499 10.5c-50.667 0 -95 -13.333 -133 -40
s-66 -64 -84 -112v-668h-259v1059zM473.999 1515h348l-324 -334h-251z" />
    <glyph glyph-name="uni0156" unicode="&#x156;" horiz-adv-x="1336" 
d="M146 1411l561.001 0.00195312c180 0 313.833 -37.333 401.5 -112s131.5 -183.334 131.5 -326.001c0 -120.667 -30.833 -215.834 -92.5 -285.501s-148.834 -115.5 -261.501 -137.5l398 -550h-322l-373 532h-166v-532h-277v1411zM698.001 762.002
c172.667 0 259 67.667 259 203c0 36 -6 66.833 -18 92.5s-29.333 46.5 -52 62.5s-50 27.833 -82 35.5s-68.333 11.5 -109 11.5h-273v-405h275zM576.001 -113.998h279l-196 -408h-205z" />
    <glyph glyph-name="uni0157" unicode="&#x157;" horiz-adv-x="814" 
d="M126 1059h258.999v-131c32.667 46.667 73.167 83.667 121.5 111s100.5 41 156.5 41c28 0 53.5 -2.16699 76.5 -6.5s43.833 -10.5 62.5 -18.5l-49 -273c-22.667 11.333 -47.167 20.5 -73.5 27.5s-52.166 10.5 -77.499 10.5c-50.667 0 -95 -13.333 -133 -40
s-66 -64 -84 -112v-668h-259v1059zM148.999 -114h279l-196 -408h-205z" />
    <glyph glyph-name="Rcaron" unicode="&#x158;" horiz-adv-x="1336" 
d="M146 1411l561.001 0.00195312c180 0 313.833 -37.333 401.5 -112s131.5 -183.334 131.5 -326.001c0 -120.667 -30.833 -215.834 -92.5 -285.501s-148.834 -115.5 -261.501 -137.5l398 -550h-322l-373 532h-166v-532h-277v1411zM698.001 762.002
c172.667 0 259 67.667 259 203c0 36 -6 66.833 -18 92.5s-29.333 46.5 -52 62.5s-50 27.833 -82 35.5s-68.333 11.5 -109 11.5h-273v-405h275zM256.001 1857h260l152 -173l152 173h259l-250 -334h-326z" />
    <glyph glyph-name="rcaron" unicode="&#x159;" horiz-adv-x="814" 
d="M126 1059h258.999v-131c32.667 46.667 73.167 83.667 121.5 111s100.5 41 156.5 41c28 0 53.5 -2.16699 76.5 -6.5s43.833 -10.5 62.5 -18.5l-49 -273c-22.667 11.333 -47.167 20.5 -73.5 27.5s-52.166 10.5 -77.499 10.5c-50.667 0 -95 -13.333 -133 -40
s-66 -64 -84 -112v-668h-259v1059zM15.999 1515h260l152 -173l152 173h259l-250 -334h-326z" />
    <glyph glyph-name="Sacute" unicode="&#x15a;" horiz-adv-x="1255" 
d="M631 -25c-47.333 0 -96.1699 2.83984 -146.503 8.50684s-100.5 15 -150.5 28s-99 30 -147 51s-94 46.833 -138 77.5l114 237c29.333 -20.667 60.666 -40.334 93.999 -59.001s69 -35 107 -49s78.667 -25.167 122 -33.5s89.333 -12.5 138 -12.5c30 0 60.833 2.66699 92.5 8
s60.667 14.666 87 27.999s47.833 31.333 64.5 54s25 51.667 25 87c0 22 -4.5 41.333 -13.5 58s-21.333 31.167 -37 43.5s-34.5 23.166 -56.5 32.499s-46.333 17.666 -73 24.999c-12 3.33301 -29.333 7.5 -52 12.5l-71.5 15.5l-72 16c-23 5.33301 -41.5 10 -55.5 14
c-46 12.667 -90.833 28.167 -134.5 46.5s-82.167 42 -115.5 71s-60.166 65.167 -80.499 108.5s-30.5 96.333 -30.5 159c0 70.667 13.833 133 41.5 187s66 99.333 115 136s107.167 64.334 174.5 83.001s140.333 28 219 28c44 0 88.167 -2.83301 132.5 -8.5
s88.333 -14.334 132 -26.001s86.5 -26.334 128.5 -44.001s82 -38.834 120 -63.501l-108 -225c-24 15.333 -51.167 30.166 -81.5 44.499s-62.666 27.166 -96.999 38.499s-70.166 20.5 -107.499 27.5s-75 10.5 -113 10.5c-28 0 -57.333 -2.5 -88 -7.5s-59 -13.667 -85 -26
s-47.5 -29.166 -64.5 -50.499s-25.5 -48.333 -25.5 -81c0 -23.333 5.16699 -43.5 15.5 -60.5s24.333 -31.667 42 -44s38.334 -23 62.001 -32s49.167 -17.167 76.5 -24.5c12.667 -3.33301 29.5 -7.33301 50.5 -12l66.5 -15.5l70 -17l61 -14.5c46 -12.667 90 -28.5 132 -47.5
s79.167 -43.167 111.5 -72.5s58 -64.833 77 -106.5s28.5 -91.167 28.5 -148.5c0 -80 -15.167 -148.667 -45.5 -206s-71 -104.5 -122 -141.5s-110 -64.167 -177 -81.5s-137.5 -26 -211.5 -26zM679.996 1857.01h348l-324 -333h-251z" />
    <glyph glyph-name="sacute" unicode="&#x15b;" horiz-adv-x="1008" 
d="M498 -25c-41.333 0 -82.9971 2.33301 -124.997 7s-82.833 11.5 -122.5 20.5s-77.5 20.5 -113.5 34.5s-68.667 30.667 -98 50l91 217c51.333 -32 107 -58.5 167 -79.5s126.667 -31.5 200 -31.5c114.667 0 172 35.333 172 106c0 27.333 -10.5 48.5 -31.5 63.5
s-55.833 28.5 -104.5 40.5c-22.667 6 -46.167 11.833 -70.5 17.5s-48.833 12 -73.5 19s-49 14.667 -73 23s-46.667 18.166 -68 29.499c-50.667 24.667 -88.667 57 -114 97s-38 90.667 -38 152c0 54 9.5 102 28.5 144s46.667 77.5 83 106.5s80.5 51 132.5 66
s111 22.5 177 22.5c82 0 158.333 -9 229 -27s131.334 -42 182.001 -72l-78 -208l-73 32.5c-25.333 11 -51.333 20.833 -78 29.5s-53.834 15.667 -81.501 21s-55.167 8 -82.5 8c-58.667 0 -101.834 -8.66699 -129.501 -26s-41.5 -42 -41.5 -74
c0 -15.333 3.5 -28.166 10.5 -38.499s16.667 -19.333 29 -27s26.666 -14.5 42.999 -20.5s33.833 -11.667 52.5 -17l53.5 -14l45 -11.5l43.5 -11.5l50 -14c39.333 -12 74.5 -26.333 105.5 -43s57.333 -36.5 79 -59.5s38.167 -49.667 49.5 -80s17 -64.833 17 -103.5
c0 -54 -9.5 -102.5 -28.5 -145.5s-47 -79.5 -84 -109.5s-83.333 -53.167 -139 -69.5s-119.834 -24.5 -192.501 -24.5zM552.003 1515h348l-324 -334h-251z" />
    <glyph glyph-name="Scedilla" unicode="&#x15e;" horiz-adv-x="1255" 
d="M611 -485c-74.667 0 -141.335 14.6729 -200.002 44.0059l49 129c14 -5.33301 30 -10 48 -14s36.667 -6 56 -6c32 0 58.5 6.5 79.5 19.5s31.833 33.167 32.5 60.5c0 18.667 -4.83301 33.834 -14.5 45.501s-22.334 21 -38.001 28s-33.167 11.833 -52.5 14.5
s-38.666 4.33398 -57.999 5.00098l50 136c-43.333 2 -87.166 6.5 -131.499 13.5s-88.5 17 -132.5 30s-87 29.333 -129 49s-82.333 43.167 -121 70.5l114 237c29.333 -20.667 60.666 -40.334 93.999 -59.001s69 -35 107 -49s78.667 -25.167 122 -33.5s89.333 -12.5 138 -12.5
c30 0 60.833 2.66699 92.5 8s60.667 14.666 87 27.999s47.833 31.333 64.5 54s25 51.667 25 87c0 22 -4.5 41.333 -13.5 58s-21.333 31.167 -37 43.5s-34.5 23.166 -56.5 32.499s-46.333 17.666 -73 24.999c-12 3.33301 -29.333 7.5 -52 12.5l-71.5 15.5l-72 16
c-23 5.33301 -41.5 10 -55.5 14c-46 12.667 -90.833 28.167 -134.5 46.5s-82.167 42 -115.5 71s-60.166 65.167 -80.499 108.5s-30.5 96.333 -30.5 159c0 70.667 13.833 133 41.5 187s66 99.333 115 136s107.167 64.334 174.5 83.001s140.333 28 219 28
c44 0 88.167 -2.83301 132.5 -8.5s88.333 -14.334 132 -26.001s86.5 -26.334 128.5 -44.001s82 -38.834 120 -63.501l-108 -225c-24 15.333 -51.167 30.166 -81.5 44.499s-62.666 27.166 -96.999 38.499s-70.166 20.5 -107.499 27.5s-75 10.5 -113 10.5
c-28 0 -57.333 -2.5 -88 -7.5s-59 -13.667 -85 -26s-47.5 -29.166 -64.5 -50.499s-25.5 -48.333 -25.5 -81c0 -23.333 5 -43.5 15 -60.5s23.667 -31.667 41 -44s38 -23 62 -32s50 -17.167 78 -24.5c12.667 -3.33301 29.5 -7.33301 50.5 -12l66.5 -15.5l70 -17l61 -14.5
c46 -12.667 90 -28.5 132 -47.5s79.167 -43.167 111.5 -72.5s58 -64.833 77 -106.5s28.5 -91.167 28.5 -148.5c0 -70.667 -11.833 -132.334 -35.5 -185.001s-56 -97.334 -97 -134.001s-88.833 -65.667 -143.5 -87s-113.334 -35.666 -176.001 -42.999l-23 -56
c54 -10.667 96.833 -32.834 128.5 -66.501s47.5 -75.167 47.5 -124.5c0 -33.333 -6.33301 -63.333 -19 -90s-31 -49.667 -55 -69s-53.167 -34.166 -87.5 -44.499s-72.833 -15.5 -115.5 -15.5z" />
    <glyph glyph-name="scedilla" unicode="&#x15f;" horiz-adv-x="1008" 
d="M476 -485c-74 0 -140.998 14.6641 -200.998 43.9971l49 129c15.333 -5.33301 31.833 -10 49.5 -14s36.167 -6 55.5 -6c32 0 58.667 6.5 80 19.5s32 33.167 32 60.5c0 18.667 -4.83301 33.834 -14.5 45.501s-22.334 21 -38.001 28s-33.167 11.833 -52.5 14.5
s-38.333 4.33398 -57 5.00098l49 136c-36 2 -71.833 5.83301 -107.5 11.5s-70.167 13 -103.5 22s-65.166 19.833 -95.499 32.5s-57.833 27.334 -82.5 44.001l91 217c51.333 -32 107 -58.5 167 -79.5s126.667 -31.5 200 -31.5c114.667 0 172 35.333 172 106
c0 27.333 -10.5 48.5 -31.5 63.5s-55.833 28.5 -104.5 40.5c-22.667 6 -46.167 11.833 -70.5 17.5s-48.833 12 -73.5 19s-49 14.667 -73 23s-46.667 18.166 -68 29.499c-50.667 24.667 -88.667 57 -114 97s-38 90.667 -38 152c0 54 9.5 102 28.5 144s46.667 77.5 83 106.5
s80.5 51 132.5 66s111 22.5 177 22.5c82 0 158.333 -9 229 -27s131.334 -42 182.001 -72l-78 -208l-73 32.5c-25.333 11 -51.333 20.833 -78 29.5s-53.834 15.667 -81.501 21s-55.167 8 -82.5 8c-58.667 0 -101.834 -8.66699 -129.501 -26s-41.5 -42 -41.5 -74
c0 -15.333 3.5 -28.166 10.5 -38.499s16.667 -19.333 29 -27s26.666 -14.5 42.999 -20.5s33.833 -11.667 52.5 -17l53.5 -14l45 -11.5l43.5 -11.5l50 -14c39.333 -12 74.5 -26.333 105.5 -43s57.333 -36.5 79 -59.5s38.167 -49.667 49.5 -80s17 -64.833 17 -103.5
c0 -94 -28.833 -171.167 -86.5 -231.5s-142.5 -97.5 -254.5 -111.5l-24 -56c54 -10.667 96.833 -32.834 128.5 -66.501s47.5 -75.167 47.5 -124.5c0 -33.333 -6.33301 -63.333 -19 -90s-30.834 -49.667 -54.501 -69s-52.667 -34.166 -87 -44.499
s-73.166 -15.5 -116.499 -15.5z" />
    <glyph glyph-name="Scaron" unicode="&#x160;" horiz-adv-x="1255" 
d="M631 -25c-47.333 0 -96.1699 2.83984 -146.503 8.50684s-100.5 15 -150.5 28s-99 30 -147 51s-94 46.833 -138 77.5l114 237c29.333 -20.667 60.666 -40.334 93.999 -59.001s69 -35 107 -49s78.667 -25.167 122 -33.5s89.333 -12.5 138 -12.5c30 0 60.833 2.66699 92.5 8
s60.667 14.666 87 27.999s47.833 31.333 64.5 54s25 51.667 25 87c0 22 -4.5 41.333 -13.5 58s-21.333 31.167 -37 43.5s-34.5 23.166 -56.5 32.499s-46.333 17.666 -73 24.999c-12 3.33301 -29.333 7.5 -52 12.5l-71.5 15.5l-72 16c-23 5.33301 -41.5 10 -55.5 14
c-46 12.667 -90.833 28.167 -134.5 46.5s-82.167 42 -115.5 71s-60.166 65.167 -80.499 108.5s-30.5 96.333 -30.5 159c0 70.667 13.833 133 41.5 187s66 99.333 115 136s107.167 64.334 174.5 83.001s140.333 28 219 28c44 0 88.167 -2.83301 132.5 -8.5
s88.333 -14.334 132 -26.001s86.5 -26.334 128.5 -44.001s82 -38.834 120 -63.501l-108 -225c-24 15.333 -51.167 30.166 -81.5 44.499s-62.666 27.166 -96.999 38.499s-70.166 20.5 -107.499 27.5s-75 10.5 -113 10.5c-28 0 -57.333 -2.5 -88 -7.5s-59 -13.667 -85 -26
s-47.5 -29.166 -64.5 -50.499s-25.5 -48.333 -25.5 -81c0 -23.333 5.16699 -43.5 15.5 -60.5s24.333 -31.667 42 -44s38.334 -23 62.001 -32s49.167 -17.167 76.5 -24.5c12.667 -3.33301 29.5 -7.33301 50.5 -12l66.5 -15.5l70 -17l61 -14.5c46 -12.667 90 -28.5 132 -47.5
s79.167 -43.167 111.5 -72.5s58 -64.833 77 -106.5s28.5 -91.167 28.5 -148.5c0 -80 -15.167 -148.667 -45.5 -206s-71 -104.5 -122 -141.5s-110 -64.167 -177 -81.5s-137.5 -26 -211.5 -26zM225.996 1857.01h260l152 -173l152 173h259l-250 -334h-326z" />
    <glyph glyph-name="scaron" unicode="&#x161;" horiz-adv-x="1008" 
d="M498 -25c-41.333 0 -82.9971 2.33301 -124.997 7s-82.833 11.5 -122.5 20.5s-77.5 20.5 -113.5 34.5s-68.667 30.667 -98 50l91 217c51.333 -32 107 -58.5 167 -79.5s126.667 -31.5 200 -31.5c114.667 0 172 35.333 172 106c0 27.333 -10.5 48.5 -31.5 63.5
s-55.833 28.5 -104.5 40.5c-22.667 6 -46.167 11.833 -70.5 17.5s-48.833 12 -73.5 19s-49 14.667 -73 23s-46.667 18.166 -68 29.499c-50.667 24.667 -88.667 57 -114 97s-38 90.667 -38 152c0 54 9.5 102 28.5 144s46.667 77.5 83 106.5s80.5 51 132.5 66
s111 22.5 177 22.5c82 0 158.333 -9 229 -27s131.334 -42 182.001 -72l-78 -208l-73 32.5c-25.333 11 -51.333 20.833 -78 29.5s-53.834 15.667 -81.501 21s-55.167 8 -82.5 8c-58.667 0 -101.834 -8.66699 -129.501 -26s-41.5 -42 -41.5 -74
c0 -15.333 3.5 -28.166 10.5 -38.499s16.667 -19.333 29 -27s26.666 -14.5 42.999 -20.5s33.833 -11.667 52.5 -17l53.5 -14l45 -11.5l43.5 -11.5l50 -14c39.333 -12 74.5 -26.333 105.5 -43s57.333 -36.5 79 -59.5s38.167 -49.667 49.5 -80s17 -64.833 17 -103.5
c0 -54 -9.5 -102.5 -28.5 -145.5s-47 -79.5 -84 -109.5s-83.333 -53.167 -139 -69.5s-119.834 -24.5 -192.501 -24.5zM126.003 1515h260l152 -173l152 173h259l-250 -334h-326z" />
    <glyph glyph-name="uni0162" unicode="&#x162;" horiz-adv-x="1221" 
d="M474 1164l-446.999 -0.00195312v247h1169v-247h-447v-1164h-44l-31 -75c54 -10.667 96.667 -32.834 128 -66.501s47 -75.167 47 -124.5c0 -33.333 -6.33301 -63.333 -19 -90s-31 -49.667 -55 -69s-53.167 -34.166 -87.5 -44.499s-72.833 -15.5 -115.5 -15.5
c-74.667 0 -141.334 14.667 -200.001 44l48 129c15.333 -5.33301 32 -10 50 -14s36.333 -6 55 -6c32 0 58.833 6.5 80.5 19.5s32.5 33.167 32.5 60.5c0 18.667 -4.83301 33.834 -14.5 45.501s-22.334 21 -38.001 28s-33.167 11.833 -52.5 14.5
s-38.666 4.33398 -57.999 5.00098l57 159h-58v1164z" />
    <glyph glyph-name="uni0163" unicode="&#x163;" horiz-adv-x="846" 
d="M457 -485c-75.333 0 -142.333 14.6641 -201 43.9971l50 129c14 -5.33301 30.167 -10 48.5 -14s37.166 -6 56.499 -6c32 0 58.333 6.5 79 19.5s31 33.167 31 60.5c0 18.667 -4.83301 33.834 -14.5 45.501s-22.167 21 -37.5 28s-32.666 11.833 -51.999 14.5
s-38.333 4.33398 -57 5.00098l55 152c-70.667 21.333 -122.667 63 -156 125s-50 143.667 -50 245v471h-180v225h180v291h260v-291h328v-225h-328v-408c0 -39.333 2.5 -72.666 7.5 -99.999s12.833 -49.5 23.5 -66.5s24.334 -29.333 41.001 -37s36.667 -11.5 60 -11.5
c29.333 0 59 5.33301 89 16s55 22.667 75 36l86 -199c-40.667 -25.333 -84.834 -45.333 -132.501 -60s-94.167 -23.667 -139.5 -27l-21 -52c54 -10.667 97 -32.834 129 -66.501s48 -75.167 48 -124.5c0 -33.333 -6.5 -63.333 -19.5 -90s-31.5 -49.667 -55.5 -69
s-53.167 -34.166 -87.5 -44.499s-72.833 -15.5 -115.5 -15.5z" />
    <glyph glyph-name="Tcaron" unicode="&#x164;" horiz-adv-x="1221" 
d="M473 1164h-446v247h1169v-247h-446v-1164h-277v1164zM200 1857h260l152 -173l152 173h259l-250 -334h-326z" />
    <glyph glyph-name="tcaron" unicode="&#x165;" horiz-adv-x="851" 
d="M544 -25c-114.667 0 -199.169 32.665 -253.502 97.998s-81.5 162 -81.5 290v471h-180v225h180v291h260v-291h328v-225h-328v-408c0 -39.333 2.5 -72.666 7.5 -99.999s12.833 -49.5 23.5 -66.5s24.334 -29.333 41.001 -37s36.667 -11.5 60 -11.5
c29.333 0 59 5.33301 89 16s55 22.667 75 36l86 -199c-23.333 -14 -47.833 -26.667 -73.5 -38s-51.667 -20.666 -78 -27.999s-52.666 -13 -78.999 -17s-51.833 -6 -76.5 -6zM571.998 1571h263l-73 -428h-190v428z" />
    <glyph glyph-name="Tbar" unicode="&#x166;" horiz-adv-x="1236" 
d="M209 826h273v338h-447v247h1168v-247h-446v-338h278v-226h-278v-600h-275v600h-273v226z" />
    <glyph glyph-name="tbar" unicode="&#x167;" horiz-adv-x="861" 
d="M85 650l130.999 -0.000976562v184h-180v225h180v291h260v-291h329v-225h-329v-184h247v-184h-247v-40c0 -39.333 2.5 -72.666 7.5 -99.999s12.833 -49.5 23.5 -66.5s24.334 -29.333 41.001 -37s36.667 -11.5 60 -11.5c14 0 28.667 1.5 44 4.5s30.166 7 44.499 12
s27.833 10.5 40.5 16.5s24 12.333 34 19l88 -199c-46 -28.667 -96.333 -50.667 -151 -66s-106.667 -23 -156 -23c-115.333 0 -200.166 32.667 -254.499 98s-81.5 162 -81.5 290v103h-131v184z" />
    <glyph glyph-name="Umacron" unicode="&#x16a;" horiz-adv-x="1444" 
d="M722 -25c-97.333 0 -182.666 13 -255.999 39s-134.833 66 -184.5 120s-87 122.333 -112 205s-37.5 180.667 -37.5 294v778h275v-769c0 -143.333 26.667 -249 80 -317s131.666 -102 234.999 -102s182.166 34 236.499 102s81.5 173.667 81.5 317v769h273v-778
c0 -113.333 -12.667 -211.333 -38 -294s-62.666 -151 -111.999 -205s-111 -94 -185 -120s-159.333 -39 -256 -39zM372 1783h706v-202h-706v202z" />
    <glyph glyph-name="umacron" unicode="&#x16b;" horiz-adv-x="1222" 
d="M511 -25c-61.333 0 -116.334 9.16895 -165.001 27.502s-90 45.666 -124 81.999s-60.167 81.833 -78.5 136.5s-27.5 118.667 -27.5 192v646h259v-574c0 -92 18.5 -159 55.5 -201s87.167 -63 150.5 -63c26 0 52 4.33301 78 13s50.333 20.667 73 36
s42.834 33.666 60.501 54.999s31.167 45 40.5 71v663h259v-651c0 -58.667 0.833008 -109.167 2.5 -151.5s3.66699 -79.333 6 -111s5 -59 8 -82s6.16699 -44.167 9.5 -63.5h-263c-4.66699 12.667 -8.66699 29.667 -12 51s-6 45.333 -8 72c-20 -26 -42.5 -48.333 -67.5 -67
s-51.5 -34 -79.5 -46s-57 -20.833 -87 -26.5s-60 -8.5 -90 -8.5zM269.999 1448h706v-202h-706v202z" />
    <glyph glyph-name="Uring" unicode="&#x16e;" horiz-adv-x="1444" 
d="M722 -25c-97.333 0 -182.666 13 -255.999 39s-134.833 66 -184.5 120s-87 122.333 -112 205s-37.5 180.667 -37.5 294v778h275v-769c0 -143.333 26.667 -249 80 -317s131.666 -102 234.999 -102s182.166 34 236.499 102s81.5 173.667 81.5 317v769h273v-778
c0 -113.333 -12.667 -211.333 -38 -294s-62.666 -151 -111.999 -205s-111 -94 -185 -120s-159.333 -39 -256 -39zM724 1498c-39.333 0 -76.333 6.83301 -111 20.5s-64.667 32.667 -90 57s-45.333 53.166 -60 86.499s-22 69.333 -22 108s7.33301 74.5 22 107.5
s34.667 61.667 60 86s55.333 43.5 90 57.5s71.667 21 111 21c38.667 0 75 -7 109 -21s63.667 -33.167 89 -57.5s45.333 -53 60 -86s22 -68.833 22 -107.5s-7.33301 -74.667 -22 -108s-34.667 -62.166 -60 -86.499s-55 -43.333 -89 -57s-70.333 -20.5 -109 -20.5zM724 1649
c16 0 31 3 45 9s26 14.5 36 25.5s18 23.833 24 38.5s9 30.334 9 47.001c0 16 -3 31.5 -9 46.5s-14 28 -24 39s-22 19.833 -36 26.5s-29 10 -45 10c-16.667 0 -32.334 -3.33301 -47.001 -10s-27.334 -15.5 -38.001 -26.5s-19 -24 -25 -39s-9 -30.5 -9 -46.5
c0 -16.667 3 -32.334 9 -47.001s14.333 -27.5 25 -38.5s23.334 -19.5 38.001 -25.5s30.334 -9 47.001 -9z" />
    <glyph glyph-name="uring" unicode="&#x16f;" horiz-adv-x="1222" 
d="M511 -25c-61.333 0 -116.334 9.16895 -165.001 27.502s-90 45.666 -124 81.999s-60.167 81.833 -78.5 136.5s-27.5 118.667 -27.5 192v646h259v-574c0 -92 18.5 -159 55.5 -201s87.167 -63 150.5 -63c26 0 52 4.33301 78 13s50.333 20.667 73 36
s42.834 33.666 60.501 54.999s31.167 45 40.5 71v663h259v-651c0 -58.667 0.833008 -109.167 2.5 -151.5s3.66699 -79.333 6 -111s5 -59 8 -82s6.16699 -44.167 9.5 -63.5h-263c-4.66699 12.667 -8.66699 29.667 -12 51s-6 45.333 -8 72c-20 -26 -42.5 -48.333 -67.5 -67
s-51.5 -34 -79.5 -46s-57 -20.833 -87 -26.5s-60 -8.5 -90 -8.5zM634.999 1159c-39.333 0 -76.333 6.83301 -111 20.5s-64.667 32.667 -90 57s-45.333 53.166 -60 86.499s-22 69.333 -22 108s7.33301 74.5 22 107.5s34.667 61.667 60 86s55.333 43.5 90 57.5
s71.667 21 111 21c38.667 0 75 -7 109 -21s63.667 -33.167 89 -57.5s45.333 -53 60 -86s22 -68.833 22 -107.5s-7.33301 -74.667 -22 -108s-34.667 -62.166 -60 -86.499s-55 -43.333 -89 -57s-70.333 -20.5 -109 -20.5zM634.999 1310c16 0 31 3 45 9s26 14.5 36 25.5
s18 23.833 24 38.5s9 30.334 9 47.001c0 16 -3 31.5 -9 46.5s-14 28 -24 39s-22 19.833 -36 26.5s-29 10 -45 10c-16.667 0 -32.334 -3.33301 -47.001 -10s-27.334 -15.5 -38.001 -26.5s-19 -24 -25 -39s-9 -30.5 -9 -46.5c0 -16.667 3 -32.334 9 -47.001
s14.333 -27.5 25 -38.5s23.334 -19.5 38.001 -25.5s30.334 -9 47.001 -9z" />
    <glyph glyph-name="Uhungarumlaut" unicode="&#x170;" horiz-adv-x="1444" 
d="M722 -25c-97.333 0 -182.666 13 -255.999 39s-134.833 66 -184.5 120s-87 122.333 -112 205s-37.5 180.667 -37.5 294v778h275v-769c0 -143.333 26.667 -249 80 -317s131.666 -102 234.999 -102s182.166 34 236.499 102s81.5 173.667 81.5 317v769h273v-778
c0 -113.333 -12.667 -211.333 -38 -294s-62.666 -151 -111.999 -205s-111 -94 -185 -120s-159.333 -39 -256 -39zM1006 1857h319l-299 -334h-258zM561 1857h294l-248 -334h-247z" />
    <glyph glyph-name="uhungarumlaut" unicode="&#x171;" horiz-adv-x="1222" 
d="M511 -25c-61.333 0 -116.334 9.16895 -165.001 27.502s-90 45.666 -124 81.999s-60.167 81.833 -78.5 136.5s-27.5 118.667 -27.5 192v646h259v-574c0 -92 18.5 -159 55.5 -201s87.167 -63 150.5 -63c26 0 52 4.33301 78 13s50.333 20.667 73 36
s42.834 33.666 60.501 54.999s31.167 45 40.5 71v663h259v-651c0 -58.667 0.833008 -109.167 2.5 -151.5s3.66699 -79.333 6 -111s5 -59 8 -82s6.16699 -44.167 9.5 -63.5h-263c-4.66699 12.667 -8.66699 29.667 -12 51s-6 45.333 -8 72c-20 -26 -42.5 -48.333 -67.5 -67
s-51.5 -34 -79.5 -46s-57 -20.833 -87 -26.5s-60 -8.5 -90 -8.5zM893.999 1515h319l-299 -334h-258zM448.999 1515h294l-248 -334h-247z" />
    <glyph glyph-name="Uogonek" unicode="&#x172;" horiz-adv-x="1444" 
d="M841 -480c-89.333 0 -157.163 18.499 -203.496 55.499s-71.833 88.5 -76.5 154.5c-3.33301 44.667 6.33398 88.5 29.001 131.5s54 81.167 94 114.5c-91.333 3.33301 -171.333 18.833 -240 46.5s-126.167 68.5 -172.5 122.5s-81.166 121.5 -104.499 202.5
s-35 176.167 -35 285.5v778h275v-769c0 -143.333 26.667 -249 80 -317s131.666 -102 234.999 -102s182.166 34 236.499 102s81.5 173.667 81.5 317v769h273v-778c0 -186 -33.833 -331.167 -101.5 -435.5s-167.167 -171.833 -298.5 -202.5
c-17.333 -14 -34.166 -29 -50.499 -45s-30.833 -32.667 -43.5 -50s-22.834 -35.5 -30.501 -54.5s-10.834 -38.833 -9.50098 -59.5c1.33301 -32.667 10.833 -57 28.5 -73s42.5 -24 74.5 -24c20 0 38.667 2.33301 56 7s30.666 9.33398 39.999 14.001l66 -143
c-9.33301 -4.66699 -20.833 -9.66699 -34.5 -15s-29.334 -10.333 -47.001 -15s-36.834 -8.66699 -57.501 -12s-42 -5 -64 -5z" />
    <glyph glyph-name="uogonek" unicode="&#x173;" horiz-adv-x="1222" 
d="M936 -480c-89.333 0 -156.835 18.499 -202.502 55.499s-68.5 88.5 -68.5 154.5c0 26.667 4.83301 53.167 14.5 79.5s23 51.5 40 75.5s36.833 46.333 59.5 67s47 39.334 73 56.001c-8 28 -13.667 66.333 -17 115c-20 -26 -42.5 -48.167 -67.5 -66.5
s-51.5 -33.333 -79.5 -45s-57 -20.334 -87 -26.001s-60 -8.5 -90 -8.5c-61.333 0 -116.333 9.16699 -165 27.5s-90 45.833 -124 82.5s-60.167 82.334 -78.5 137.001s-27.5 118.334 -27.5 191.001v644h259v-571c0 -92 18.5 -159 55.5 -201s87.167 -63 150.5 -63
c26 0 52 4.16699 78 12.5s50.333 20 73 35s42.834 33 60.501 54s31.167 44.5 40.5 70.5v663h259v-651c0 -58.667 0.833008 -109.167 2.5 -151.5s3.66699 -79.333 6 -111s5 -59 8 -82s6.16699 -44.167 9.5 -63.5h-67c-20 -14.667 -39.833 -30.5 -59.5 -47.5
s-37 -34.833 -52 -53.5s-26.833 -38 -35.5 -58s-12.667 -40.667 -12 -62c1.33301 -30 10.5 -52 27.5 -66s41.167 -21 72.5 -21c20.667 0 38.334 2 53.001 6s27.667 8.33301 39 13l57 -142c-8.66699 -5.33301 -20.167 -10.833 -34.5 -16.5s-30.5 -10.834 -48.5 -15.501
s-37.333 -8.66699 -58 -12s-42 -5 -64 -5z" />
    <glyph glyph-name="Wcircumflex" unicode="&#x174;" horiz-adv-x="2019" 
d="M578 -34c-4.66699 0 -8.33301 1.5 -11 4.5s-5.66699 8.16699 -9 15.5c-5.33301 12 -14.333 34 -27 66l-47 119.5l-63.5 163l-75.5 195l-83.5 215.5l-87 226l-86.5 226l-82 215l307 -1l305 -853l382 809c4.66699 8.66699 9.66699 13 15 13s10.666 -4.33301 15.999 -13
l384 -807l303 851h297l-84 -220l-88.5 -231l-88.5 -230l-84 -218.5l-75.5 -195l-62.5 -160l-45 -114l-23 -56.5c-3.33301 -6.66699 -6.16602 -11.667 -8.49902 -15s-6.16602 -5 -11.499 -5c-4 0 -7.33301 1.33301 -10 4s-6.33398 8.33398 -11.001 17.001l-413 859l-411 -859
c-4.66699 -8.66699 -8.5 -14.334 -11.5 -17.001s-6.16699 -4 -9.5 -4zM859.001 1857h326l247 -334h-260l-153 174l-151 -174h-258z" />
    </font>
</defs>
</svg>
