<svg width="10" height="12" viewBox="0 0 10 12" fill="none" xmlns="http://www.w3.org/2000/svg">
<path d="M4.63483 12C4.41861 12 4.25645 11.9459 4.09429 11.7838C3.93213 11.6216 3.87807 11.4595 3.87807 11.2432V5.62162H0.742937C0.418613 5.62162 0.202396 5.45946 0.0942883 5.18919C-0.0678739 4.86486 -0.0138198 4.59459 0.202396 4.37838L4.36456 0.216216C4.52672 0.0540541 4.68888 0 4.9051 0C5.12132 0 5.28348 0.0540541 5.44564 0.216216L9.6078 4.37838C9.76996 4.54054 9.82402 4.7027 9.82402 4.91892C9.82402 5.13514 9.76996 5.2973 9.6078 5.45946C9.44564 5.62162 9.28348 5.67568 9.06726 5.67568C8.85104 5.67568 8.68888 5.62162 8.52672 5.45946L4.9051 1.78378L2.47267 4.16216H4.58077C4.79699 4.16216 4.95915 4.21622 5.12132 4.37838C5.28348 4.54054 5.33753 4.7027 5.33753 4.91892V11.2973C5.33753 11.5135 5.28348 11.6757 5.12132 11.8378C5.01321 11.9459 4.79699 12 4.63483 12Z" fill="#00136F"/>
</svg>
