<svg width="46" height="46" viewBox="0 0 46 46" fill="none" xmlns="http://www.w3.org/2000/svg">
<path fill-rule="evenodd" clip-rule="evenodd" d="M30.3403 24.9847C30.9933 25.591 31.6145 26.232 32.2011 26.905C32.4575 27.2034 32.6808 27.5296 32.8667 27.878C32.9334 27.9737 32.9758 28.0848 32.9898 28.2013C33.0039 28.3178 32.9893 28.4359 32.9474 28.5453C32.9054 28.6546 32.8375 28.7515 32.7496 28.8274C32.6617 28.9033 32.5566 28.9557 32.4438 28.98H29.6789C29.3496 29.0052 29.019 28.9523 28.7133 28.8253C28.4076 28.6983 28.135 28.501 27.917 28.2484C27.5356 27.8437 27.1803 27.4213 26.8116 27.008C26.6635 26.837 26.4966 26.6841 26.3142 26.5518C26.2439 26.4899 26.1599 26.446 26.0695 26.424C25.9791 26.4019 25.8848 26.4024 25.7946 26.4252C25.7043 26.448 25.6208 26.4927 25.5509 26.5551C25.4811 26.6176 25.427 26.6961 25.3931 26.7843C25.1979 27.1949 25.0984 27.6455 25.1022 28.1017C25.1253 28.2238 25.1184 28.35 25.0819 28.4687C25.0455 28.5875 24.9807 28.6954 24.8934 28.7824C24.8061 28.8694 24.699 28.9329 24.5816 28.9674C24.4642 29.002 24.3403 29.0062 24.2208 28.98C22.8472 29.0837 21.4734 28.7819 20.2641 28.1105C19.2103 27.461 18.303 26.5925 17.6015 25.5616C16.2122 23.5622 15.0369 21.4171 14.0956 19.1632C13.8749 18.6637 14.0364 18.3884 14.5786 18.3798C15.4819 18.3626 16.3844 18.3712 17.2852 18.3798C17.4541 18.3832 17.6177 18.4406 17.7526 18.5442C17.8875 18.6478 17.9868 18.7922 18.0363 18.9567C18.5145 20.1844 19.1304 21.3519 19.8717 22.4357C20.0553 22.7344 20.2902 22.9968 20.5652 23.2107C20.6175 23.2683 20.6844 23.3101 20.7586 23.3314C20.8328 23.3526 20.9112 23.3523 20.9854 23.3309C21.0595 23.3095 21.1263 23.2676 21.1785 23.2098C21.2306 23.1521 21.266 23.0808 21.2808 23.0038C21.3706 22.7696 21.4243 22.5226 21.4398 22.2718C21.5232 21.4204 21.5087 20.5623 21.3967 19.7144C21.3806 19.4731 21.2836 19.2449 21.122 19.0677C20.9603 18.8906 20.7437 18.7754 20.5086 18.7414C20.2447 18.6898 20.2836 18.5861 20.4113 18.4311C20.506 18.2934 20.6329 18.1821 20.7806 18.1069C20.9283 18.0317 21.0921 17.995 21.2571 18.0005H24.3824C24.4803 18.0104 24.5753 18.0402 24.6619 18.0876C24.7486 18.135 24.8252 18.1992 24.8874 18.2768C24.9495 18.3544 24.996 18.4436 25.0242 18.5396C25.0523 18.6356 25.0616 18.7364 25.0514 18.836V22.384C25.0429 22.5606 25.079 22.7362 25.1563 22.8945C25.2336 23.0528 25.3495 23.1884 25.4929 23.288C25.6155 23.3079 25.7412 23.2889 25.8527 23.2334C25.9642 23.1779 26.0563 23.0888 26.1163 22.9782C26.8358 22.1516 27.4294 21.2198 27.8773 20.2139C28.0879 19.7748 28.2706 19.3181 28.4474 18.8617C28.4897 18.7084 28.5837 18.5755 28.7128 18.4858C28.842 18.396 28.998 18.3553 29.1536 18.371H32.1622C32.2513 18.3681 32.3405 18.3739 32.4286 18.3882C32.5262 18.3791 32.6243 18.398 32.7118 18.4429C32.7994 18.4877 32.8728 18.5565 32.9237 18.6418C32.9747 18.727 33.0011 18.8254 33 18.9252C32.9989 19.0249 32.9703 19.1224 32.9175 19.2065C32.6324 19.9732 32.2283 20.6884 31.7206 21.3248C31.2191 22.0396 30.6837 22.7282 30.1846 23.4344C30.0746 23.5364 29.9895 23.6633 29.9364 23.8048C29.8832 23.9464 29.8634 24.0989 29.8785 24.2497C29.8937 24.4004 29.9433 24.5454 30.0235 24.6731C30.1037 24.8008 30.2122 24.9074 30.3403 24.9847Z" fill="white"/>
<rect x="0.5" y="0.5" width="45" height="45" rx="22.5" stroke="white"/>
</svg>
