<svg width="46" height="46" viewBox="0 0 46 46" fill="none" xmlns="http://www.w3.org/2000/svg">
<path fill-rule="evenodd" clip-rule="evenodd" d="M32.8306 19.2803C32.7209 17.9731 31.9236 16.319 30.2972 16.2568C25.4382 15.9144 20.5603 15.9144 15.7012 16.2568C14.2626 16.408 13.2794 18.1333 13.1687 19.4584C12.9438 21.8128 12.9438 24.1827 13.1687 26.5372C13.2794 27.8444 14.2372 29.5787 15.7012 29.7565C20.5609 30.0812 25.4375 30.0812 30.2972 29.7565C31.714 29.5164 32.7209 27.8444 32.8306 26.5372C33.0565 24.1233 33.0565 21.6942 32.8306 19.2803ZM20.5003 26.4838V19.4228L26.7516 22.953L20.5003 26.4838Z" fill="white"/>
<rect x="0.5" y="0.5" width="45" height="45" rx="22.5" stroke="white"/>
</svg>
