<svg width="46" height="46" viewBox="0 0 46 46" fill="none" xmlns="http://www.w3.org/2000/svg">
<path fill-rule="evenodd" clip-rule="evenodd" d="M27.3957 33H19.6043C18.1156 32.9942 16.6899 32.3996 15.6395 31.3466C14.589 30.2937 13.9995 28.8682 14 27.3823V18.6173C13.9978 17.1308 14.5868 15.7044 15.6376 14.6511C16.6884 13.5978 18.1151 13.0041 19.6043 13H27.3957C28.8849 13.0041 30.3116 13.5978 31.3624 14.6511C32.4132 15.7044 33.0022 17.1308 33 18.6173V27.3823C33.0005 28.8682 32.411 30.2937 31.3605 31.3466C30.3101 32.3996 28.8844 32.9942 27.3957 33ZM19.9288 14.7932C18.8209 14.7971 17.7599 15.2392 16.9785 16.0231C16.1971 16.807 15.7592 17.8684 15.7609 18.9742V27.053C15.7592 28.1588 16.1971 29.2203 16.9785 30.0042C17.7599 30.7881 18.8209 31.2302 19.9288 31.234H27.096C28.2037 31.2299 29.2645 30.7876 30.0457 30.0037C30.8269 29.2199 31.2647 28.1587 31.263 27.053V18.9742C31.2647 17.8686 30.8269 16.8074 30.0457 16.0235C29.2645 15.2397 28.2037 14.7973 27.096 14.7932H19.9288ZM23.544 27.913C22.2375 27.9079 20.9863 27.386 20.0648 26.4615C19.1433 25.5371 18.6266 24.2855 18.6281 22.9815C18.6295 22.3153 18.7635 21.6563 19.0222 21.0422C19.2809 20.4281 19.6591 19.8715 20.135 19.4044C20.5867 18.9607 21.1237 18.6125 21.7137 18.3814C22.3036 18.1503 22.9343 18.0408 23.5678 18.0593C24.249 18.0494 24.9251 18.1761 25.5561 18.4323C26.1871 18.6885 26.76 19.0688 27.2408 19.5505C28.0886 20.4938 28.5267 21.7344 28.459 22.9998C28.4368 24.2991 27.9158 25.5403 27.0034 26.4674C26.5525 26.9267 26.014 27.2913 25.4197 27.5395C24.8254 27.7878 24.1873 27.9148 23.5431 27.913H23.544ZM23.4322 19.7703C22.6426 19.7736 21.8857 20.0854 21.3239 20.6392C21.012 20.9448 20.764 21.3093 20.5944 21.7114C20.4248 22.1135 20.3369 22.5452 20.3358 22.9815C20.315 23.4151 20.3828 23.8484 20.5351 24.2551C20.6873 24.6618 20.9208 25.0336 21.2214 25.3474C21.522 25.6612 21.8834 25.9109 22.2836 26.0809C22.6838 26.251 23.1145 26.3381 23.5495 26.3369C23.9845 26.3357 24.4147 26.2461 24.8139 26.0738C25.2132 25.9014 25.5731 25.6495 25.8719 25.334C26.1707 25.0184 26.4021 24.6457 26.552 24.2381C26.7019 23.8306 26.7672 23.3967 26.744 22.9631C26.7861 21.0235 25.5798 19.8344 23.5156 19.7703H23.4294H23.4322ZM29.712 17.6112C29.7113 17.851 29.6394 18.085 29.5054 18.284C29.3714 18.483 29.1813 18.6381 28.9592 18.7294C28.737 18.8207 28.4927 18.8441 28.2572 18.7969C28.0217 18.7496 27.8054 18.6339 27.6358 18.464C27.4662 18.2942 27.3508 18.0779 27.3042 17.8426C27.2576 17.6074 27.2819 17.3636 27.374 17.1422C27.4661 16.9207 27.6219 16.7316 27.8217 16.5985C28.0215 16.4653 28.2563 16.3943 28.4966 16.3943C28.6565 16.3942 28.8149 16.4256 28.9627 16.4868C29.1105 16.5479 29.2447 16.6373 29.3576 16.7504C29.4705 16.8634 29.56 16.9976 29.6208 17.1453C29.6816 17.2929 29.7126 17.4516 29.712 17.6112Z" fill="white"/>
<rect x="0.5" y="0.5" width="45" height="45" rx="22.5" stroke="white"/>
</svg>
