<svg width="15" height="15" viewBox="0 0 15 15" fill="none" xmlns="http://www.w3.org/2000/svg">
<path d="M12.2094 14.999H10.5563C10.298 14.999 10.0913 14.8957 9.88467 14.7407C9.72969 14.5857 9.62637 14.3274 9.62637 14.0691V9.98793C9.62637 9.83295 9.57471 9.78129 9.41972 9.78129H6.5784C6.42341 9.78129 6.37175 9.83295 6.37175 9.98793V14.0691C6.37175 14.3274 6.26843 14.5341 6.11345 14.7407C5.95847 14.8957 5.70017 14.999 5.44186 14.999H3.68541C3.4271 14.999 3.22046 14.8957 3.01382 14.7407C2.85884 14.5857 2.75552 14.3274 2.75552 14.0691V8.90306C2.75552 8.64476 2.85884 8.54144 3.11714 8.54144C3.37544 8.54144 3.47877 8.64476 3.47877 8.90306V14.0691C3.47877 14.2241 3.53043 14.2758 3.68541 14.2758H5.44186C5.59685 14.2758 5.64851 14.2241 5.64851 14.0691V9.98793C5.64851 9.72963 5.75183 9.52298 5.90681 9.31634C6.06179 9.16136 6.32009 9.05804 6.5784 9.05804H9.41972C9.67803 9.05804 9.88467 9.16136 10.0913 9.31634C10.298 9.47132 10.3496 9.72963 10.3496 9.98793V14.0691C10.3496 14.2241 10.4013 14.2758 10.5563 14.2758H12.2094C12.3644 14.2758 12.416 14.2241 12.416 14.0691V7.81819C12.416 7.55989 12.5194 7.45656 12.7777 7.45656H13.6559L7.97323 1.87723L1.61899 8.07649C1.464 8.23147 1.30902 8.23147 1.10238 8.07649C0.9474 7.92151 0.9474 7.76653 1.10238 7.55989L7.71493 1.10232C7.86991 0.947339 8.02489 0.947339 8.17987 1.10232L14.7924 7.55989C14.8957 7.66321 14.9474 7.81819 14.8957 7.92151C14.8441 8.07649 14.7408 8.12815 14.5858 8.12815H13.1909V14.0175C13.1909 14.2758 13.0876 14.4824 12.9326 14.689C12.6743 14.8957 12.4677 14.9473 12.2094 14.999Z" fill="#00136F"/>
</svg>
