<svg width="41" height="10" viewBox="0 0 41 10" fill="none" xmlns="http://www.w3.org/2000/svg">
<path d="M8.60268 0.642195H6.45024V5.19407C4.58009 3.51799 2.6923 1.82427 0.769226 0.148193V9.37544H2.92166V4.82356C4.70359 6.41143 6.62667 8.19336 8.60268 9.86944V0.642195V0.642195ZM13.3486 9.37544H11.2138V0.642195H13.3486V9.37544ZM18.9238 9.86944C17.4065 7.01129 15.8892 3.7297 14.3719 0.642195H16.789L18.9414 5.3705L21.0056 0.642195H23.3698C21.8701 3.7297 20.3881 7.01129 18.9238 9.86944ZM30.127 2.54763H26.4926V4.04728H30.127V5.95271H26.4926V7.45236H30.127V9.35779H24.3578V0.642195H30.127V2.54763V2.54763ZM35.561 0.148193C34.079 3.05927 32.6147 6.19971 31.1327 9.37544H33.3733L33.8144 8.33451H37.3077L37.7488 9.37544H40.0776C38.5603 6.18207 37.0254 3.00635 35.561 0.148193ZM34.4495 6.69371L35.561 4.15313L36.6373 6.69371H34.4495Z" fill="white"/>
</svg>
