<svg width="135" height="30" viewBox="0 0 135 30" fill="none" xmlns="http://www.w3.org/2000/svg">
<g clip-path="url(#clip0_1_175)">
<path d="M15.6456 22.9329C10.5473 23.5959 6.24132 19.182 6.88895 13.9552C7.32988 10.3917 10.1362 7.51707 13.6109 7.0649C18.7069 6.39953 23.0129 10.8158 22.3653 16.0426C21.9244 19.6038 19.118 22.4808 15.6456 22.9329ZM16.121 0.0738769C6.86828 -0.8656 -0.843485 7.04147 0.0728321 16.53C0.75031 23.5491 6.28726 29.2281 13.1355 29.9239C22.3883 30.8634 30.0977 22.9564 29.1837 13.4702C28.5039 6.44873 22.967 0.769699 16.121 0.0738769Z" fill="#095BFC"/>
<path d="M37.0317 0.670044C34.9166 0.670044 33.2493 2.64271 33.6902 4.89417C34.0117 6.54353 35.5205 7.67043 37.1603 7.67043H46.6863L31.8599 27.7274C31.373 28.3858 31.8323 29.3299 32.6361 29.3299H55.8931C57.5328 29.3299 59.0417 28.203 59.3632 26.5537C59.8018 24.3046 58.1368 22.3295 56.0217 22.3295H44.415L59.23 2.28894C59.7214 1.62358 59.2598 0.670044 58.4468 0.670044H37.0317Z" fill="#095BFC"/>
<path d="M129.963 0.749706C128.379 1.09176 127.292 2.60289 127.292 4.26162V15.9172L108.819 0.890276C108.176 0.365481 107.225 0.836391 107.225 1.67981V25.7431C107.225 27.4018 108.312 28.9129 109.896 29.255C112.105 29.7329 114.051 28.018 114.051 25.8368V14.0804L132.524 29.1074C133.167 29.6322 134.118 29.1613 134.118 28.3178V4.1679C134.118 1.98672 132.173 0.271768 129.963 0.749706Z" fill="#095BFC"/>
<path d="M81.8645 0C70.5541 0 61.3864 6.71456 61.3864 14.9965C61.3864 23.2784 70.5541 29.993 81.8645 29.993C93.175 29.993 102.343 23.2784 102.343 14.9965C102.343 6.71456 93.175 0 81.8645 0ZM81.8645 7.00039C89.6774 7.00039 95.5151 11.2222 95.5151 14.9965C95.5151 18.7708 89.6774 22.9926 81.8645 22.9926C74.0517 22.9926 68.2117 18.7708 68.2117 14.9965C68.2117 11.2222 74.0517 7.00039 81.8645 7.00039Z" fill="#095BFC"/>
</g>
<defs>
<clipPath id="clip0_1_175">
<rect width="134.118" height="30" fill="white"/>
</clipPath>
</defs>
</svg>
