<svg width="35" height="35" viewBox="0 0 35 35" fill="none" xmlns="http://www.w3.org/2000/svg">
<path d="M33.5483 34.4829L24.4403 25.3949C24.2813 25.2358 24.1818 25.017 24.1818 24.7784C24.1818 24.5397 24.2614 24.3409 24.4205 24.1619C24.7983 23.7642 25.1364 23.3664 25.4545 22.9289C25.7727 22.4914 26.071 22.0341 26.3295 21.5767C26.5881 21.1193 26.8267 20.6221 27.0256 20.125C27.2244 19.6278 27.4034 19.1108 27.5426 18.5937C27.6818 18.0767 27.7813 17.5397 27.8608 17.0227C27.9403 16.4858 27.9801 15.9488 27.9801 15.4119C27.9801 14.875 27.9602 14.338 27.9006 13.8011C27.8409 13.2642 27.7614 12.7272 27.6222 12.2102C27.5028 11.6932 27.3438 11.1761 27.1648 10.6591C26.9858 10.142 26.767 9.66475 26.5085 9.18747C26.2699 8.7102 25.9915 8.25281 25.6733 7.79543C25.375 7.35793 25.0369 6.92043 24.679 6.5227C24.321 6.12497 23.9432 5.74713 23.5455 5.38918C23.1477 5.03122 22.7102 4.69315 22.2727 4.39486C21.8352 4.09656 21.358 3.81815 20.8807 3.55963C20.4034 3.321 19.9063 3.10225 19.4091 2.90338C18.9119 2.72441 18.3949 2.56531 17.858 2.446C17.3409 2.32668 16.804 2.22725 16.267 2.16759C15.7301 2.10793 15.1932 2.08804 14.6563 2.08804C14.1193 2.08804 13.5824 2.1477 13.0455 2.20736C12.5085 2.28691 11.9915 2.38634 11.4744 2.52554C10.9574 2.66475 10.4403 2.84372 9.94318 3.04259C9.44602 3.24145 8.96875 3.48009 8.49148 3.73861C8.01421 3.99713 7.57671 4.29543 7.13921 4.61361C6.70171 4.93179 6.28409 5.26986 5.90625 5.6477C5.50852 6.02554 5.15057 6.40338 4.8125 6.821C4.47443 7.23861 4.15625 7.67611 3.85796 8.1335C3.55966 8.59088 3.30114 9.04827 3.08239 9.54543C2.84375 10.0227 2.64489 10.5397 2.4858 11.0369C2.30682 11.5539 2.1875 12.071 2.06818 12.588C1.96875 13.125 1.88921 13.642 1.84943 14.1789C1.80966 14.7159 1.80966 15.2528 1.82955 15.7897C1.84943 16.3267 1.90909 16.8636 2.00852 17.4005C2.10796 17.9375 2.22727 18.4545 2.38636 18.9716C2.54546 19.4886 2.72443 19.9858 2.94318 20.4829C3.16193 20.9801 3.42046 21.4574 3.69886 21.9147C3.97727 22.3721 4.27557 22.8096 4.61364 23.2471C4.95171 23.6647 5.30966 24.0625 5.6875 24.4602C6.06534 24.838 6.48296 25.196 6.90057 25.5142C7.31818 25.8522 7.77557 26.1505 8.23296 26.4289C8.69034 26.7074 9.16761 26.946 9.66477 27.1647C10.1619 27.3835 10.6591 27.5625 11.1761 27.7216C11.6932 27.8807 12.2102 28 12.7472 28.0795C13.2841 28.1591 13.821 28.2187 14.358 28.2386C14.8949 28.2585 15.4318 28.2585 15.9688 28.1988C16.5057 28.1591 17.0426 28.0795 17.5597 27.9602C18.0966 27.8409 18.6136 27.7017 19.1108 27.5426C19.6278 27.3636 20.125 27.1647 20.6023 26.9261C20.821 26.8267 21.0398 26.8068 21.2784 26.8863C21.4972 26.9659 21.6761 27.1051 21.7756 27.3238C21.875 27.5426 21.8949 27.7613 21.8153 28C21.7358 28.2187 21.5966 28.3977 21.3778 28.4971C20.8409 28.7557 20.2642 28.9943 19.6875 29.1932C19.1108 29.392 18.5341 29.5511 17.9375 29.6704C17.3409 29.7897 16.7443 29.8892 16.1477 29.9289C15.5511 29.9886 14.9347 29.9886 14.3381 29.9687C13.7216 29.9488 13.125 29.8892 12.5284 29.7897C11.9318 29.6903 11.3352 29.571 10.7585 29.392C10.1818 29.2329 9.60512 29.0142 9.0483 28.7755C8.49148 28.5369 7.95455 28.2585 7.41761 27.9602C6.90057 27.6619 6.38352 27.3238 5.90625 26.946C5.42898 26.588 4.95171 26.1903 4.53409 25.7727C4.09659 25.3551 3.67898 24.8977 3.30114 24.4403C2.9233 23.963 2.56534 23.4659 2.24716 22.9488C1.92898 22.4318 1.63068 21.8949 1.37216 21.3579C1.11364 20.821 0.894887 20.2443 0.71591 19.6676C0.536933 19.0909 0.377842 18.4943 0.258524 17.8977C0.139205 17.3011 0.05966 16.7045 0.0198873 16.088C-0.0198854 15.4914 -0.0198854 14.875 9.19215e-07 14.2784C0.05966 13.7216 0.119319 13.125 0.238637 12.5284C0.338069 11.9318 0.477274 11.3352 0.656251 10.7585C0.835228 10.1818 1.05398 9.60509 1.29261 9.04827C1.53125 8.49145 1.82955 7.95452 2.12784 7.43747C2.44602 6.92043 2.78409 6.42327 3.16193 5.946C3.53977 5.46872 3.9375 5.01134 4.375 4.59372C4.8125 4.17611 5.25 3.7585 5.74716 3.40054C6.24432 3.04259 6.72159 2.68463 7.23864 2.36645C7.75568 2.04827 8.29261 1.76986 8.84943 1.53122C9.40625 1.29259 9.96307 1.07384 10.5597 0.894859C11.1364 0.695996 11.733 0.556791 12.3295 0.45736C12.9261 0.357928 13.5227 0.278382 14.1392 0.258496C14.7557 0.218723 15.3523 0.23861 15.9489 0.278382C16.5455 0.318155 17.1619 0.3977 17.7585 0.517019C18.3551 0.636337 18.9318 0.795428 19.5284 0.974405C20.1051 1.15338 20.6619 1.39202 21.2188 1.65054C21.7756 1.90906 22.2926 2.20736 22.8097 2.52554C23.3267 2.84372 23.8239 3.20168 24.2813 3.57952C24.7585 3.95736 25.196 4.37497 25.6136 4.81247C26.0313 5.24997 26.429 5.70736 26.7869 6.20452C27.1449 6.68179 27.483 7.19884 27.7813 7.71588C28.0795 8.23293 28.358 8.78975 28.5966 9.34656C28.8352 9.90338 29.0341 10.4801 29.1932 11.0568C29.3523 11.6335 29.4915 12.2301 29.5909 12.8267C29.6903 13.4233 29.75 14.0397 29.7699 14.6363C29.7898 15.2528 29.7699 15.8494 29.7102 16.446C29.6506 17.0426 29.571 17.6591 29.4318 18.2358C29.2926 18.8125 29.1335 19.4091 28.9347 19.9858C28.7358 20.5625 28.4972 21.1193 28.2386 21.6562C27.9801 22.1932 27.6619 22.7301 27.3438 23.2272C27.0057 23.7443 26.6477 24.2216 26.25 24.6789L34.7614 33.1903L33.5483 34.4829Z" fill="#00136F"/>
</svg>
