<svg width="36" height="35" viewBox="0 0 36 35" fill="none" xmlns="http://www.w3.org/2000/svg">
<path d="M6.62217 15.3522C6.62217 14.6363 7 14.0994 7.35796 14.0994H7.49717V16.6051H7.35796C7 16.6051 6.62217 16.0681 6.62217 15.3522ZM30.2869 15.3522C30.2869 16.0681 29.9091 16.6051 29.5511 16.6051H29.4119V14.0994H29.5511C29.9091 14.0994 30.2869 14.6363 30.2869 15.3522ZM25.554 25.6335C26.6477 24.7187 27.5227 23.625 28.179 22.3721C28.8352 21.1193 29.2528 19.7869 29.392 18.3551H29.5909C29.9489 18.3153 30.2869 18.2159 30.625 18.0369C30.9432 17.8579 31.2216 17.6392 31.4602 17.3608C31.6989 17.0823 31.858 16.7642 31.9773 16.4062C32.0767 16.0483 32.1165 15.7102 32.0767 15.3323V15.3125C32.1165 14.9545 32.0767 14.5966 31.9574 14.2386C31.858 13.8806 31.679 13.5823 31.4403 13.2841C31.2017 13.0056 30.9233 12.7869 30.6051 12.6079C30.2869 12.4289 29.929 12.3295 29.571 12.3096H28.7159C28.696 12.3096 28.6562 12.3096 28.6364 12.3295C28.6165 12.3295 28.5966 12.3096 28.5767 12.3096C28.3381 12.3096 28.1193 12.3892 27.9602 12.5681C27.7813 12.7471 27.7017 12.946 27.7017 13.1846V17.2414C27.7017 17.838 27.6421 18.4545 27.5227 19.0511C27.4034 19.6477 27.2244 20.2244 27.0057 20.7812C26.767 21.338 26.4886 21.875 26.1506 22.3721C25.8125 22.8693 25.4347 23.3466 24.9972 23.7642C24.5597 24.2017 24.1023 24.5795 23.6051 24.9176C23.108 25.2556 22.571 25.5341 22.0142 25.7727C21.4574 26.0113 20.8807 26.1704 20.2841 26.2897C19.6875 26.4091 19.0909 26.4687 18.4744 26.4687C17.8778 26.4687 17.2614 26.4091 16.6648 26.2897C16.0682 26.1704 15.4915 25.9914 14.9347 25.7528C14.3778 25.5142 13.8409 25.2358 13.3438 24.8977C12.8466 24.5596 12.3693 24.1818 11.9517 23.7443C11.5142 23.3068 11.1364 22.8494 10.7983 22.3522C10.4602 21.8551 10.1818 21.3181 9.94319 20.7613C9.70455 20.2045 9.54546 19.6278 9.42615 19.0312C9.30683 18.4346 9.24716 17.838 9.24716 17.2216V10.9573C9.24716 10.4005 9.28694 9.8636 9.38637 9.30678C9.4858 8.76985 9.62501 8.23291 9.82387 7.71587C10.0227 7.19882 10.2614 6.70167 10.5398 6.22439C10.8182 5.74712 11.1364 5.30962 11.5142 4.89201C11.8722 4.47439 12.2699 4.09655 12.7074 3.75848C13.1449 3.42042 13.6023 3.10223 14.0796 2.84371C14.5568 2.58519 15.0739 2.36644 15.5909 2.18746C16.108 2.00848 16.6449 1.88917 17.2017 1.80962C17.7386 1.73007 18.2955 1.71019 18.8523 1.73007C19.4091 1.74996 19.946 1.82951 20.483 1.94882C21.0199 2.06814 21.5369 2.22723 22.054 2.44598C22.571 2.66473 23.0483 2.92326 23.5057 3.22155C23.9631 3.51985 24.4006 3.85792 24.7983 4.23576C25.196 4.6136 25.554 5.03121 25.892 5.46871C26.2102 5.90621 26.5085 6.38348 26.7472 6.88064C26.9858 7.3778 27.1847 7.89485 27.3438 8.41189C27.4034 8.65053 27.5426 8.80962 27.7614 8.92894C27.9801 9.04826 28.1989 9.06814 28.4176 9.00848C28.6563 8.94882 28.8153 8.80962 28.9347 8.59087C29.054 8.37212 29.0739 8.15337 29.0142 7.93462C28.8352 7.29826 28.5966 6.70167 28.3182 6.10507C28.0199 5.50848 27.6818 4.95167 27.304 4.43462C26.9063 3.89769 26.4886 3.42042 26.0114 2.96303C25.5341 2.50564 25.017 2.10792 24.4801 1.74996C23.9233 1.39201 23.3466 1.09371 22.75 0.835188C22.1534 0.576665 21.517 0.377802 20.8807 0.238597C20.2443 0.0993925 19.5881 0.019847 18.9318 -0.0199257C18.2756 -0.039812 17.6193 -0.0199257 16.9631 0.0795061C16.3068 0.178938 15.6705 0.318142 15.054 0.517006C14.4375 0.71587 13.821 0.974392 13.2443 1.29257C12.6676 1.61076 12.1307 1.96871 11.6136 2.38632C11.0966 2.80394 10.6392 3.24144 10.2017 3.7386C9.76421 4.23576 9.38637 4.77269 9.0483 5.32951C8.71023 5.88632 8.43182 6.48292 8.19319 7.09939C7.95455 7.71587 7.79546 8.35223 7.67614 8.9886C7.55682 9.62496 7.49717 10.2812 7.49717 10.9375V12.3295H7.35796C7 12.3693 6.66194 12.4687 6.32387 12.6477C6.00569 12.8267 5.72728 13.0454 5.48864 13.3238C5.25001 13.6022 5.09091 13.9204 4.9716 14.2784C4.87216 14.6363 4.83239 14.9744 4.87216 15.3522V15.3721C4.83239 15.7301 4.87217 16.088 4.99148 16.446C5.09092 16.8039 5.26989 17.1022 5.50853 17.3806C5.74717 17.6591 6.02558 17.8778 6.34376 18.0568C6.66194 18.2358 7.00001 18.3352 7.37785 18.3551H7.57671C7.71591 19.767 8.13353 21.1193 8.78978 22.3721C9.46592 23.625 10.3409 24.7187 11.4347 25.6335C4.93182 26.8863 0.994324 29.9488 0.994324 34.1051C0.994324 34.3437 1.07387 34.5625 1.25285 34.7216C1.43183 34.9005 1.63069 34.9801 1.86933 34.9801C2.10796 34.9801 2.32671 34.9005 2.4858 34.7216C2.66478 34.5426 2.74433 34.3437 2.74433 34.1051C2.74433 30.1079 7.69603 27.8608 13.642 27.0653C15.1733 27.821 16.7841 28.2187 18.4943 28.2187H18.5142C20.2443 28.2187 21.875 27.821 23.4063 27.0454C29.3125 27.821 34.2443 30.0681 34.2443 34.0852C34.2443 34.3238 34.3239 34.5426 34.5028 34.7017C34.6818 34.8608 34.8807 34.9602 35.1193 34.9602C35.358 34.9602 35.5767 34.8806 35.7358 34.7017C35.9148 34.5227 35.9943 34.3238 35.9943 34.0852C35.9545 29.9289 32.0369 26.8664 25.554 25.6335Z" fill="#00136F"/>
</svg>
