<svg class="hidden">
  <symbol fill="none" xmlns="http://www.w3.org/2000/svg" viewBox="0 0 41 10" id="logo">
    <path d="M8.60268 0.642195H6.45024V5.19407C4.58009 3.51799 2.6923 1.82427 0.769226 0.148193V9.37544H2.92166V4.82356C4.70359 6.41143 6.62667 8.19336 8.60268 9.86944V0.642195ZM13.3486 9.37544H11.2138V0.642195H13.3486V9.37544ZM18.9238 9.86944C17.4065 7.01129 15.8892 3.7297 14.3719 0.642195H16.789L18.9414 5.3705L21.0056 0.642195H23.3698C21.8701 3.7297 20.3881 7.01129 18.9238 9.86944ZM30.127 2.54763H26.4926V4.04728H30.127V5.95271H26.4926V7.45236H30.127V9.35779H24.3578V0.642195H30.127V2.54763ZM35.561 0.148193C34.079 3.05927 32.6147 6.19971 31.1327 9.37544H33.3733L33.8144 8.33451H37.3077L37.7488 9.37544H40.0776C38.5603 6.18207 37.0254 3.00635 35.561 0.148193ZM34.4495 6.69371L35.561 4.15313L36.6373 6.69371H34.4495Z" fill="white"></path>
  </symbol>
  <symbol fill="none" xmlns="http://www.w3.org/2000/svg" viewBox="0 0 35 35" id="search">
    <path d="M33.5483 34.4829L24.4403 25.3949C24.2813 25.2358 24.1818 25.017 24.1818 24.7784C24.1818 24.5397 24.2614 24.3409 24.4205 24.1619C24.7983 23.7642 25.1364 23.3664 25.4545 22.9289C25.7727 22.4914 26.071 22.0341 26.3295 21.5767C26.5881 21.1193 26.8267 20.6221 27.0256 20.125C27.2244 19.6278 27.4034 19.1108 27.5426 18.5937C27.6818 18.0767 27.7813 17.5397 27.8608 17.0227C27.9403 16.4858 27.9801 15.9488 27.9801 15.4119C27.9801 14.875 27.9602 14.338 27.9006 13.8011C27.8409 13.2642 27.7614 12.7272 27.6222 12.2102C27.5028 11.6932 27.3438 11.1761 27.1648 10.6591C26.9858 10.142 26.767 9.66475 26.5085 9.18747C26.2699 8.7102 25.9915 8.25281 25.6733 7.79543C25.375 7.35793 25.0369 6.92043 24.679 6.5227C24.321 6.12497 23.9432 5.74713 23.5455 5.38918C23.1477 5.03122 22.7102 4.69315 22.2727 4.39486C21.8352 4.09656 21.358 3.81815 20.8807 3.55963C20.4034 3.321 19.9063 3.10225 19.4091 2.90338C18.9119 2.72441 18.3949 2.56531 17.858 2.446C17.3409 2.32668 16.804 2.22725 16.267 2.16759C15.7301 2.10793 15.1932 2.08804 14.6563 2.08804C14.1193 2.08804 13.5824 2.1477 13.0455 2.20736C12.5085 2.28691 11.9915 2.38634 11.4744 2.52554C10.9574 2.66475 10.4403 2.84372 9.94318 3.04259C9.44602 3.24145 8.96875 3.48009 8.49148 3.73861C8.01421 3.99713 7.57671 4.29543 7.13921 4.61361C6.70171 4.93179 6.28409 5.26986 5.90625 5.6477C5.50852 6.02554 5.15057 6.40338 4.8125 6.821C4.47443 7.23861 4.15625 7.67611 3.85796 8.1335C3.55966 8.59088 3.30114 9.04827 3.08239 9.54543C2.84375 10.0227 2.64489 10.5397 2.4858 11.0369C2.30682 11.554 2.1875 12.071 2.06818 12.588C1.96875 13.125 1.88921 13.642 1.84943 14.1789C1.80966 14.7159 1.80966 15.2528 1.82955 15.7897C1.84943 16.3267 1.90909 16.8636 2.00852 17.4005C2.10796 17.9375 2.22727 18.4545 2.38636 18.9716C2.54546 19.4886 2.72443 19.9858 2.94318 20.4829C3.16193 20.9801 3.42046 21.4574 3.69886 21.9147C3.97727 22.3721 4.27557 22.8096 4.61364 23.2471C4.95171 23.6647 5.30966 24.0625 5.6875 24.4602C6.06534 24.838 6.48296 25.196 6.90057 25.5142C7.31818 25.8522 7.77557 26.1505 8.23296 26.4289C8.69034 26.7074 9.16761 26.946 9.66477 27.1647C10.1619 27.3835 10.6591 27.5625 11.1761 27.7216C11.6932 27.8807 12.2102 28 12.7472 28.0795C13.2841 28.1591 13.821 28.2187 14.358 28.2386C14.8949 28.2585 15.4318 28.2585 15.9688 28.1988C16.5057 28.1591 17.0426 28.0795 17.5597 27.9602C18.0966 27.8409 18.6136 27.7017 19.1108 27.5426C19.6278 27.3636 20.125 27.1647 20.6023 26.9261C20.821 26.8267 21.0398 26.8068 21.2784 26.8863C21.4972 26.9659 21.6761 27.1051 21.7756 27.3238C21.875 27.5426 21.8949 27.7613 21.8153 28C21.7358 28.2187 21.5966 28.3977 21.3778 28.4971C20.8409 28.7557 20.2642 28.9943 19.6875 29.1932C19.1108 29.392 18.5341 29.5511 17.9375 29.6704C17.3409 29.7897 16.7443 29.8892 16.1477 29.9289C15.5511 29.9886 14.9347 29.9886 14.3381 29.9687C13.7216 29.9488 13.125 29.8892 12.5284 29.7897C11.9318 29.6903 11.3352 29.571 10.7585 29.392C10.1818 29.2329 9.60511 29.0142 9.0483 28.7755C8.49148 28.5369 7.95455 28.2585 7.41761 27.9602C6.90057 27.6619 6.38352 27.3238 5.90625 26.946C5.42898 26.588 4.95171 26.1903 4.53409 25.7727C4.09659 25.3551 3.67898 24.8977 3.30114 24.4403C2.9233 23.963 2.56534 23.4659 2.24716 22.9488C1.92898 22.4318 1.63068 21.8949 1.37216 21.3579C1.11364 20.821 0.894887 20.2443 0.71591 19.6676C0.536933 19.0909 0.377842 18.4943 0.258524 17.8977C0.139205 17.3011 0.05966 16.7045 0.0198873 16.088C-0.0198854 15.4914 -0.0198854 14.875 9.20147e-07 14.2784C0.05966 13.7216 0.119319 13.125 0.238637 12.5284C0.338069 11.9318 0.477274 11.3352 0.656251 10.7585C0.835228 10.1818 1.05398 9.60509 1.29261 9.04827C1.53125 8.49145 1.82955 7.95452 2.12784 7.43747C2.44602 6.92043 2.78409 6.42327 3.16193 5.946C3.53977 5.46872 3.9375 5.01134 4.375 4.59372C4.8125 4.17611 5.25 3.7585 5.74716 3.40054C6.24432 3.04259 6.72159 2.68463 7.23864 2.36645C7.75568 2.04827 8.29261 1.76986 8.84943 1.53122C9.40625 1.29259 9.96307 1.07384 10.5597 0.894859C11.1364 0.695996 11.733 0.556791 12.3295 0.45736C12.9261 0.357928 13.5227 0.278382 14.1392 0.258496C14.7557 0.218723 15.3523 0.23861 15.9489 0.278382C16.5455 0.318155 17.1619 0.3977 17.7585 0.517019C18.3551 0.636337 18.9318 0.795428 19.5284 0.974405C20.1051 1.15338 20.6619 1.39202 21.2188 1.65054C21.7756 1.90906 22.2926 2.20736 22.8097 2.52554C23.3267 2.84372 23.8239 3.20168 24.2813 3.57952C24.7585 3.95736 25.196 4.37497 25.6136 4.81247C26.0313 5.24997 26.429 5.70736 26.7869 6.20452C27.1449 6.68179 27.483 7.19884 27.7813 7.71588C28.0795 8.23293 28.358 8.78975 28.5966 9.34656C28.8352 9.90338 29.0341 10.4801 29.1932 11.0568C29.3523 11.6335 29.4915 12.2301 29.5909 12.8267C29.6903 13.4233 29.75 14.0397 29.7699 14.6363C29.7898 15.2528 29.7699 15.8494 29.7102 16.446C29.6506 17.0426 29.571 17.6591 29.4318 18.2358C29.2926 18.8125 29.1335 19.4091 28.9347 19.9858C28.7358 20.5625 28.4972 21.1193 28.2386 21.6562C27.9801 22.1932 27.6619 22.7301 27.3438 23.2272C27.0057 23.7443 26.6477 24.2216 26.25 24.6789L34.7614 33.1903L33.5483 34.4829Z" fill="#00136F"></path>
  </symbol>
  <symbol fill="none" xmlns="http://www.w3.org/2000/svg" viewBox="0 0 35 35" id="settings">
    <path d="M17.6875 35.0001C16.6932 35.0001 15.6989 34.9205 14.7046 34.7415C13.7102 34.5626 12.7557 34.3239 11.821 33.9859C10.8864 33.6478 9.97161 33.2302 9.09661 32.7529C8.22161 32.2557 7.40627 31.6989 6.6307 31.0626C5.85513 30.4262 5.13922 29.7302 4.48297 28.9745C3.82672 28.2188 3.25002 27.4234 2.73297 26.5682C2.21593 25.7131 1.77843 24.8182 1.40059 23.8836C1.04263 22.9489 0.744338 21.9944 0.545474 21.0199C0.346611 20.0455 0.227283 19.0512 0.18751 18.0569C0.147737 17.0626 0.207406 16.0682 0.346611 15.0739C0.485815 14.0796 0.704558 13.1052 1.02274 12.1705C1.32104 11.216 1.71876 10.3012 2.17615 9.40631C2.63353 8.51142 3.17047 7.67619 3.78695 6.88074C4.40343 6.08529 5.05967 5.34949 5.79547 4.67335C6.53126 3.99722 7.30683 3.38074 8.14206 2.84381C8.97728 2.30688 9.85229 1.8296 10.7671 1.43188L11.3239 1.21313C11.5426 1.1137 11.7813 1.09381 12.0199 1.19324C12.2585 1.27279 12.4176 1.43188 12.537 1.65063C12.6364 1.86938 12.6563 2.10801 12.5568 2.34665C12.4773 2.58529 12.3182 2.74438 12.0994 2.86369L11.5625 3.08245C10.608 3.48017 9.71309 3.97733 8.85797 4.57392C8.00286 5.15063 7.22729 5.82676 6.49149 6.56256C5.77558 7.29835 5.11933 8.09381 4.56251 8.96881C4.00569 9.82392 3.52842 10.7387 3.15058 11.6932C2.77274 12.6478 2.47445 13.6421 2.29547 14.6563C2.11649 15.6705 2.01707 16.6847 2.03695 17.7188C2.05684 18.7529 2.15626 19.7671 2.37501 20.7813C2.59376 21.7955 2.89206 22.7699 3.30967 23.7245C3.7074 24.679 4.20456 25.5739 4.80115 26.429C5.37785 27.2841 6.05399 28.0597 6.78979 28.7955C7.52558 29.5313 8.32104 30.1677 9.19604 30.7245C10.0512 31.2813 10.9659 31.7586 11.9205 32.1364C12.875 32.5143 13.8693 32.8126 14.8835 32.9915C15.8977 33.1904 16.912 33.2699 17.946 33.2501C18.9801 33.2302 19.9943 33.1307 21.0085 32.912C22.0227 32.6932 22.9972 32.3949 23.9517 31.9773C25.0654 31.5001 26.0994 30.9035 27.0739 30.2074C28.0483 29.4915 28.9233 28.6961 29.7188 27.7813C30.5142 26.8665 31.1705 25.8921 31.7472 24.8182C32.304 23.7643 32.7415 22.6506 33.0597 21.4773C32.6818 21.4773 32.3239 21.4376 31.946 21.3779C31.5881 21.2984 31.2301 21.1989 30.8722 21.0597C30.5341 20.9205 30.196 20.7415 29.8779 20.5427C29.5597 20.3438 29.2813 20.1052 29.0227 19.8268C28.7642 19.5682 28.5256 19.2699 28.3068 18.9716C28.108 18.6535 27.929 18.3353 27.7898 17.9773C27.6506 17.6393 27.5313 17.2813 27.4716 16.9035C27.3921 16.5455 27.3722 16.1677 27.3722 15.7898V15.4518C26.8949 15.4915 26.4375 15.4716 25.9602 15.4319C25.483 15.3722 25.0256 15.2728 24.5881 15.1336C24.1307 14.9944 23.7131 14.7955 23.2955 14.5768C22.8779 14.358 22.5 14.0796 22.1421 13.7813C21.7841 13.483 21.446 13.1449 21.1676 12.7671C20.8693 12.3893 20.6108 12.0114 20.3921 11.5938C20.1733 11.1762 19.9943 10.7387 19.875 10.2813C19.7358 9.82392 19.6563 9.36654 19.6165 8.88926V8.33244C19.6364 7.69608 19.696 7.0796 19.8353 6.46313C19.2983 6.38358 18.8012 6.22449 18.3438 5.96597C17.8665 5.70744 17.4688 5.38926 17.1108 4.99154C16.7529 4.59381 16.4943 4.13642 16.2955 3.63926C16.0966 3.1421 16.0171 2.62506 15.9972 2.08813C15.9972 1.67051 16.0767 1.27279 16.2159 0.875059C16.2756 0.636422 16.4148 0.457445 16.6335 0.358013C16.8523 0.238695 17.071 0.238695 17.3097 0.338127C17.5483 0.397786 17.7273 0.536991 17.8267 0.755741C17.946 0.974491 17.946 1.19324 17.8466 1.43188C17.7472 1.67051 17.7273 1.92904 17.7472 2.20745C17.7472 2.5654 17.8068 2.92335 17.946 3.26142C18.0853 3.59949 18.2841 3.89779 18.5426 4.15631C18.8012 4.41483 19.0995 4.61369 19.4375 4.7529C19.7756 4.8921 20.1335 4.95176 20.4915 4.95176H21.0284C21.3864 4.8921 21.6847 4.99154 21.9034 5.28983C21.8835 5.46881 21.8438 5.66767 21.804 5.84665C21.446 6.60233 21.2671 7.41767 21.2472 8.2529C21.2472 8.96881 21.3864 9.66483 21.6449 10.3211C21.9233 10.9773 22.3012 11.5739 22.7983 12.091C23.2955 12.608 23.8722 13.0057 24.5284 13.2841C25.1847 13.5626 25.8807 13.7216 26.5966 13.7216C27.1137 13.7018 27.6307 13.6222 28.1279 13.5029C28.3665 13.4432 28.6051 13.4631 28.8239 13.6023C29.0426 13.7415 29.1818 13.9205 29.2216 14.1591V14.6961C29.1222 14.9944 29.0426 15.2927 29.0227 15.6109C28.983 15.929 29.0029 16.2273 29.0426 16.5455C29.0824 16.8637 29.162 17.162 29.2813 17.4404C29.4006 17.7387 29.5398 17.9972 29.7387 18.2557C29.9176 18.5143 30.1364 18.733 30.375 18.9319C30.6137 19.1307 30.8722 19.3097 31.1506 19.4489C31.429 19.5881 31.7273 19.6876 32.0256 19.7671C32.3239 19.8268 32.6421 19.8665 32.9404 19.8665C33.2387 19.8864 33.537 19.8466 33.8154 19.7671C34.1335 19.6478 34.3722 19.7273 34.5909 19.9859C34.8296 20.1847 34.9091 20.4432 34.8097 20.7614C34.6307 21.7557 34.3722 22.7302 34.0341 23.6847C33.696 24.6393 33.2585 25.554 32.7614 26.429C32.2642 27.304 31.6875 28.1393 31.0313 28.9148C30.375 29.6904 29.679 30.4063 28.9034 31.0626C28.1279 31.7188 27.3125 32.2955 26.4176 32.7927C25.5426 33.2898 24.6279 33.7273 23.6733 34.0654C22.7188 34.4035 21.7443 34.662 20.75 34.841C19.696 34.9205 18.7017 35.0001 17.6875 35.0001Z" fill="#00136F"></path>
    <path d="M14.1875 13.3437C14.1875 13.8607 14.0881 14.338 13.8892 14.8153C13.6903 15.2925 13.4119 15.6903 13.054 16.0482C12.696 16.4062 12.2784 16.6846 11.821 16.8835C11.3437 17.0823 10.8665 17.1818 10.3494 17.1818C9.83237 17.1818 9.3551 17.0823 8.87782 16.8835C8.40055 16.6846 8.00282 16.4062 7.64487 16.0482C7.28691 15.6903 7.00851 15.2727 6.80965 14.8153C6.61078 14.338 6.51135 13.8607 6.51135 13.3437C6.51135 12.8266 6.61078 12.3494 6.80965 11.8721C7.00851 11.3948 7.28691 10.9971 7.64487 10.6391C8.00282 10.2812 8.42044 10.0028 8.87782 9.80391C9.3551 9.60505 9.83237 9.50562 10.3494 9.50562C10.8665 9.50562 11.3437 9.60505 11.821 9.80391C12.2983 10.0028 12.696 10.2812 13.054 10.6391C13.4119 10.9971 13.6903 11.4147 13.8892 11.8721C14.0881 12.3494 14.1875 12.8266 14.1875 13.3437Z" fill="#00136F"></path>
    <path d="M20.75 16.7244C20.392 16.7244 20.0341 16.784 19.696 16.9232C19.358 17.0624 19.0597 17.2613 18.8011 17.5198C18.5426 17.7783 18.3437 18.0766 18.2045 18.4147C18.0653 18.7528 18.0057 19.0908 18.0057 19.4687C18.0057 19.8266 18.0653 20.1846 18.2045 20.5227C18.3437 20.8607 18.5426 21.159 18.8011 21.4176C19.0597 21.6761 19.358 21.8749 19.696 22.0141C20.0341 22.1533 20.3722 22.213 20.75 22.213C21.1278 22.213 21.4659 22.1533 21.804 22.0141C22.142 21.8749 22.4403 21.6761 22.6989 21.4176C22.9574 21.159 23.1563 20.8607 23.2955 20.5227C23.4347 20.1846 23.4943 19.8465 23.4943 19.4687C23.4943 19.1107 23.4347 18.7528 23.2955 18.4147C23.1563 18.0766 22.9574 17.7783 22.6989 17.5198C22.4403 17.2613 22.142 17.0624 21.804 16.9232C21.4659 16.784 21.108 16.7244 20.75 16.7244Z" fill="#00136F"></path>
    <path d="M11.4432 21C11.0256 21 10.6079 21.0795 10.2301 21.2386C9.85225 21.3977 9.49431 21.6364 9.19601 21.9347C8.89772 22.233 8.67897 22.571 8.49999 22.9687C8.3409 23.3665 8.26135 23.7642 8.26135 24.1818C8.26135 24.5994 8.3409 25.017 8.49999 25.3949C8.65908 25.7926 8.89772 26.1307 9.19601 26.429C9.49431 26.7273 9.83237 26.946 10.2301 27.125C10.6278 27.2841 11.0256 27.3636 11.4432 27.3636C11.8608 27.3636 12.2784 27.2841 12.6562 27.125C13.054 26.9659 13.392 26.7273 13.6903 26.429C13.9886 26.1307 14.2074 25.7926 14.3863 25.3949C14.5454 24.9972 14.625 24.5994 14.625 24.1818C14.625 23.7642 14.5454 23.3665 14.3863 22.9687C14.2273 22.571 13.9886 22.233 13.6903 21.9347C13.392 21.6364 13.054 21.4176 12.6562 21.2386C12.2585 21.0597 11.8608 21 11.4432 21Z" fill="#00136F"></path>
    <path d="M19.9744 25.4744C19.7159 25.4744 19.4574 25.534 19.2187 25.6335C18.9801 25.7329 18.7613 25.8721 18.5824 26.0511C18.4034 26.23 18.2642 26.4488 18.1648 26.6874C18.0653 26.9261 18.0057 27.1846 18.0057 27.4431C18.0057 27.7016 18.0653 27.9602 18.1648 28.1988C18.2642 28.4374 18.4034 28.6562 18.5824 28.8352C18.7613 29.0141 18.9801 29.1533 19.2187 29.2528C19.4574 29.3522 19.7159 29.4119 19.9744 29.4119C20.2329 29.4119 20.4915 29.3522 20.7301 29.2528C20.9687 29.1533 21.1875 29.0141 21.3664 28.8352C21.5454 28.6562 21.6846 28.4374 21.7841 28.1988C21.8835 27.9602 21.9432 27.7016 21.9432 27.4431C21.963 27.1846 21.9034 26.9261 21.8238 26.6675C21.7244 26.4289 21.5852 26.2102 21.4062 26.0113C21.2272 25.8323 21.0085 25.6732 20.75 25.5937C20.4915 25.5141 20.2329 25.4744 19.9744 25.4744Z" fill="#00136F"></path>
    <path d="M31.4688 5.03125C31.2102 5.03125 30.9517 5.09091 30.7131 5.19034C30.4744 5.28977 30.2557 5.42898 30.0767 5.60795C29.8977 5.78693 29.7585 6.00568 29.6591 6.24432C29.5597 6.48295 29.5 6.74148 29.5 7C29.5 7.25852 29.5597 7.51705 29.6591 7.75568C29.7585 7.99432 29.8977 8.21307 30.0767 8.39205C30.2557 8.57102 30.4744 8.71023 30.7131 8.80966C30.9517 8.90909 31.2102 8.96875 31.4688 8.96875C31.7273 8.98864 31.9858 8.92898 32.2245 8.84943C32.4631 8.75 32.6818 8.6108 32.8807 8.43182C33.0597 8.25284 33.2188 8.03409 33.2983 7.77557C33.3978 7.53693 33.4375 7.27841 33.4177 7.01989C33.4177 6.76136 33.3779 6.50284 33.2784 6.2642C33.179 6.02557 33.0398 5.80682 32.8608 5.62784C32.6819 5.44886 32.4631 5.30966 32.2245 5.21023C31.9858 5.07102 31.7273 5.03125 31.4688 5.03125Z" fill="#00136F"></path>
  </symbol>
  <symbol fill="none" xmlns="http://www.w3.org/2000/svg" viewBox="0 0 36 35" id="user">
    <path d="M6.62217 15.3522C6.62217 14.6363 7 14.0994 7.35796 14.0994H7.49717V16.6051H7.35796C7 16.6051 6.62217 16.0681 6.62217 15.3522ZM30.2869 15.3522C30.2869 16.0681 29.9091 16.6051 29.5511 16.6051H29.4119V14.0994H29.5511C29.9091 14.0994 30.2869 14.6363 30.2869 15.3522ZM25.554 25.6335C26.6477 24.7187 27.5227 23.625 28.179 22.3721C28.8352 21.1193 29.2528 19.7869 29.392 18.3551H29.5909C29.9489 18.3153 30.2869 18.2159 30.625 18.0369C30.9432 17.8579 31.2216 17.6392 31.4602 17.3608C31.6989 17.0823 31.858 16.7642 31.9773 16.4062C32.0767 16.0483 32.1165 15.7102 32.0767 15.3323V15.3125C32.1165 14.9545 32.0767 14.5966 31.9574 14.2386C31.858 13.8806 31.679 13.5823 31.4403 13.2841C31.2017 13.0056 30.9233 12.7869 30.6051 12.6079C30.2869 12.4289 29.929 12.3295 29.571 12.3096H28.7159C28.696 12.3096 28.6562 12.3096 28.6364 12.3295C28.6165 12.3295 28.5966 12.3096 28.5767 12.3096C28.3381 12.3096 28.1193 12.3892 27.9602 12.5681C27.7813 12.7471 27.7017 12.946 27.7017 13.1846V17.2414C27.7017 17.838 27.642 18.4545 27.5227 19.0511C27.4034 19.6477 27.2244 20.2244 27.0057 20.7812C26.767 21.338 26.4886 21.875 26.1506 22.3721C25.8125 22.8693 25.4347 23.3466 24.9972 23.7642C24.5597 24.2017 24.1023 24.5795 23.6051 24.9176C23.108 25.2556 22.571 25.5341 22.0142 25.7727C21.4574 26.0113 20.8807 26.1704 20.2841 26.2897C19.6875 26.409 19.0909 26.4687 18.4744 26.4687C17.8778 26.4687 17.2614 26.409 16.6648 26.2897C16.0682 26.1704 15.4915 25.9914 14.9347 25.7528C14.3778 25.5142 13.8409 25.2358 13.3438 24.8977C12.8466 24.5596 12.3693 24.1818 11.9517 23.7443C11.5142 23.3068 11.1364 22.8494 10.7983 22.3522C10.4602 21.8551 10.1818 21.3181 9.94319 20.7613C9.70455 20.2045 9.54546 19.6278 9.42614 19.0312C9.30683 18.4346 9.24716 17.838 9.24716 17.2216V10.9573C9.24716 10.4005 9.28694 9.8636 9.38637 9.30678C9.4858 8.76985 9.62501 8.23291 9.82387 7.71587C10.0227 7.19882 10.2614 6.70167 10.5398 6.22439C10.8182 5.74712 11.1364 5.30962 11.5142 4.89201C11.8722 4.47439 12.2699 4.09655 12.7074 3.75848C13.1449 3.42042 13.6023 3.10223 14.0796 2.84371C14.5568 2.58519 15.0739 2.36644 15.5909 2.18746C16.108 2.00848 16.6449 1.88917 17.2017 1.80962C17.7386 1.73007 18.2955 1.71019 18.8523 1.73007C19.4091 1.74996 19.946 1.82951 20.483 1.94882C21.0199 2.06814 21.5369 2.22723 22.054 2.44598C22.571 2.66473 23.0483 2.92326 23.5057 3.22155C23.9631 3.51985 24.4006 3.85792 24.7983 4.23576C25.196 4.6136 25.554 5.03121 25.892 5.46871C26.2102 5.90621 26.5085 6.38348 26.7472 6.88064C26.9858 7.3778 27.1847 7.89485 27.3438 8.41189C27.4034 8.65053 27.5426 8.80962 27.7614 8.92894C27.9801 9.04826 28.1989 9.06814 28.4176 9.00848C28.6563 8.94882 28.8153 8.80962 28.9347 8.59087C29.054 8.37212 29.0739 8.15337 29.0142 7.93462C28.8352 7.29826 28.5966 6.70167 28.3182 6.10507C28.0199 5.50848 27.6818 4.95167 27.304 4.43462C26.9063 3.89769 26.4886 3.42042 26.0114 2.96303C25.5341 2.50564 25.017 2.10792 24.4801 1.74996C23.9233 1.39201 23.3466 1.09371 22.75 0.835188C22.1534 0.576665 21.517 0.377802 20.8807 0.238597C20.2443 0.0993925 19.5881 0.019847 18.9318 -0.0199257C18.2756 -0.039812 17.6193 -0.0199257 16.9631 0.0795061C16.3068 0.178938 15.6705 0.318142 15.054 0.517006C14.4375 0.71587 13.821 0.974392 13.2443 1.29257C12.6676 1.61076 12.1307 1.96871 11.6136 2.38632C11.0966 2.80394 10.6392 3.24144 10.2017 3.7386C9.76421 4.23576 9.38637 4.77269 9.0483 5.32951C8.71023 5.88632 8.43182 6.48292 8.19319 7.09939C7.95455 7.71587 7.79546 8.35223 7.67614 8.9886C7.55682 9.62496 7.49717 10.2812 7.49717 10.9375V12.3295H7.35796C7 12.3693 6.66194 12.4687 6.32387 12.6477C6.00569 12.8267 5.72728 13.0454 5.48864 13.3238C5.25001 13.6022 5.09091 13.9204 4.9716 14.2784C4.87216 14.6363 4.83239 14.9744 4.87216 15.3522V15.3721C4.83239 15.7301 4.87216 16.088 4.99148 16.446C5.09092 16.8039 5.26989 17.1022 5.50853 17.3806C5.74717 17.6591 6.02558 17.8778 6.34376 18.0568C6.66194 18.2358 7.00001 18.3352 7.37785 18.3551H7.57671C7.71591 19.767 8.13353 21.1193 8.78978 22.3721C9.46592 23.625 10.3409 24.7187 11.4347 25.6335C4.93182 26.8863 0.994324 29.9488 0.994324 34.1051C0.994324 34.3437 1.07387 34.5625 1.25285 34.7216C1.43183 34.9005 1.63069 34.9801 1.86933 34.9801C2.10796 34.9801 2.32671 34.9005 2.4858 34.7216C2.66478 34.5426 2.74433 34.3437 2.74433 34.1051C2.74433 30.1079 7.69603 27.8608 13.642 27.0653C15.1733 27.821 16.7841 28.2187 18.4943 28.2187H18.5142C20.2443 28.2187 21.875 27.821 23.4063 27.0454C29.3125 27.821 34.2443 30.0681 34.2443 34.0852C34.2443 34.3238 34.3239 34.5426 34.5028 34.7017C34.6818 34.8608 34.8807 34.9602 35.1193 34.9602C35.358 34.9602 35.5767 34.8806 35.7358 34.7017C35.9148 34.5227 35.9943 34.3238 35.9943 34.0852C35.9545 29.9289 32.0369 26.8664 25.554 25.6335Z" fill="#00136F"></path>
  </symbol>
  <symbol fill="none" xmlns="http://www.w3.org/2000/svg" viewBox="0 0 8 13" id="expand_right">
    <path d="M1.52115 0.781006L0.680984 1.62118L6.45259 7.39278L7.29276 6.55261L1.52115 0.781006Z" fill="#00136F"></path>
    <path d="M6.43408 5.73218L0.662476 11.5038L1.50265 12.344L7.27425 6.57235L6.43408 5.73218Z" fill="#00136F"></path>
  </symbol>
  <symbol fill="none" xmlns="http://www.w3.org/2000/svg" viewBox="0 0 15 15" id="Home">
    <path d="M12.2094 14.999H10.5563C10.298 14.999 10.0913 14.8957 9.88467 14.7407C9.72969 14.5857 9.62637 14.3274 9.62637 14.0691V9.98793C9.62637 9.83295 9.57471 9.78129 9.41972 9.78129H6.5784C6.42341 9.78129 6.37175 9.83295 6.37175 9.98793V14.0691C6.37175 14.3274 6.26843 14.5341 6.11345 14.7407C5.95847 14.8957 5.70017 14.999 5.44186 14.999H3.68541C3.4271 14.999 3.22046 14.8957 3.01382 14.7407C2.85884 14.5857 2.75552 14.3274 2.75552 14.0691V8.90306C2.75552 8.64476 2.85884 8.54144 3.11714 8.54144C3.37544 8.54144 3.47877 8.64476 3.47877 8.90306V14.0691C3.47877 14.2241 3.53043 14.2758 3.68541 14.2758H5.44186C5.59685 14.2758 5.64851 14.2241 5.64851 14.0691V9.98793C5.64851 9.72963 5.75183 9.52298 5.90681 9.31634C6.06179 9.16136 6.32009 9.05804 6.5784 9.05804H9.41972C9.67803 9.05804 9.88467 9.16136 10.0913 9.31634C10.298 9.47132 10.3496 9.72963 10.3496 9.98793V14.0691C10.3496 14.2241 10.4013 14.2758 10.5563 14.2758H12.2094C12.3644 14.2758 12.416 14.2241 12.416 14.0691V7.81819C12.416 7.55989 12.5194 7.45656 12.7777 7.45656H13.6559L7.97323 1.87723L1.61899 8.07649C1.464 8.23147 1.30902 8.23147 1.10238 8.07649C0.9474 7.92151 0.9474 7.76653 1.10238 7.55989L7.71493 1.10232C7.86991 0.947339 8.02489 0.947339 8.17987 1.10232L14.7924 7.55989C14.8957 7.66321 14.9474 7.81819 14.8957 7.92151C14.8441 8.07649 14.7408 8.12815 14.5858 8.12815H13.1909V14.0175C13.1909 14.2758 13.0876 14.4824 12.9326 14.689C12.6743 14.8957 12.4677 14.9473 12.2094 14.999Z" fill="#00136F"></path>
  </symbol>
  <symbol fill="none" xmlns="http://www.w3.org/2000/svg" viewBox="0 0 10 12" id="expand_top">
    <path d="M4.63483 12C4.41861 12 4.25645 11.9459 4.09429 11.7838C3.93213 11.6216 3.87807 11.4595 3.87807 11.2432V5.62162H0.742937C0.418613 5.62162 0.202396 5.45946 0.0942883 5.18919C-0.0678739 4.86486 -0.0138198 4.59459 0.202396 4.37838L4.36456 0.216216C4.52672 0.0540541 4.68888 0 4.9051 0C5.12132 0 5.28348 0.0540541 5.44564 0.216216L9.6078 4.37838C9.76996 4.54054 9.82402 4.7027 9.82402 4.91892C9.82402 5.13514 9.76996 5.2973 9.6078 5.45946C9.44564 5.62162 9.28348 5.67568 9.06726 5.67568C8.85104 5.67568 8.68888 5.62162 8.52672 5.45946L4.9051 1.78378L2.47267 4.16216H4.58077C4.79699 4.16216 4.95915 4.21622 5.12132 4.37838C5.28348 4.54054 5.33753 4.7027 5.33753 4.91892V11.2973C5.33753 11.5135 5.28348 11.6757 5.12132 11.8378C5.01321 11.9459 4.79699 12 4.63483 12Z" fill="#00136F"></path>
  </symbol>
</svg>