<svg width="50" height="50" viewBox="0 0 50 50" fill="none" xmlns="http://www.w3.org/2000/svg">
<rect width="50" height="50" rx="25" fill="#5B7FA0"/>
<path fill-rule="evenodd" clip-rule="evenodd" d="M35.3988 27.6387C36.364 28.5188 37.2819 29.4493 38.1489 30.4262C38.5279 30.8593 38.8578 31.3329 39.1326 31.8386C39.2312 31.9775 39.2937 32.1388 39.3146 32.3079C39.3354 32.477 39.3138 32.6485 39.2518 32.8072C39.1898 32.9659 39.0894 33.1065 38.9595 33.2167C38.8295 33.327 38.6743 33.403 38.5076 33.4383H34.4214C33.9347 33.4749 33.4462 33.3981 32.9944 33.2137C32.5425 33.0293 32.1397 32.7429 31.8176 32.3763C31.2539 31.7888 30.7289 31.1757 30.1839 30.5757C29.965 30.3275 29.7184 30.1055 29.4489 29.9135C29.3449 29.8237 29.2208 29.7599 29.0872 29.728C28.9536 29.696 28.8142 29.6967 28.6809 29.7298C28.5475 29.7629 28.424 29.8277 28.3208 29.9184C28.2176 30.0091 28.1376 30.1231 28.0876 30.251C27.7991 30.847 27.652 31.5012 27.6576 32.1633C27.6918 32.3406 27.6815 32.5238 27.6277 32.6961C27.5739 32.8685 27.4781 33.0251 27.3491 33.1514C27.2201 33.2777 27.0617 33.3698 26.8883 33.42C26.7148 33.4701 26.5316 33.4763 26.3551 33.4383C24.3251 33.5888 22.2947 33.1508 20.5076 32.1761C18.9502 31.2334 17.6093 29.9726 16.5726 28.4761C14.5193 25.5739 12.7824 22.4601 11.3913 19.1884C11.0651 18.4634 11.3039 18.0638 12.1051 18.0513C13.4401 18.0263 14.7739 18.0388 16.1051 18.0513C16.3548 18.0562 16.5965 18.1396 16.7959 18.29C16.9952 18.4404 17.1419 18.65 17.2151 18.8887C17.9219 20.6709 18.8321 22.3655 19.9276 23.9388C20.199 24.3723 20.5462 24.7532 20.9526 25.0637C21.0299 25.1473 21.1288 25.208 21.2384 25.2388C21.3479 25.2697 21.4639 25.2693 21.5735 25.2382C21.683 25.2072 21.7818 25.1462 21.8588 25.0624C21.9359 24.9786 21.9883 24.8751 22.0101 24.7634C22.1429 24.4235 22.2221 24.0649 22.2451 23.7007C22.3683 22.465 22.3469 21.2194 22.1814 19.9886C22.1576 19.6384 22.0143 19.307 21.7753 19.0499C21.5364 18.7927 21.2164 18.6256 20.8688 18.5762C20.4788 18.5012 20.5364 18.3508 20.7251 18.1258C20.865 17.9258 21.0526 17.7644 21.2709 17.6552C21.4891 17.5461 21.7312 17.4927 21.9751 17.5008H26.5939C26.7385 17.5152 26.8789 17.5584 27.007 17.6271C27.1351 17.6959 27.2483 17.7891 27.3402 17.9018C27.432 18.0145 27.5008 18.144 27.5424 18.2833C27.584 18.4226 27.5976 18.569 27.5826 18.7136V23.8637C27.57 24.12 27.6234 24.3749 27.7376 24.6047C27.8519 24.8345 28.0232 25.0313 28.2351 25.176C28.4163 25.2047 28.6019 25.1771 28.7668 25.0966C28.9316 25.0161 29.0677 24.8867 29.1564 24.7261C30.2197 23.5263 31.0969 22.1738 31.7589 20.7137C32.0701 20.0762 32.3401 19.4133 32.6013 18.7508C32.6639 18.5284 32.8028 18.3354 32.9937 18.2051C33.1845 18.0749 33.4151 18.0158 33.6451 18.0385H38.0913C38.2231 18.0343 38.3549 18.0427 38.4851 18.0635C38.6293 18.0503 38.7744 18.0778 38.9037 18.1429C39.0331 18.208 39.1416 18.3079 39.2168 18.4316C39.2921 18.5553 39.3312 18.6981 39.3295 18.843C39.3279 18.9878 39.2857 19.1293 39.2076 19.2513C38.7863 20.3643 38.1891 21.4024 37.4389 22.3262C36.6976 23.3637 35.9064 24.3634 35.1688 25.3884C35.0062 25.5364 34.8805 25.7206 34.8019 25.9261C34.7233 26.1316 34.6941 26.353 34.7164 26.5718C34.7388 26.7907 34.8122 27.0012 34.9307 27.1865C35.0492 27.3718 35.2096 27.5267 35.3988 27.6387Z" fill="white"/>
</svg>
