<svg width="35" height="35" viewBox="0 0 35 35" fill="none" xmlns="http://www.w3.org/2000/svg">
<path d="M17.6875 35.0001C16.6932 35.0001 15.6989 34.9205 14.7046 34.7415C13.7102 34.5626 12.7557 34.3239 11.821 33.9859C10.8864 33.6478 9.97161 33.2302 9.09661 32.7529C8.22161 32.2557 7.40627 31.6989 6.6307 31.0626C5.85513 30.4262 5.13922 29.7302 4.48297 28.9745C3.82672 28.2188 3.25002 27.4234 2.73297 26.5682C2.21593 25.7131 1.77843 24.8182 1.40059 23.8836C1.04263 22.9489 0.744338 21.9944 0.545474 21.0199C0.346611 20.0455 0.227283 19.0512 0.18751 18.0569C0.147737 17.0626 0.207406 16.0682 0.346611 15.0739C0.485815 14.0796 0.704558 13.1052 1.02274 12.1705C1.32104 11.216 1.71876 10.3012 2.17615 9.40631C2.63353 8.51142 3.17047 7.67619 3.78695 6.88074C4.40343 6.08529 5.05967 5.34949 5.79547 4.67335C6.53126 3.99722 7.30683 3.38074 8.14206 2.84381C8.97728 2.30688 9.85229 1.8296 10.7671 1.43188L11.3239 1.21313C11.5426 1.1137 11.7813 1.09381 12.0199 1.19324C12.2585 1.27279 12.4176 1.43188 12.537 1.65063C12.6364 1.86938 12.6563 2.10801 12.5568 2.34665C12.4773 2.58529 12.3182 2.74438 12.0994 2.86369L11.5625 3.08245C10.608 3.48017 9.71309 3.97733 8.85797 4.57392C8.00286 5.15063 7.22729 5.82676 6.49149 6.56256C5.77558 7.29835 5.11933 8.09381 4.56251 8.96881C4.00569 9.82392 3.52842 10.7387 3.15058 11.6932C2.77274 12.6478 2.47445 13.6421 2.29547 14.6563C2.11649 15.6705 2.01707 16.6847 2.03695 17.7188C2.05684 18.7529 2.15626 19.7671 2.37501 20.7813C2.59376 21.7955 2.89206 22.7699 3.30967 23.7245C3.7074 24.679 4.20456 25.5739 4.80115 26.429C5.37785 27.2841 6.05399 28.0597 6.78979 28.7955C7.52558 29.5313 8.32104 30.1677 9.19604 30.7245C10.0512 31.2813 10.9659 31.7586 11.9205 32.1364C12.875 32.5143 13.8693 32.8126 14.8835 32.9915C15.8977 33.1904 16.912 33.2699 17.946 33.2501C18.9801 33.2302 19.9943 33.1307 21.0085 32.912C22.0227 32.6932 22.9972 32.3949 23.9517 31.9773C25.0654 31.5001 26.0994 30.9035 27.0739 30.2074C28.0483 29.4915 28.9233 28.6961 29.7188 27.7813C30.5142 26.8665 31.1705 25.8921 31.7472 24.8182C32.304 23.7643 32.7415 22.6506 33.0597 21.4773C32.6818 21.4773 32.3239 21.4376 31.946 21.3779C31.5881 21.2984 31.2301 21.1989 30.8722 21.0597C30.5341 20.9205 30.196 20.7415 29.8779 20.5427C29.5597 20.3438 29.2813 20.1052 29.0227 19.8268C28.7642 19.5682 28.5256 19.2699 28.3068 18.9716C28.108 18.6535 27.929 18.3353 27.7898 17.9773C27.6506 17.6393 27.5313 17.2813 27.4716 16.9035C27.3921 16.5455 27.3722 16.1677 27.3722 15.7898V15.4518C26.8949 15.4915 26.4375 15.4716 25.9602 15.4319C25.483 15.3722 25.0256 15.2728 24.5881 15.1336C24.1307 14.9944 23.7131 14.7955 23.2955 14.5768C22.8779 14.358 22.5 14.0796 22.1421 13.7813C21.7841 13.483 21.446 13.1449 21.1676 12.7671C20.8693 12.3893 20.6108 12.0114 20.3921 11.5938C20.1733 11.1762 19.9943 10.7387 19.875 10.2813C19.7358 9.82392 19.6563 9.36654 19.6165 8.88926V8.33245C19.6364 7.69608 19.696 7.0796 19.8353 6.46313C19.2983 6.38358 18.8012 6.22449 18.3438 5.96597C17.8665 5.70744 17.4688 5.38926 17.1108 4.99154C16.7529 4.59381 16.4943 4.13642 16.2955 3.63926C16.0966 3.1421 16.0171 2.62506 15.9972 2.08813C15.9972 1.67051 16.0767 1.27279 16.2159 0.875059C16.2756 0.636422 16.4148 0.457445 16.6335 0.358013C16.8523 0.238695 17.071 0.238695 17.3097 0.338127C17.5483 0.397786 17.7273 0.536991 17.8267 0.755741C17.946 0.974491 17.946 1.19324 17.8466 1.43188C17.7472 1.67051 17.7273 1.92904 17.7472 2.20745C17.7472 2.5654 17.8068 2.92335 17.946 3.26142C18.0853 3.59949 18.2841 3.89779 18.5426 4.15631C18.8012 4.41483 19.0995 4.61369 19.4375 4.7529C19.7756 4.8921 20.1335 4.95176 20.4915 4.95176H21.0284C21.3864 4.8921 21.6847 4.99154 21.9034 5.28983C21.8835 5.46881 21.8438 5.66767 21.804 5.84665C21.446 6.60233 21.2671 7.41767 21.2472 8.2529C21.2472 8.96881 21.3864 9.66483 21.6449 10.3211C21.9233 10.9773 22.3012 11.5739 22.7983 12.091C23.2955 12.608 23.8722 13.0057 24.5284 13.2841C25.1847 13.5626 25.8807 13.7216 26.5966 13.7216C27.1137 13.7018 27.6307 13.6222 28.1279 13.5029C28.3665 13.4432 28.6051 13.4631 28.8239 13.6023C29.0426 13.7415 29.1818 13.9205 29.2216 14.1591V14.6961C29.1222 14.9944 29.0426 15.2927 29.0227 15.6109C28.983 15.929 29.0029 16.2273 29.0426 16.5455C29.0824 16.8637 29.162 17.162 29.2813 17.4404C29.4006 17.7387 29.5398 17.9972 29.7387 18.2557C29.9176 18.5143 30.1364 18.733 30.375 18.9319C30.6137 19.1307 30.8722 19.3097 31.1506 19.4489C31.429 19.5881 31.7273 19.6876 32.0256 19.7671C32.3239 19.8268 32.6421 19.8665 32.9404 19.8665C33.2387 19.8864 33.537 19.8466 33.8154 19.7671C34.1335 19.6478 34.3722 19.7273 34.5909 19.9859C34.8296 20.1847 34.9091 20.4432 34.8097 20.7614C34.6307 21.7557 34.3722 22.7302 34.0341 23.6847C33.696 24.6393 33.2585 25.554 32.7614 26.429C32.2642 27.304 31.6875 28.1393 31.0313 28.9148C30.375 29.6904 29.679 30.4063 28.9034 31.0626C28.1279 31.7188 27.3125 32.2955 26.4176 32.7927C25.5426 33.2898 24.6279 33.7273 23.6733 34.0654C22.7188 34.4035 21.7443 34.662 20.75 34.841C19.696 34.9205 18.7017 35.0001 17.6875 35.0001Z" fill="#00136F"/>
<path d="M14.1875 13.3437C14.1875 13.8607 14.0881 14.338 13.8892 14.8153C13.6903 15.2925 13.4119 15.6903 13.054 16.0482C12.696 16.4062 12.2784 16.6846 11.821 16.8835C11.3437 17.0823 10.8665 17.1818 10.3494 17.1818C9.83237 17.1818 9.3551 17.0823 8.87782 16.8835C8.40055 16.6846 8.00282 16.4062 7.64487 16.0482C7.28691 15.6903 7.00851 15.2727 6.80965 14.8153C6.61078 14.338 6.51135 13.8607 6.51135 13.3437C6.51135 12.8266 6.61078 12.3494 6.80965 11.8721C7.00851 11.3948 7.28691 10.9971 7.64487 10.6391C8.00282 10.2812 8.42044 10.0028 8.87782 9.80391C9.3551 9.60505 9.83237 9.50562 10.3494 9.50562C10.8665 9.50562 11.3437 9.60505 11.821 9.80391C12.2983 10.0028 12.696 10.2812 13.054 10.6391C13.4119 10.9971 13.6903 11.4147 13.8892 11.8721C14.0881 12.3494 14.1875 12.8266 14.1875 13.3437Z" fill="#00136F"/>
<path d="M20.75 16.7244C20.392 16.7244 20.0341 16.784 19.696 16.9232C19.358 17.0624 19.0597 17.2613 18.8011 17.5198C18.5426 17.7783 18.3437 18.0766 18.2045 18.4147C18.0653 18.7528 18.0057 19.0908 18.0057 19.4687C18.0057 19.8266 18.0653 20.1846 18.2045 20.5227C18.3437 20.8607 18.5426 21.159 18.8011 21.4176C19.0597 21.6761 19.358 21.8749 19.696 22.0141C20.0341 22.1533 20.3722 22.213 20.75 22.213C21.1278 22.213 21.4659 22.1533 21.804 22.0141C22.142 21.8749 22.4403 21.6761 22.6989 21.4176C22.9574 21.159 23.1563 20.8607 23.2955 20.5227C23.4347 20.1846 23.4943 19.8465 23.4943 19.4687C23.4943 19.1107 23.4347 18.7528 23.2955 18.4147C23.1563 18.0766 22.9574 17.7783 22.6989 17.5198C22.4403 17.2613 22.142 17.0624 21.804 16.9232C21.4659 16.784 21.108 16.7244 20.75 16.7244Z" fill="#00136F"/>
<path d="M11.4432 21C11.0256 21 10.6079 21.0795 10.2301 21.2386C9.85225 21.3977 9.49431 21.6364 9.19601 21.9347C8.89772 22.233 8.67897 22.571 8.49999 22.9687C8.3409 23.3665 8.26135 23.7642 8.26135 24.1818C8.26135 24.5994 8.3409 25.017 8.49999 25.3949C8.65908 25.7926 8.89772 26.1307 9.19601 26.429C9.49431 26.7273 9.83237 26.946 10.2301 27.125C10.6278 27.2841 11.0256 27.3636 11.4432 27.3636C11.8608 27.3636 12.2784 27.2841 12.6562 27.125C13.054 26.9659 13.392 26.7273 13.6903 26.429C13.9886 26.1307 14.2074 25.7926 14.3863 25.3949C14.5454 24.9972 14.625 24.5994 14.625 24.1818C14.625 23.7642 14.5454 23.3665 14.3863 22.9687C14.2273 22.571 13.9886 22.233 13.6903 21.9347C13.392 21.6364 13.054 21.4176 12.6562 21.2386C12.2585 21.0597 11.8608 21 11.4432 21Z" fill="#00136F"/>
<path d="M19.9744 25.4744C19.7159 25.4744 19.4574 25.534 19.2187 25.6335C18.9801 25.7329 18.7613 25.8721 18.5824 26.0511C18.4034 26.23 18.2642 26.4488 18.1648 26.6874C18.0653 26.9261 18.0057 27.1846 18.0057 27.4431C18.0057 27.7016 18.0653 27.9602 18.1648 28.1988C18.2642 28.4374 18.4034 28.6562 18.5824 28.8352C18.7613 29.0141 18.9801 29.1533 19.2187 29.2528C19.4574 29.3522 19.7159 29.4119 19.9744 29.4119C20.2329 29.4119 20.4915 29.3522 20.7301 29.2528C20.9687 29.1533 21.1875 29.0141 21.3664 28.8352C21.5454 28.6562 21.6846 28.4374 21.7841 28.1988C21.8835 27.9602 21.9432 27.7016 21.9432 27.4431C21.963 27.1846 21.9034 26.9261 21.8238 26.6675C21.7244 26.4289 21.5852 26.2102 21.4062 26.0113C21.2272 25.8323 21.0085 25.6732 20.75 25.5937C20.4915 25.5141 20.2329 25.4744 19.9744 25.4744Z" fill="#00136F"/>
<path d="M31.4688 5.03125C31.2102 5.03125 30.9517 5.09091 30.7131 5.19034C30.4744 5.28977 30.2557 5.42898 30.0767 5.60795C29.8977 5.78693 29.7585 6.00568 29.6591 6.24432C29.5597 6.48295 29.5 6.74148 29.5 7C29.5 7.25852 29.5597 7.51705 29.6591 7.75568C29.7585 7.99432 29.8977 8.21307 30.0767 8.39205C30.2557 8.57102 30.4744 8.71023 30.7131 8.80966C30.9517 8.90909 31.2102 8.96875 31.4688 8.96875C31.7273 8.98864 31.9858 8.92898 32.2245 8.84943C32.4631 8.75 32.6818 8.6108 32.8807 8.43182C33.0597 8.25284 33.2188 8.03409 33.2983 7.77557C33.3978 7.53693 33.4375 7.27841 33.4177 7.01989C33.4177 6.76136 33.3779 6.50284 33.2784 6.2642C33.179 6.02557 33.0398 5.80682 32.8608 5.62784C32.6819 5.44886 32.4631 5.30966 32.2245 5.21023C31.9858 5.07102 31.7273 5.03125 31.4688 5.03125Z" fill="#00136F"/>
</svg>
